<svg id="圖層_1" data-name="圖層 1" xmlns="http://www.w3.org/2000/svg" viewBox="0 0 36.93 30.69"><defs><style>.cls-1{fill:#fff;}</style></defs><title>backicon</title><path class="cls-1" d="M48.47,35.11c-.15.75-.23,1.5-.44,2.22a10.74,10.74,0,0,1-5.52,6.78,11.16,11.16,0,0,1-5.35,1.23H15.31a1.56,1.56,0,0,1-1.69-1.11,1.5,1.5,0,0,1,1.31-1.9H37.32a8,8,0,1,0,0-15.9H16.8l-.4,0,.45.53q2.46,2.81,4.91,5.62a1.51,1.51,0,1,1-2.25,2c-.69-.77-1.36-1.55-2.05-2.33L12,26a1.51,1.51,0,0,1,0-2.09q3.77-4.31,7.52-8.6a1.52,1.52,0,0,1,1.64-.55A1.44,1.44,0,0,1,22.19,16a1.59,1.59,0,0,1-.45,1.32l-4.34,5-1,1.18h.49q10,0,20,0a11.86,11.86,0,0,1,4.72.8,10.89,10.89,0,0,1,6.08,6.12,10,10,0,0,1,.73,3.1,2.1,2.1,0,0,0,.06.24Z" transform="translate(-11.53 -14.66)"/></svg>