<?xml version="1.0" encoding="utf-8"?>
<!-- Generator: Adobe Illustrator 24.0.3, SVG Export Plug-In . SVG Version: 6.00 Build 0)  -->
<svg version="1.1" id="圖層_1" xmlns="http://www.w3.org/2000/svg" xmlns:xlink="http://www.w3.org/1999/xlink" x="0px" y="0px"
	 viewBox="0 0 50 50" style="enable-background:new 0 0 50 50;" xml:space="preserve">
<style type="text/css">
	.st0{fill:#A5D4DC;}
	.st1{fill:#5073B3;}
</style>
<g>
	<g>
		<path class="st0" d="M37.98,8.66c0-2.29,1.86-4.15,4.15-4.15c2.29,0,4.15,1.86,4.15,4.15c0,2.29-1.86,4.15-4.15,4.15
			C39.84,12.81,37.98,10.95,37.98,8.66z"/>
		<path class="st0" d="M26.28,8.66c0-2.29,1.86-4.15,4.15-4.15c2.29,0,4.15,1.86,4.15,4.15c0,2.29-1.86,4.15-4.15,4.15
			C28.14,12.81,26.28,10.95,26.28,8.66z"/>
		<path class="st0" d="M14.58,8.66c0-2.29,1.86-4.15,4.15-4.15c2.29,0,4.15,1.86,4.15,4.15c0,2.29-1.86,4.15-4.15,4.15
			C16.44,12.81,14.58,10.95,14.58,8.66z"/>
		<path class="st0" d="M2.87,8.66c0-2.29,1.86-4.15,4.15-4.15c2.29,0,4.15,1.86,4.15,4.15c0,2.29-1.86,4.15-4.15,4.15
			C4.73,12.81,2.87,10.95,2.87,8.66z"/>
	</g>
</g>
<g>
	<path class="st1" d="M37.98,25.21c0-2.29,1.86-4.15,4.15-4.15c2.29,0,4.15,1.86,4.15,4.15c0,2.29-1.86,4.15-4.15,4.15
		C39.84,29.36,37.98,27.5,37.98,25.21z"/>
	<path class="st1" d="M26.28,25.21c0-2.29,1.86-4.15,4.15-4.15c2.29,0,4.15,1.86,4.15,4.15c0,2.29-1.86,4.15-4.15,4.15
		C28.14,29.36,26.28,27.5,26.28,25.21z"/>
	<path class="st1" d="M14.58,25.21c0-2.29,1.86-4.15,4.15-4.15c2.29,0,4.15,1.86,4.15,4.15c0,2.29-1.86,4.15-4.15,4.15
		C16.44,29.36,14.58,27.5,14.58,25.21z"/>
	<path class="st1" d="M2.87,25.21c0-2.29,1.86-4.15,4.15-4.15c2.29,0,4.15,1.86,4.15,4.15c0,2.29-1.86,4.15-4.15,4.15
		C4.73,29.36,2.87,27.5,2.87,25.21z"/>
</g>
<g>
	<path class="st1" d="M37.98,41.76c0-2.29,1.86-4.15,4.15-4.15c2.29,0,4.15,1.86,4.15,4.15c0,2.29-1.86,4.15-4.15,4.15
		C39.84,45.91,37.98,44.06,37.98,41.76z"/>
	<path class="st1" d="M26.28,41.76c0-2.29,1.86-4.15,4.15-4.15c2.29,0,4.15,1.86,4.15,4.15c0,2.29-1.86,4.15-4.15,4.15
		C28.14,45.91,26.28,44.06,26.28,41.76z"/>
	<path class="st1" d="M14.58,41.76c0-2.29,1.86-4.15,4.15-4.15c2.29,0,4.15,1.86,4.15,4.15c0,2.29-1.86,4.15-4.15,4.15
		C16.44,45.91,14.58,44.06,14.58,41.76z"/>
	<path class="st1" d="M2.87,41.76c0-2.29,1.86-4.15,4.15-4.15c2.29,0,4.15,1.86,4.15,4.15c0,2.29-1.86,4.15-4.15,4.15
		C4.73,45.91,2.87,44.06,2.87,41.76z"/>
</g>
</svg>
