<?xml version="1.0" encoding="utf-8"?>
<!-- Generator: Adobe Illustrator 24.0.3, SVG Export Plug-In . SVG Version: 6.00 Build 0)  -->
<svg version="1.1" id="圖層_1" xmlns="http://www.w3.org/2000/svg" xmlns:xlink="http://www.w3.org/1999/xlink" x="0px" y="0px"
	 viewBox="0 0 648.17 129.41" style="enable-background:new 0 0 648.17 129.41;" xml:space="preserve">
<style type="text/css">
	.st0{fill:#DEE0E0;}
	.st1{fill:#A5D4DC;}
	.st2{fill:#D7E2E9;}
	.st3{fill:#52A7CC;}
</style>
<g>
	<rect x="101.91" y="72.53" class="st0" width="20" height="42.83"/>
	<rect x="191.91" y="80.36" class="st1" width="20" height="35"/>
	<rect x="341.91" y="33.65" class="st2" width="20" height="81.71"/>
	<rect x="401.91" y="61.36" class="st1" width="20" height="54"/>
	<rect x="616.91" y="72.36" class="st2" width="20" height="43"/>
	<rect x="616.91" y="58.45" class="st2" width="20" height="6.9"/>
	<polygon class="st0" points="526.91,68.36 526.91,80.36 526.91,81.57 526.91,115.36 546.91,115.36 546.91,81.57 546.91,80.36 
		546.91,68.36 	"/>
	<rect x="526.91" y="53.36" class="st0" width="20" height="8"/>
	<rect x="221.91" y="49.28" class="st2" width="20" height="11.08"/>
	<rect x="221.91" y="67.36" class="st2" width="20" height="48"/>
	<rect x="251.91" y="104.36" class="st1" width="20" height="11"/>
	<rect x="251.91" y="19.43" class="st1" width="20" height="77.92"/>
	<rect x="131.91" y="78.36" class="st2" width="20" height="37"/>
	<rect x="131.91" y="62.4" class="st2" width="20" height="8.96"/>
	<rect x="161.91" y="63.36" class="st3" width="20" height="52"/>
	<rect x="161.91" y="45.36" class="st3" width="20" height="11"/>
	<rect x="71.91" y="74.36" class="st1" width="20" height="41"/>
	<rect x="71.91" y="57.33" class="st1" width="20" height="10.03"/>
	<rect x="41.91" y="53.18" class="st1" width="20" height="9.17"/>
	<rect x="41.91" y="69.36" class="st1" width="20" height="9"/>
	<rect x="41.91" y="104.36" class="st1" width="20" height="11"/>
	<rect x="41.91" y="85.36" class="st1" width="20" height="12"/>
	<rect x="11.91" y="94.36" class="st2" width="20" height="21"/>
	<rect x="11.91" y="66.08" class="st2" width="20" height="10.28"/>
	<rect x="11.91" y="83.36" class="st2" width="20" height="4"/>
	<rect x="496.91" y="40.2" class="st2" width="20" height="9.16"/>
	<rect x="496.91" y="69.36" class="st2" width="20" height="46"/>
	<rect x="496.91" y="56.36" class="st2" width="20" height="6"/>
	<rect x="466.91" y="85.36" class="st3" width="20" height="30"/>
	<rect x="466.91" y="22.36" class="st3" width="20" height="7"/>
	<rect x="466.91" y="36.36" class="st3" width="20" height="42"/>
	<rect x="436.91" y="85.36" class="st1" width="20" height="30"/>
	<rect x="436.91" y="68.86" class="st1" width="20" height="9.5"/>
	<rect x="371.91" y="7.36" class="st3" width="20" height="48"/>
	<rect x="371.91" y="62.36" class="st3" width="20" height="53"/>
	<rect x="311.91" y="49.28" class="st0" width="20" height="9.08"/>
	<rect x="311.91" y="65.36" class="st0" width="20" height="50"/>
	<rect x="281.91" y="48.36" class="st1" width="20" height="16"/>
	<rect x="281.91" y="71.36" class="st1" width="20" height="44"/>
	<rect x="281.91" y="25.83" class="st1" width="20" height="15.53"/>
	<rect x="586.91" y="83.36" class="st1" width="20" height="32"/>
	<rect x="586.91" y="32.76" class="st1" width="20" height="13.6"/>
	<rect x="586.91" y="53.36" class="st1" width="20" height="23"/>
	<rect x="556.91" y="38.26" class="st1" width="20" height="19.09"/>
	<rect x="556.91" y="64.36" class="st1" width="20" height="51"/>
	<rect x="616.91" y="58.36" class="st2" width="20" height="7"/>
</g>
</svg>
