<?xml version="1.0" encoding="utf-8"?>
<!-- Generator: Adobe Illustrator 24.0.3, SVG Export Plug-In . SVG Version: 6.00 Build 0)  -->
<svg version="1.1" id="圖層_1" xmlns="http://www.w3.org/2000/svg" xmlns:xlink="http://www.w3.org/1999/xlink" x="0px" y="0px"
	 viewBox="0 0 250 250" style="enable-background:new 0 0 250 250;" xml:space="preserve">
<style type="text/css">
	.st0{fill:none;}
	.st1{fill:#434343;}
	.st2{fill:url(#XMLID_41_);}
	.st3{fill:#FFFFFF;}
	.st4{fill:#E6E6E6;}
	.st5{fill:#3F3D56;}
	.st6{fill:#A5D4DC;}
</style>
<pattern  y="250" width="28.8" height="28.8" patternUnits="userSpaceOnUse" id="_x31_0_ppp_20_x25__3" viewBox="1.44 -30.24 28.8 28.8" style="overflow:visible;">
	<g id="XMLID_66_">
		<rect id="XMLID_131_" x="1.44" y="-30.24" class="st0" width="28.8" height="28.8"/>
		<g id="XMLID_75_">
			<path id="XMLID_130_" class="st1" d="M30.24,0c0.8,0,1.44-0.64,1.44-1.44c0-0.79-0.64-1.44-1.44-1.44c-0.8,0-1.44,0.64-1.44,1.44
				C28.8-0.64,29.44,0,30.24,0z"/>
			<path id="XMLID_128_" class="st1" d="M15.84,0c0.8,0,1.44-0.64,1.44-1.44c0-0.79-0.65-1.44-1.44-1.44c-0.8,0-1.44,0.64-1.44,1.44
				C14.4-0.64,15.04,0,15.84,0z"/>
			<path id="XMLID_81_" class="st1" d="M30.24-14.4c0.8,0,1.44-0.65,1.44-1.44c0-0.8-0.64-1.44-1.44-1.44
				c-0.8,0-1.44,0.64-1.44,1.44C28.8-15.04,29.44-14.4,30.24-14.4z"/>
			<path id="XMLID_80_" class="st1" d="M15.84-14.4c0.8,0,1.44-0.65,1.44-1.44c0-0.8-0.65-1.44-1.44-1.44
				c-0.8,0-1.44,0.64-1.44,1.44C14.4-15.04,15.04-14.4,15.84-14.4z"/>
			<path id="XMLID_79_" class="st1" d="M8.64-7.2c0.79,0,1.44-0.64,1.44-1.44c0-0.8-0.65-1.44-1.44-1.44c-0.8,0-1.44,0.64-1.44,1.44
				C7.2-7.84,7.84-7.2,8.64-7.2z"/>
			<path id="XMLID_78_" class="st1" d="M23.04-7.2c0.79,0,1.44-0.64,1.44-1.44c0-0.8-0.65-1.44-1.44-1.44
				c-0.8,0-1.44,0.64-1.44,1.44C21.6-7.84,22.24-7.2,23.04-7.2z"/>
			<path id="XMLID_77_" class="st1" d="M8.64-21.6c0.79,0,1.44-0.64,1.44-1.44c0-0.8-0.65-1.44-1.44-1.44
				c-0.8,0-1.44,0.64-1.44,1.44C7.2-22.24,7.84-21.6,8.64-21.6z"/>
			<path id="XMLID_76_" class="st1" d="M23.04-21.6c0.79,0,1.44-0.64,1.44-1.44c0-0.8-0.65-1.44-1.44-1.44
				c-0.8,0-1.44,0.64-1.44,1.44C21.6-22.24,22.24-21.6,23.04-21.6z"/>
		</g>
		<g id="XMLID_72_">
			<path id="XMLID_74_" class="st1" d="M1.44,0c0.79,0,1.44-0.64,1.44-1.44c0-0.79-0.64-1.44-1.44-1.44C0.64-2.88,0-2.23,0-1.44
				C0-0.64,0.64,0,1.44,0z"/>
			<path id="XMLID_73_" class="st1" d="M1.44-14.4c0.79,0,1.44-0.65,1.44-1.44c0-0.8-0.64-1.44-1.44-1.44
				c-0.8,0-1.44,0.64-1.44,1.44C0-15.04,0.64-14.4,1.44-14.4z"/>
		</g>
		<g id="XMLID_69_">
			<path id="XMLID_71_" class="st1" d="M30.24-28.8c0.8,0,1.44-0.64,1.44-1.44c0-0.8-0.64-1.44-1.44-1.44
				c-0.8,0-1.44,0.64-1.44,1.44C28.8-29.45,29.44-28.8,30.24-28.8z"/>
			<path id="XMLID_70_" class="st1" d="M15.84-28.8c0.8,0,1.44-0.64,1.44-1.44c0-0.8-0.65-1.44-1.44-1.44
				c-0.8,0-1.44,0.64-1.44,1.44C14.4-29.45,15.04-28.8,15.84-28.8z"/>
		</g>
		<g id="XMLID_67_">
			<path id="XMLID_68_" class="st1" d="M1.44-28.8c0.79,0,1.44-0.64,1.44-1.44c0-0.8-0.64-1.44-1.44-1.44
				c-0.8,0-1.44,0.64-1.44,1.44C0-29.45,0.64-28.8,1.44-28.8z"/>
		</g>
	</g>
</pattern>
<pattern  id="XMLID_41_" xlink:href="#_x31_0_ppp_20_x25__3" patternTransform="matrix(-0.552 0.552 -0.552 -0.552 -17128.9395 -8471.2461)">
</pattern>
<circle id="XMLID_39_" class="st2" cx="93.97" cy="125" r="73.51"/>
<g>
	<g>
		<g>
			<g>
				<path class="st3" d="M217.96,143.07h-80.09c-2.75,0-5-2.25-5-5V94.72c0-2.75,2.25-5,5-5h80.09c2.75,0,5,2.25,5,5v43.36
					C222.96,140.82,220.71,143.07,217.96,143.07z"/>
				<path class="st4" d="M218.84,143.56h-82c-2.28,0-4.13-1.85-4.14-4.14V93.44c0-2.28,1.85-4.13,4.14-4.14h82
					c2.28,0,4.13,1.85,4.14,4.14v45.99C222.97,141.71,221.12,143.56,218.84,143.56z M136.84,89.79c-2.01,0-3.65,1.63-3.65,3.65
					v45.99c0,2.01,1.63,3.65,3.65,3.65h82c2.01,0,3.65-1.63,3.65-3.65V93.44c0-2.01-1.63-3.65-3.65-3.65H136.84z"/>
				<path class="st4" d="M198.06,107.63h-15.82c-0.6,0-1.09,0.49-1.09,1.09c0,0.6,0.49,1.09,1.09,1.09h15.82
					c0.6,0,1.09-0.49,1.09-1.09C199.15,108.12,198.66,107.63,198.06,107.63L198.06,107.63z"/>
				<path class="st4" d="M213.47,114.56h-31.44c-0.49,0-0.89,0.49-0.89,1.09c0,0.6,0.4,1.09,0.89,1.09h31.44
					c0.49,0,0.89-0.49,0.89-1.09C214.36,115.05,213.96,114.56,213.47,114.56z"/>
				<path class="st4" d="M213.47,121.66h-31.44c-0.49,0-0.89,0.49-0.89,1.09s0.4,1.09,0.89,1.09h31.44c0.49,0,0.89-0.49,0.89-1.09
					S213.96,121.66,213.47,121.66z"/>
				<path class="st4" d="M170.17,133.46h-27.25c-1.41,0-2.55-1.14-2.55-2.55v-30.41c0-1.41,1.14-2.55,2.55-2.55h27.25
					c1.41,0,2.55,1.14,2.55,2.55v30.41C172.73,132.32,171.58,133.46,170.17,133.46z"/>
				<circle class="st4" cx="220.78" cy="90.03" r="8.76"/>
			</g>
			<g>
				<path class="st3" d="M113.96,151.8H33.87c-2.75,0-5-2.25-5-5v-44.23c0-2.75,2.25-5,5-5h80.09c2.75,0,5,2.25,5,5v44.23
					C118.96,149.55,116.71,151.8,113.96,151.8z"/>
				<path class="st4" d="M114.84,151.73h-82c-2.28,0-4.13-1.85-4.14-4.14V101.6c0-2.28,1.85-4.13,4.14-4.14h82
					c2.28,0,4.13,1.85,4.14,4.14v45.99C118.97,149.87,117.12,151.72,114.84,151.73z M32.84,97.95c-2.01,0-3.65,1.63-3.65,3.65v45.99
					c0,2.01,1.63,3.65,3.65,3.65h82c2.01,0,3.65-1.63,3.65-3.65V101.6c0-2.01-1.63-3.65-3.65-3.65H32.84z"/>
				<path class="st4" d="M94.06,115.79H78.24c-0.6,0-1.09,0.49-1.09,1.09c0,0.6,0.49,1.09,1.09,1.09h15.82
					c0.6,0,1.09-0.49,1.09-1.09C95.15,116.28,94.66,115.79,94.06,115.79L94.06,115.79z"/>
				<path class="st4" d="M109.47,122.73H78.03c-0.49,0-0.89,0.49-0.89,1.09s0.4,1.09,0.89,1.09h31.44c0.49,0,0.89-0.49,0.89-1.09
					S109.96,122.73,109.47,122.73z"/>
				<path class="st4" d="M109.47,129.83H78.03c-0.49,0-0.89,0.49-0.89,1.09c0,0.6,0.4,1.09,0.89,1.09h31.44
					c0.49,0,0.89-0.49,0.89-1.09C110.36,130.32,109.96,129.83,109.47,129.83z"/>
				<path class="st4" d="M66.17,141.63H38.92c-1.41,0-2.55-1.14-2.55-2.55v-30.41c0-1.41,1.14-2.55,2.55-2.55h27.25
					c1.41,0,2.55,1.14,2.55,2.55v30.41C68.73,140.48,67.58,141.63,66.17,141.63z"/>
				<circle class="st4" cx="116.78" cy="98.2" r="8.76"/>
			</g>
			<g>
				<path class="st3" d="M161.96,197.8H81.87c-2.75,0-5-2.25-5-5v-44.23c0-2.75,2.25-5,5-5h80.09c2.75,0,5,2.25,5,5v44.23
					C166.96,195.55,164.71,197.8,161.96,197.8z"/>
				<path class="st5" d="M162.84,197.48h-82c-2.28,0-4.13-1.85-4.14-4.14v-45.99c0-2.28,1.85-4.13,4.14-4.14h82
					c2.28,0,4.13,1.85,4.14,4.14v45.99C166.97,195.63,165.12,197.48,162.84,197.48z M80.84,143.71c-2.01,0-3.65,1.63-3.65,3.65
					v45.99c0,2.01,1.63,3.65,3.65,3.65h82c2.01,0,3.65-1.63,3.65-3.65v-45.99c0-2.01-1.63-3.65-3.65-3.65H80.84z"/>
				<path class="st5" d="M142.06,161.55h-15.82c-0.6,0-1.09,0.49-1.09,1.09s0.49,1.09,1.09,1.09h15.82c0.6,0,1.09-0.49,1.09-1.09
					S142.66,161.55,142.06,161.55L142.06,161.55z"/>
				<path class="st5" d="M157.47,168.48h-31.44c-0.49,0-0.89,0.49-0.89,1.09s0.4,1.09,0.89,1.09h31.44c0.49,0,0.89-0.49,0.89-1.09
					S157.96,168.48,157.47,168.48z"/>
				<path class="st5" d="M157.47,175.58h-31.44c-0.49,0-0.89,0.49-0.89,1.09c0,0.6,0.4,1.09,0.89,1.09h31.44
					c0.49,0,0.89-0.49,0.89-1.09C158.36,176.08,157.96,175.58,157.47,175.58z"/>
				<path class="st6" d="M114.17,187.39H86.92c-1.41,0-2.55-1.14-2.55-2.55v-30.41c0-1.41,1.14-2.55,2.55-2.55h27.25
					c1.41,0,2.55,1.14,2.55,2.55v30.41C116.73,186.24,115.58,187.38,114.17,187.39z"/>
				<circle class="st6" cx="164.78" cy="143.95" r="8.76"/>
				<path class="st3" d="M164.29,147.5c-0.24,0-0.47-0.08-0.66-0.22l-0.01-0.01l-2.49-1.91c-0.49-0.37-0.58-1.07-0.21-1.55
					c0.37-0.49,1.07-0.58,1.55-0.21c0,0,0,0,0,0l1.62,1.24l3.82-4.98c0.37-0.49,1.07-0.58,1.55-0.21l0,0l-0.02,0.03l0.02-0.03
					c0.49,0.37,0.58,1.07,0.21,1.55l-4.49,5.86C164.96,147.34,164.64,147.5,164.29,147.5z"/>
			</g>
		</g>
	</g>
</g>
</svg>
