<?xml version="1.0" encoding="utf-8"?>
<!-- Generator: Adobe Illustrator 24.0.3, SVG Export Plug-In . SVG Version: 6.00 Build 0)  -->
<svg version="1.1" id="圖層_1" xmlns="http://www.w3.org/2000/svg" xmlns:xlink="http://www.w3.org/1999/xlink" x="0px" y="0px"
	 viewBox="0 0 250 250" style="enable-background:new 0 0 250 250;" xml:space="preserve">
<style type="text/css">
	.st0{fill:none;}
	.st1{fill:#434343;}
	.st2{fill:url(#XMLID_2_);}
	.st3{fill:#FFFFFF;}
	.st4{fill:#E6E6E6;}
	.st5{fill:#3F3D56;}
	.st6{fill:#A5D4DC;}
	.st7{fill:#A0616A;}
	.st8{fill:#CCCCCC;}
	.st9{fill:#2F2E41;}
</style>
<pattern  x="-835" y="-415" width="28.8" height="28.8" patternUnits="userSpaceOnUse" id="_x31_0_ppp_20_x25__2" viewBox="1.44 -30.24 28.8 28.8" style="overflow:visible;">
	<g id="XMLID_66_">
		<rect id="XMLID_131_" x="1.44" y="-30.24" class="st0" width="28.8" height="28.8"/>
		<g id="XMLID_75_">
			<path id="XMLID_130_" class="st1" d="M30.24,0c0.8,0,1.44-0.64,1.44-1.44c0-0.79-0.64-1.44-1.44-1.44c-0.8,0-1.44,0.64-1.44,1.44
				C28.8-0.64,29.44,0,30.24,0z"/>
			<path id="XMLID_128_" class="st1" d="M15.84,0c0.8,0,1.44-0.64,1.44-1.44c0-0.79-0.65-1.44-1.44-1.44c-0.8,0-1.44,0.64-1.44,1.44
				C14.4-0.64,15.04,0,15.84,0z"/>
			<path id="XMLID_81_" class="st1" d="M30.24-14.4c0.8,0,1.44-0.65,1.44-1.44c0-0.8-0.64-1.44-1.44-1.44
				c-0.8,0-1.44,0.64-1.44,1.44C28.8-15.04,29.44-14.4,30.24-14.4z"/>
			<path id="XMLID_80_" class="st1" d="M15.84-14.4c0.8,0,1.44-0.65,1.44-1.44c0-0.8-0.65-1.44-1.44-1.44
				c-0.8,0-1.44,0.64-1.44,1.44C14.4-15.04,15.04-14.4,15.84-14.4z"/>
			<path id="XMLID_79_" class="st1" d="M8.64-7.2c0.79,0,1.44-0.64,1.44-1.44c0-0.8-0.65-1.44-1.44-1.44c-0.8,0-1.44,0.64-1.44,1.44
				C7.2-7.84,7.84-7.2,8.64-7.2z"/>
			<path id="XMLID_78_" class="st1" d="M23.04-7.2c0.79,0,1.44-0.64,1.44-1.44c0-0.8-0.65-1.44-1.44-1.44
				c-0.8,0-1.44,0.64-1.44,1.44C21.6-7.84,22.24-7.2,23.04-7.2z"/>
			<path id="XMLID_77_" class="st1" d="M8.64-21.6c0.79,0,1.44-0.64,1.44-1.44c0-0.8-0.65-1.44-1.44-1.44
				c-0.8,0-1.44,0.64-1.44,1.44C7.2-22.24,7.84-21.6,8.64-21.6z"/>
			<path id="XMLID_76_" class="st1" d="M23.04-21.6c0.79,0,1.44-0.64,1.44-1.44c0-0.8-0.65-1.44-1.44-1.44
				c-0.8,0-1.44,0.64-1.44,1.44C21.6-22.24,22.24-21.6,23.04-21.6z"/>
		</g>
		<g id="XMLID_72_">
			<path id="XMLID_74_" class="st1" d="M1.44,0c0.79,0,1.44-0.64,1.44-1.44c0-0.79-0.64-1.44-1.44-1.44C0.64-2.88,0-2.23,0-1.44
				C0-0.64,0.64,0,1.44,0z"/>
			<path id="XMLID_73_" class="st1" d="M1.44-14.4c0.79,0,1.44-0.65,1.44-1.44c0-0.8-0.64-1.44-1.44-1.44
				c-0.8,0-1.44,0.64-1.44,1.44C0-15.04,0.64-14.4,1.44-14.4z"/>
		</g>
		<g id="XMLID_69_">
			<path id="XMLID_71_" class="st1" d="M30.24-28.8c0.8,0,1.44-0.64,1.44-1.44c0-0.8-0.64-1.44-1.44-1.44
				c-0.8,0-1.44,0.64-1.44,1.44C28.8-29.45,29.44-28.8,30.24-28.8z"/>
			<path id="XMLID_70_" class="st1" d="M15.84-28.8c0.8,0,1.44-0.64,1.44-1.44c0-0.8-0.65-1.44-1.44-1.44
				c-0.8,0-1.44,0.64-1.44,1.44C14.4-29.45,15.04-28.8,15.84-28.8z"/>
		</g>
		<g id="XMLID_67_">
			<path id="XMLID_68_" class="st1" d="M1.44-28.8c0.79,0,1.44-0.64,1.44-1.44c0-0.8-0.64-1.44-1.44-1.44
				c-0.8,0-1.44,0.64-1.44,1.44C0-29.45,0.64-28.8,1.44-28.8z"/>
		</g>
	</g>
</pattern>
<g>
	
		<pattern  id="XMLID_2_" xlink:href="#_x31_0_ppp_20_x25__2" patternTransform="matrix(-0.552 0.552 -0.552 -0.552 -13828.3154 -7317.4092)">
	</pattern>
	<circle id="XMLID_4_" class="st2" cx="149.03" cy="140.91" r="73.51"/>
	<g>
		<g>
			<path class="st3" d="M112.72,156.42H32.62c-2.75,0-5-2.25-5-5v-44.23c0-2.75,2.25-5,5-5h80.09c2.75,0,5,2.25,5,5v44.23
				C117.72,154.17,115.47,156.42,112.72,156.42z"/>
			<path class="st3" d="M112.72,223.42H32.62c-2.75,0-5-2.25-5-5v-44.23c0-2.75,2.25-5,5-5h80.09c2.75,0,5,2.25,5,5v44.23
				C117.72,221.17,115.47,223.42,112.72,223.42z"/>
			<path class="st4" d="M113.59,156.35h-82c-2.28,0-4.13-1.85-4.14-4.14v-45.99c0-2.28,1.85-4.13,4.14-4.14h82
				c2.28,0,4.13,1.85,4.14,4.14v45.99C117.73,154.5,115.88,156.35,113.59,156.35z M31.6,102.58c-2.01,0-3.65,1.63-3.65,3.65v45.99
				c0,2.01,1.63,3.65,3.65,3.65h82c2.01,0,3.65-1.63,3.65-3.65v-45.99c0-2.01-1.63-3.65-3.65-3.65H31.6z"/>
			<path class="st4" d="M92.82,120.42H77c-0.6,0-1.09,0.49-1.09,1.09s0.49,1.09,1.09,1.09h15.82c0.6,0,1.09-0.49,1.09-1.09
				S93.42,120.42,92.82,120.42L92.82,120.42z"/>
			<path class="st4" d="M108.23,127.35H76.79c-0.49,0-0.89,0.49-0.89,1.09c0,0.6,0.4,1.09,0.89,1.09h31.44
				c0.49,0,0.89-0.49,0.89-1.09C109.12,127.84,108.72,127.35,108.23,127.35z"/>
			<path class="st4" d="M108.23,134.45H76.79c-0.49,0-0.89,0.49-0.89,1.09s0.4,1.09,0.89,1.09h31.44c0.49,0,0.89-0.49,0.89-1.09
				S108.72,134.45,108.23,134.45z"/>
			<path class="st4" d="M64.93,146.25H37.68c-1.41,0-2.55-1.14-2.55-2.55v-30.41c0-1.41,1.14-2.55,2.55-2.55h27.25
				c1.41,0,2.55,1.14,2.55,2.55v30.41C67.48,145.11,66.34,146.25,64.93,146.25z"/>
			<circle class="st4" cx="115.54" cy="102.82" r="8.76"/>
			<path class="st5" d="M113.59,223.11h-82c-2.28,0-4.13-1.85-4.14-4.14v-45.99c0-2.28,1.85-4.13,4.14-4.14h82
				c2.28,0,4.13,1.85,4.14,4.14v45.99C117.73,221.25,115.88,223.11,113.59,223.11z M31.6,169.34c-2.01,0-3.65,1.63-3.65,3.65v45.99
				c0,2.01,1.63,3.65,3.65,3.65h82c2.01,0,3.65-1.63,3.65-3.65v-45.99c0-2.01-1.63-3.65-3.65-3.65H31.6z"/>
			<path class="st5" d="M92.82,187.17H77c-0.6,0-1.09,0.49-1.09,1.09s0.49,1.09,1.09,1.09h15.82c0.6,0,1.09-0.49,1.09-1.09
				S93.42,187.17,92.82,187.17L92.82,187.17z"/>
			<path class="st5" d="M108.23,194.11H76.79c-0.49,0-0.89,0.49-0.89,1.09c0,0.6,0.4,1.09,0.89,1.09h31.44
				c0.49,0,0.89-0.49,0.89-1.09C109.12,194.6,108.72,194.11,108.23,194.11z"/>
			<path class="st5" d="M108.23,201.21H76.79c-0.49,0-0.89,0.49-0.89,1.09c0,0.6,0.4,1.09,0.89,1.09h31.44
				c0.49,0,0.89-0.49,0.89-1.09C109.12,201.7,108.72,201.21,108.23,201.21z"/>
			<path class="st6" d="M64.93,213.01H37.68c-1.41,0-2.55-1.14-2.55-2.55v-30.41c0-1.41,1.14-2.55,2.55-2.55h27.25
				c1.41,0,2.55,1.14,2.55,2.55v30.41C67.48,211.87,66.34,213.01,64.93,213.01z"/>
			<circle class="st6" cx="115.54" cy="169.58" r="8.76"/>
			<path class="st3" d="M115.05,173.12c-0.24,0-0.47-0.08-0.66-0.22l-0.01-0.01l-2.49-1.91c-0.49-0.37-0.58-1.07-0.21-1.55
				s1.07-0.58,1.55-0.21c0,0,0,0,0,0l1.62,1.24l3.82-4.98c0.37-0.49,1.07-0.58,1.55-0.21c0,0,0,0,0,0l-0.02,0.03l0.02-0.03
				c0.49,0.37,0.58,1.07,0.21,1.55l-4.49,5.86C115.72,172.97,115.39,173.13,115.05,173.12z"/>
			<path class="st3" d="M112.72,84.7H32.62c-2.75,0-5-2.25-5-5V36.34c0-2.75,2.25-5,5-5h80.09c2.75,0,5,2.25,5,5V79.7
				C117.72,82.45,115.47,84.7,112.72,84.7z"/>
			<path class="st4" d="M113.59,85.18h-82c-2.28,0-4.13-1.85-4.14-4.14V35.06c0-2.28,1.85-4.13,4.14-4.14h82
				c2.28,0,4.13,1.85,4.14,4.14v45.99C117.73,83.33,115.88,85.18,113.59,85.18z M31.6,31.41c-2.01,0-3.65,1.63-3.65,3.65v45.99
				c0,2.01,1.63,3.65,3.65,3.65h82c2.01,0,3.65-1.63,3.65-3.65V35.06c0-2.01-1.63-3.65-3.65-3.65H31.6z"/>
			<path class="st4" d="M92.82,49.25H77c-0.6,0-1.09,0.49-1.09,1.09c0,0.6,0.49,1.09,1.09,1.09h15.82c0.6,0,1.09-0.49,1.09-1.09
				C93.91,49.74,93.42,49.25,92.82,49.25L92.82,49.25z"/>
			<path class="st4" d="M108.23,56.18H76.79c-0.49,0-0.89,0.49-0.89,1.09c0,0.6,0.4,1.09,0.89,1.09h31.44
				c0.49,0,0.89-0.49,0.89-1.09C109.12,56.68,108.72,56.18,108.23,56.18z"/>
			<path class="st4" d="M108.23,63.29H76.79c-0.49,0-0.89,0.49-0.89,1.09c0,0.6,0.4,1.09,0.89,1.09h31.44
				c0.49,0,0.89-0.49,0.89-1.09C109.12,63.78,108.72,63.29,108.23,63.29z"/>
			<path class="st4" d="M64.93,75.09H37.68c-1.41,0-2.55-1.14-2.55-2.55V42.12c0-1.41,1.14-2.55,2.55-2.55h27.25
				c1.41,0,2.55,1.14,2.55,2.55v30.41C67.48,73.94,66.34,75.09,64.93,75.09z"/>
			<circle class="st4" cx="115.54" cy="31.66" r="8.76"/>
		</g>
		<g>
			<g id="f59d61bb-6173-4011-886f-cab752b15cf5_1_">
				<path id="ea601028-2261-4201-a5c6-6d1fee0209f8_1_" class="st7" d="M185.73,166.69c-1.46-0.84-1.95-2.7-1.11-4.16
					c0.09-0.15,0.19-0.3,0.31-0.44l-3.17-23.19l6.61,0.32l1.04,22.62c1.22,1.17,1.25,3.11,0.08,4.33
					C188.5,167.19,186.95,167.4,185.73,166.69L185.73,166.69z"/>
				<path id="bab8e504-63c3-4a02-b094-c521f4d0da0a_1_" class="st8" d="M189.26,139.53c-0.14,0.16-0.31,0.28-0.5,0.36l-5.94,2.27
					c-0.62,0.24-1.32-0.05-1.59-0.66l-5.26-11.82c-0.51-1.1-0.59-2.34-0.24-3.5c0.53-1.68,1.93-2.94,3.66-3.28
					c0.65-0.13,1.33-0.12,1.97,0.03c1.58,0.35,2.87,1.48,3.44,2.99l4.68,12.37C189.64,138.71,189.56,139.18,189.26,139.53z"/>
				<path id="e3cfda6a-f51e-4c96-8af0-12d99ec512c5_1_" class="st7" d="M158.31,223.29h-4.11l-1.49-15.92l5.6,0.08V223.29z"/>
				<path id="a90fb924-173c-4f4a-b9ae-ede5dff37993_1_" class="st9" d="M151.27,222.11h7.92v4.99h-12.91
					C146.28,224.35,148.51,222.11,151.27,222.11L151.27,222.11L151.27,222.11z"/>
				<path id="f7d48866-455f-47a0-876b-9c2c9b7d2f2d_1_" class="st7" d="M177.42,223.29h-4.11l-1.95-15.85h6.06L177.42,223.29z"/>
				<path id="ae80d259-143f-4a2f-8815-2d5111ab51c8_1_" class="st9" d="M170.38,222.11h7.92v4.99h-12.91
					C165.39,224.35,167.62,222.11,170.38,222.11L170.38,222.11L170.38,222.11z"/>
				<path id="b7aaac11-5418-4b5b-a747-2fb27f89cd88_1_" class="st9" d="M177.94,217.65l-6.45-0.48c-0.76-0.06-1.36-0.67-1.4-1.43
					L168.65,186c-0.03-0.65-0.58-1.15-1.23-1.12c-0.53,0.03-0.98,0.41-1.09,0.94l-6,29.3c-0.15,0.75-0.84,1.26-1.6,1.2l-5.83-0.47
					c-0.83-0.07-1.45-0.79-1.38-1.62v0c0-0.01,0-0.02,0-0.03l5.41-54.12c0.08-0.83,0.82-1.43,1.65-1.35
					c0.06,0.01,0.11,0.01,0.17,0.03l20.58,4.47c0.7,0.15,1.2,0.78,1.19,1.5l-0.96,51.45c-0.02,0.82-0.68,1.48-1.5,1.48
					C178.01,217.65,177.98,217.65,177.94,217.65z"/>
				<circle id="eccc2a78-7d3a-4be1-aa48-fb8bb5d1e30a_1_" class="st7" cx="172.29" cy="106.59" r="8.23"/>
				<path id="a0a57a86-6e42-4b50-b3a1-f8a38df428dd_1_" class="st8" d="M159.52,164.25c-1.6-1.44-2.5-3.5-2.44-5.65
					c0-11.83,10.24-38.27,10.56-39.09c0.03-0.2,0.3-0.28,1.72-1.24c1.42-0.96,3.46-1.11,6.08-0.44c0.54,0.14,0.96,0.57,1.09,1.11
					l0.49,0.7c0.09,0.36,0.34,0.66,0.68,0.81c2.11,0.89,8.81,4.99,6.53,20.41c-2.12,14.33-2.98,22.75-3.26,25.71
					c-0.07,0.72-0.64,1.3-1.36,1.36c-1.03,0.09-2.81,0.22-4.92,0.22C169.78,168.14,163.05,167.48,159.52,164.25z"/>
				<path id="e2026d9f-0f48-4627-b939-bcbd235b248e_1_" class="st7" d="M149.68,159.86c-0.74-1.51-0.12-3.33,1.39-4.07
					c0.16-0.08,0.33-0.14,0.5-0.19l10.29-21.02l5.31,3.95l-11.74,19.36c0.36,1.65-0.69,3.28-2.34,3.64
					C151.7,161.83,150.3,161.14,149.68,159.86L149.68,159.86z"/>
				<path id="aa5178ad-b05d-4950-85b1-a624717fe499_1_" class="st8" d="M167.75,139.29c-0.2,0.06-0.41,0.06-0.62,0.02l-6.2-1.43
					c-0.65-0.15-1.06-0.78-0.95-1.43l2.22-12.75c0.19-1.19,0.81-2.27,1.75-3.04c1.37-1.1,3.24-1.36,4.86-0.68
					c0.62,0.25,1.17,0.64,1.62,1.12c1.11,1.17,1.56,2.83,1.19,4.4l-3.01,12.87C168.52,138.81,168.19,139.17,167.75,139.29
					L167.75,139.29z"/>
				<path id="f1455aca-238f-491a-b535-1c1a045e39f4_1_" class="st9" d="M170.36,114.02c-0.81-0.83-1.17-2-0.95-3.15
					c0.29-1.5,0.46-2.48,0.49-2.84l0,0c0.11-1.22-1.13-2.21-2.35-2.37c-0.05-0.01-0.09-0.01-0.12-0.01
					c0.03,0.03,0.06,0.06,0.09,0.09c0.23,0.22,0.52,0.49,0.45,0.77c-0.04,0.17-0.2,0.29-0.47,0.37c-1.91,0.54-3.39,0.04-4.64-1.55
					c-0.35-0.45-0.59-0.98-0.71-1.54c-0.45-2.2,0.75-4.07,1.83-5.25c0.89-0.98,2.33-2.16,4.15-2.26c1.42-0.08,3.1,0.74,3.6,2.2
					c0.48-0.71,1.27-1.16,2.13-1.2c0.97-0.02,1.92,0.24,2.73,0.76c3.99,2.29,5.71,7.73,3.75,11.89c-1.23,2.62-3.91,4.57-6.98,5.09
					c-0.19,0.03-0.39,0.05-0.58,0.05C171.88,115.06,171,114.69,170.36,114.02L170.36,114.02z"/>
			</g>
		</g>
	</g>
</g>
</svg>
