<?xml version="1.0" encoding="utf-8"?>
<!-- Generator: Adobe Illustrator 24.0.3, SVG Export Plug-In . SVG Version: 6.00 Build 0)  -->
<svg version="1.1" id="圖層_1" xmlns="http://www.w3.org/2000/svg" xmlns:xlink="http://www.w3.org/1999/xlink" x="0px" y="0px"
	 viewBox="0 0 250 250" style="enable-background:new 0 0 250 250;" xml:space="preserve">
<style type="text/css">
	.st0{fill:none;}
	.st1{fill:#434343;}
	.st2{fill:url(#XMLID_2_);}
	.st3{fill:url(#SVGID_1_);}
	.st4{fill:#FFFFFF;}
	.st5{fill:#C0BCCF;}
	.st6{fill:#A5D4DC;}
	.st7{opacity:0.5;fill:#C0BCCF;enable-background:new    ;}
	.st8{opacity:0.5;fill:#A5D4DC;enable-background:new    ;}
	.st9{opacity:0.5;}
	.st10{fill:url(#SVGID_2_);}
	.st11{fill:#493545;}
	.st12{fill:#C77485;}
	.st13{opacity:0.1;enable-background:new    ;}
	.st14{fill:#444176;}
	.st15{fill:url(#SVGID_3_);}
	.st16{fill:#F1D2D7;}
	.st17{fill:url(#SVGID_4_);}
	.st18{fill:#53526B;}
	.st19{opacity:0.05;enable-background:new    ;}
	.st20{fill:#5F5D7E;}
	.st21{opacity:0.02;enable-background:new    ;}
	.st22{fill:#E82127;}
	.st23{fill:#D6DBE6;}
	.st24{fill:#FDC2CC;}
	.st25{fill:#865A61;}
	.st26{fill:url(#SVGID_5_);}
	.st27{fill:url(#SVGID_6_);}
	.st28{fill:#555388;}
</style>
<pattern  x="-835" y="-415" width="28.8" height="28.8" patternUnits="userSpaceOnUse" id="_x31_0_ppp_20_x25__2" viewBox="1.44 -30.24 28.8 28.8" style="overflow:visible;">
	<g id="XMLID_66_">
		<rect id="XMLID_131_" x="1.44" y="-30.24" class="st0" width="28.8" height="28.8"/>
		<g id="XMLID_75_">
			<path id="XMLID_130_" class="st1" d="M30.24,0c0.8,0,1.44-0.64,1.44-1.44c0-0.79-0.64-1.44-1.44-1.44c-0.8,0-1.44,0.64-1.44,1.44
				C28.8-0.64,29.44,0,30.24,0z"/>
			<path id="XMLID_128_" class="st1" d="M15.84,0c0.8,0,1.44-0.64,1.44-1.44c0-0.79-0.65-1.44-1.44-1.44c-0.8,0-1.44,0.64-1.44,1.44
				C14.4-0.64,15.04,0,15.84,0z"/>
			<path id="XMLID_81_" class="st1" d="M30.24-14.4c0.8,0,1.44-0.65,1.44-1.44c0-0.8-0.64-1.44-1.44-1.44
				c-0.8,0-1.44,0.64-1.44,1.44C28.8-15.04,29.44-14.4,30.24-14.4z"/>
			<path id="XMLID_80_" class="st1" d="M15.84-14.4c0.8,0,1.44-0.65,1.44-1.44c0-0.8-0.65-1.44-1.44-1.44
				c-0.8,0-1.44,0.64-1.44,1.44C14.4-15.04,15.04-14.4,15.84-14.4z"/>
			<path id="XMLID_79_" class="st1" d="M8.64-7.2c0.79,0,1.44-0.64,1.44-1.44c0-0.8-0.65-1.44-1.44-1.44c-0.8,0-1.44,0.64-1.44,1.44
				C7.2-7.84,7.84-7.2,8.64-7.2z"/>
			<path id="XMLID_78_" class="st1" d="M23.04-7.2c0.79,0,1.44-0.64,1.44-1.44c0-0.8-0.65-1.44-1.44-1.44
				c-0.8,0-1.44,0.64-1.44,1.44C21.6-7.84,22.24-7.2,23.04-7.2z"/>
			<path id="XMLID_77_" class="st1" d="M8.64-21.6c0.79,0,1.44-0.64,1.44-1.44c0-0.8-0.65-1.44-1.44-1.44
				c-0.8,0-1.44,0.64-1.44,1.44C7.2-22.24,7.84-21.6,8.64-21.6z"/>
			<path id="XMLID_76_" class="st1" d="M23.04-21.6c0.79,0,1.44-0.64,1.44-1.44c0-0.8-0.65-1.44-1.44-1.44
				c-0.8,0-1.44,0.64-1.44,1.44C21.6-22.24,22.24-21.6,23.04-21.6z"/>
		</g>
		<g id="XMLID_72_">
			<path id="XMLID_74_" class="st1" d="M1.44,0c0.79,0,1.44-0.64,1.44-1.44c0-0.79-0.64-1.44-1.44-1.44C0.64-2.88,0-2.23,0-1.44
				C0-0.64,0.64,0,1.44,0z"/>
			<path id="XMLID_73_" class="st1" d="M1.44-14.4c0.79,0,1.44-0.65,1.44-1.44c0-0.8-0.64-1.44-1.44-1.44
				c-0.8,0-1.44,0.64-1.44,1.44C0-15.04,0.64-14.4,1.44-14.4z"/>
		</g>
		<g id="XMLID_69_">
			<path id="XMLID_71_" class="st1" d="M30.24-28.8c0.8,0,1.44-0.64,1.44-1.44c0-0.8-0.64-1.44-1.44-1.44
				c-0.8,0-1.44,0.64-1.44,1.44C28.8-29.45,29.44-28.8,30.24-28.8z"/>
			<path id="XMLID_70_" class="st1" d="M15.84-28.8c0.8,0,1.44-0.64,1.44-1.44c0-0.8-0.65-1.44-1.44-1.44
				c-0.8,0-1.44,0.64-1.44,1.44C14.4-29.45,15.04-28.8,15.84-28.8z"/>
		</g>
		<g id="XMLID_67_">
			<path id="XMLID_68_" class="st1" d="M1.44-28.8c0.79,0,1.44-0.64,1.44-1.44c0-0.8-0.64-1.44-1.44-1.44
				c-0.8,0-1.44,0.64-1.44,1.44C0-29.45,0.64-28.8,1.44-28.8z"/>
		</g>
	</g>
</pattern>
<pattern  id="XMLID_2_" xlink:href="#_x31_0_ppp_20_x25__2" patternTransform="matrix(-0.552 0.552 -0.552 -0.552 -13851.9922 -7306.0527)">
</pattern>
<circle id="XMLID_3_" class="st2" cx="155.59" cy="95.38" r="73.51"/>
<g>
	
		<linearGradient id="SVGID_1_" gradientUnits="userSpaceOnUse" x1="105.8008" y1="38.9001" x2="105.8008" y2="228.6173" gradientTransform="matrix(1 4.361738e-03 4.361738e-03 -1 5.1952 253.9591)">
		<stop  offset="0" style="stop-color:#808080;stop-opacity:0.25"/>
		<stop  offset="0.54" style="stop-color:#808080;stop-opacity:0.12"/>
		<stop  offset="1" style="stop-color:#808080;stop-opacity:0.1"/>
	</linearGradient>
	<polygon class="st3" points="33.37,25.46 190.61,26.15 189.78,215.86 32.55,215.18 	"/>
	
		<rect x="19.14" y="44.06" transform="matrix(4.361738e-03 -1 1 4.361738e-03 -9.5728 231.7166)" class="st4" width="184.87" height="153.22"/>
	
		<rect x="124.19" y="19.75" transform="matrix(4.361738e-03 -1 1 4.361738e-03 74.5041 176.1238)" class="st5" width="3.01" height="61.79"/>
	
		<rect x="124.15" y="29.3" transform="matrix(4.361738e-03 -1 1 4.361738e-03 64.9179 185.5853)" class="st5" width="3.01" height="61.79"/>
	
		<rect x="124.11" y="53.66" transform="matrix(4.361738e-03 -1 1 4.361738e-03 55.3318 195.0468)" class="st6" width="3.01" height="32.15"/>
	
		<rect x="123.93" y="80.29" transform="matrix(4.361738e-03 -1 1 4.361738e-03 13.7077 236.1298)" class="st7" width="3.01" height="61.79"/>
	
		<rect x="123.89" y="89.83" transform="matrix(4.361738e-03 -1 1 4.361738e-03 4.1215 245.5913)" class="st7" width="3.01" height="61.79"/>
	
		<rect x="123.84" y="114.2" transform="matrix(4.361738e-03 -1 1 4.361738e-03 -5.4647 255.0529)" class="st8" width="3.01" height="32.15"/>
	
		<rect x="123.66" y="140.82" transform="matrix(4.361738e-03 -1 1 4.361738e-03 -47.0888 296.1359)" class="st7" width="3.01" height="61.79"/>
	
		<rect x="123.62" y="150.36" transform="matrix(4.361738e-03 -1 1 4.361738e-03 -56.6749 305.5974)" class="st7" width="3.01" height="61.79"/>
	
		<rect x="123.58" y="174.73" transform="matrix(4.361738e-03 -1 1 4.361738e-03 -66.2611 315.0589)" class="st8" width="3.01" height="32.15"/>
	<g class="st9">
		<path class="st5" d="M77.42,120.51c-0.01,4.08-1.49,8.02-4.16,11.1c-0.13,0.15-0.27,0.3-0.41,0.45c-0.07,0.08-0.14,0.15-0.21,0.23
			c-0.57,0.59-1.18,1.14-1.83,1.65l-0.05,0.03c-1,0.78-2.09,1.44-3.25,1.98l0,0c-0.59,0.28-1.2,0.52-1.82,0.72l-0.23,0.07
			c-0.14,0.05-0.29,0.09-0.43,0.13l-0.06,0.02c-3.09,0.87-6.35,0.85-9.43-0.04l-0.03,0c-0.25-0.07-0.5-0.15-0.73-0.23l-0.21-0.08
			c-0.81-0.29-1.6-0.64-2.36-1.06l-0.05-0.03c-1.2-0.66-2.32-1.46-3.34-2.38l-0.08-0.08c-0.52-0.47-1-0.98-1.45-1.51
			c-0.06-0.07-0.12-0.14-0.17-0.21c-0.11-0.13-0.21-0.27-0.32-0.4c-5.75-7.47-4.36-18.2,3.11-23.95c7.47-5.75,18.2-4.36,23.95,3.11
			C76.19,113.03,77.43,116.72,77.42,120.51z"/>
		
			<linearGradient id="SVGID_2_" gradientUnits="userSpaceOnUse" x1="54.3077" y1="104.9232" x2="54.3077" y2="135.3267" gradientTransform="matrix(1 4.361738e-03 -4.361738e-03 1 6.2943 1.9615)">
			<stop  offset="0" style="stop-color:#808080;stop-opacity:0.25"/>
			<stop  offset="0.54" style="stop-color:#808080;stop-opacity:0.12"/>
			<stop  offset="1" style="stop-color:#808080;stop-opacity:0.1"/>
		</linearGradient>
		<path class="st10" d="M72.72,126.26l-1.29-0.59c0.02-0.2,0.03-0.39,0.03-0.59c0.01-0.17,0.01-0.33,0-0.5
			c-0.12-1.32-0.96-2.48-1.55-3.69c-0.54-1.11-0.88-2.3-1.01-3.52c-0.15-1.51,0.01-3.07-0.53-4.49c-0.44-1.14-1.33-2.1-2.28-2.95
			c-1.06-1.01-2.31-1.8-3.67-2.35c-1.39-0.51-2.99-0.64-4.38-0.14c-1.26,0.46-2.23,1.37-3.17,2.27c-0.68,0.59-1.28,1.27-1.79,2.02
			c-0.57,0.93-0.82,2.01-1.02,3.07c-0.31,1.7-0.52,3.41-0.64,5.13c-0.1,1.43-0.26,3.06-1.49,3.93c-0.6,0.43-1.44,0.66-1.72,1.31
			c-0.08,0.19-0.11,0.41-0.09,0.61c-0.01,0.17,0,0.35,0.04,0.52c0.02,0.1,0.04,0.2,0.06,0.3c-0.36,0.87-0.65,1.77-0.9,2.68
			c-0.19,0.68-0.36,1.34-0.51,1.99l0.41,0l0.22,0l2.34,0.07l0.03,0l2.51,0.07l0.01,0l2.34,0.07l0.06,0l0.68,0.05l0.22,0l9.36,0.26
			l0.05,0l0.62,0.02l0.22,0l1.87,0.05l0,0l2.76,0.07l0.02,0l2.08,0.06l0.22,0l0.43,0l-0.1-2.18
			C73.62,126.47,72.72,126.26,72.72,126.26z M62.2,125.94c-0.01,1.85-2,4.1-2,4.1l-1.98-2.72l0.07-0.11l1.91,2.62
			c0,0,1.99-2.25,2-4.1c0.05-0.09,0.1-0.18,0.16-0.27l0.04,0.14C62.33,125.71,62.26,125.83,62.2,125.94z M65.22,133.21
			c0-0.09,0-0.19-0.02-0.28c-0.02-0.09-0.01-0.18-0.03-0.27c-0.01-0.09-0.02-0.18-0.03-0.27s-0.03-0.18-0.05-0.27
			c-0.02-0.09-0.03-0.18-0.05-0.27c0-0.03-0.01-0.06-0.02-0.09c-0.03-0.12-0.06-0.24-0.09-0.35c-0.03-0.12-0.05-0.19-0.08-0.28
			c0-0.04-0.02-0.09-0.04-0.13c-0.01-0.04-0.04-0.14-0.06-0.2l-0.04-0.13c-0.02-0.06-0.04-0.12-0.06-0.18
			c-0.04-0.11-0.08-0.21-0.12-0.31c-0.04-0.11-0.08-0.21-0.12-0.31c-0.08-0.21-0.18-0.42-0.27-0.63c-0.36-0.82-0.77-1.62-1.14-2.41
			c-0.2-0.42-0.38-0.84-0.53-1.28l-0.05,0.06c-0.08,0.11-0.15,0.22-0.2,0.34c-0.01,1.85-2,4.1-2,4.1l-1.98-2.72l-1.75,2.5
			c-0.25,0.12-0.5,0.55-0.7,1.16c-0.06,0.16-0.11,0.34-0.16,0.53c-0.04,0.13-0.07,0.25-0.1,0.39c-0.02,0.07-0.03,0.14-0.05,0.21
			l-0.05,0.21l0,0.03c-0.03,0.15-0.06,0.3-0.09,0.45c-0.03,0.15-0.06,0.33-0.09,0.5c-0.02,0.11-0.04,0.22-0.05,0.32
			c-0.04,0.21-0.07,0.42-0.1,0.63c-0.02,0.12-0.04,0.25-0.05,0.36l-0.06,0.47c0.13,0.38,0.27,0.75,0.41,1.14
			c0.09,0.2,0.15,0.42,0.16,0.65c3.09,0.84,6.34,0.85,9.43,0.04c0-0.01,0-0.02,0-0.02c-0.05-0.21-0.06-0.43-0.06-0.64l0,0
			c0.05-0.6,0.14-1.2,0.26-1.8c0.04-0.29,0.06-0.59,0.05-0.88l0-0.11C65.22,133.38,65.22,133.3,65.22,133.21L65.22,133.21z
			 M65.22,133.21c0-0.09,0-0.19-0.02-0.28c-0.02-0.09-0.01-0.18-0.03-0.27c-0.01-0.09-0.02-0.18-0.03-0.27s-0.03-0.18-0.05-0.27
			c-0.02-0.09-0.03-0.18-0.05-0.27c0-0.03-0.01-0.06-0.02-0.09c-0.03-0.12-0.06-0.24-0.09-0.35c-0.03-0.12-0.05-0.19-0.08-0.28
			c0-0.04-0.02-0.09-0.04-0.13c-0.01-0.04-0.04-0.14-0.06-0.2l-0.04-0.13c-0.02-0.06-0.04-0.12-0.06-0.18
			c-0.04-0.11-0.08-0.21-0.12-0.31c-0.04-0.11-0.08-0.21-0.12-0.31c-0.08-0.21-0.18-0.42-0.27-0.63c-0.36-0.82-0.77-1.62-1.14-2.41
			c-0.2-0.42-0.38-0.84-0.53-1.28l-0.05,0.06c-0.08,0.11-0.15,0.22-0.2,0.34c-0.01,1.85-2,4.1-2,4.1l-1.98-2.72l-1.75,2.5
			c-0.25,0.12-0.5,0.55-0.7,1.16c-0.06,0.16-0.11,0.34-0.16,0.53c-0.04,0.13-0.07,0.25-0.1,0.39c-0.02,0.07-0.03,0.14-0.05,0.21
			l-0.05,0.21l0,0.03c-0.03,0.15-0.06,0.3-0.09,0.45c-0.03,0.15-0.06,0.33-0.09,0.5c-0.02,0.11-0.04,0.22-0.05,0.32
			c-0.04,0.21-0.07,0.42-0.1,0.63c-0.02,0.12-0.04,0.25-0.05,0.36l-0.06,0.47c0.13,0.38,0.27,0.75,0.41,1.14
			c0.09,0.2,0.15,0.42,0.16,0.65c3.09,0.84,6.34,0.85,9.43,0.04c0-0.01,0-0.02,0-0.02c-0.05-0.21-0.06-0.43-0.06-0.64l0,0
			c0.05-0.6,0.14-1.2,0.26-1.8c0.04-0.29,0.06-0.59,0.05-0.88l0-0.11C65.22,133.38,65.22,133.3,65.22,133.21L65.22,133.21z
			 M65.22,133.21c0-0.09,0-0.19-0.02-0.28c-0.02-0.09-0.01-0.18-0.03-0.27c-0.01-0.09-0.02-0.18-0.03-0.27s-0.03-0.18-0.05-0.27
			c-0.02-0.09-0.03-0.18-0.05-0.27c0-0.03-0.01-0.06-0.02-0.09c-0.03-0.12-0.06-0.24-0.09-0.35c-0.03-0.12-0.05-0.19-0.08-0.28
			c0-0.04-0.02-0.09-0.04-0.13c-0.01-0.04-0.04-0.14-0.06-0.2l-0.04-0.13c-0.02-0.06-0.04-0.12-0.06-0.18
			c-0.04-0.11-0.08-0.21-0.12-0.31c-0.04-0.11-0.08-0.21-0.12-0.31c-0.08-0.21-0.18-0.42-0.27-0.63c-0.36-0.82-0.77-1.62-1.14-2.41
			c-0.2-0.42-0.38-0.84-0.53-1.28l-0.05,0.06c-0.08,0.11-0.15,0.22-0.2,0.34c-0.01,1.85-2,4.1-2,4.1l-1.98-2.72l-1.75,2.5
			c-0.25,0.12-0.5,0.55-0.7,1.16c-0.06,0.16-0.11,0.34-0.16,0.53c-0.04,0.13-0.07,0.25-0.1,0.39c-0.02,0.07-0.03,0.14-0.05,0.21
			l-0.05,0.21l0,0.03c-0.03,0.15-0.06,0.3-0.09,0.45c-0.03,0.15-0.06,0.33-0.09,0.5c-0.02,0.11-0.04,0.22-0.05,0.32
			c-0.04,0.21-0.07,0.42-0.1,0.63c-0.02,0.12-0.04,0.25-0.05,0.36l-0.06,0.47c0.13,0.38,0.27,0.75,0.41,1.14
			c0.09,0.2,0.15,0.42,0.16,0.65c3.09,0.84,6.34,0.85,9.43,0.04c0-0.01,0-0.02,0-0.02c-0.05-0.21-0.06-0.43-0.06-0.64l0,0
			c0.05-0.6,0.14-1.2,0.26-1.8c0.04-0.29,0.06-0.59,0.05-0.88l0-0.11C65.22,133.38,65.22,133.3,65.22,133.21L65.22,133.21z
			 M65.22,133.21c0-0.09,0-0.19-0.02-0.28c-0.02-0.09-0.01-0.18-0.03-0.27c-0.01-0.09-0.02-0.18-0.03-0.27s-0.03-0.18-0.05-0.27
			c-0.02-0.09-0.03-0.18-0.05-0.27c0-0.03-0.01-0.06-0.02-0.09c-0.03-0.12-0.06-0.24-0.09-0.35c-0.03-0.12-0.05-0.19-0.08-0.28
			c0-0.04-0.02-0.09-0.04-0.13c-0.01-0.04-0.04-0.14-0.06-0.2l-0.04-0.13c-0.02-0.06-0.04-0.12-0.06-0.18
			c-0.04-0.11-0.08-0.21-0.12-0.31c-0.04-0.11-0.08-0.21-0.12-0.31c-0.08-0.21-0.18-0.42-0.27-0.63c-0.36-0.82-0.77-1.62-1.14-2.41
			c-0.2-0.42-0.38-0.84-0.53-1.28l-0.05,0.06c-0.08,0.11-0.15,0.22-0.2,0.34c-0.01,1.85-2,4.1-2,4.1l-1.98-2.72l-1.75,2.5
			c-0.25,0.12-0.5,0.55-0.7,1.16c-0.06,0.16-0.11,0.34-0.16,0.53c-0.04,0.13-0.07,0.25-0.1,0.39c-0.02,0.07-0.03,0.14-0.05,0.21
			l-0.05,0.21l0,0.03c-0.03,0.15-0.06,0.3-0.09,0.45c-0.03,0.15-0.06,0.33-0.09,0.5c-0.02,0.11-0.04,0.22-0.05,0.32
			c-0.04,0.21-0.07,0.42-0.1,0.63c-0.02,0.12-0.04,0.25-0.05,0.36l-0.06,0.47c0.13,0.38,0.27,0.75,0.41,1.14
			c0.09,0.2,0.15,0.42,0.16,0.65c3.09,0.84,6.34,0.85,9.43,0.04c0-0.01,0-0.02,0-0.02c-0.05-0.21-0.06-0.43-0.06-0.64l0,0
			c0.05-0.6,0.14-1.2,0.26-1.8c0.04-0.29,0.06-0.59,0.05-0.88l0-0.11C65.22,133.38,65.22,133.3,65.22,133.21L65.22,133.21z"/>
		
			<rect x="55.69" y="113.78" transform="matrix(4.361738e-03 -1 1 4.361738e-03 -60.2303 178.6259)" class="st11" width="7.79" height="11.55"/>
		<path class="st12" d="M67.26,124.29l-4.86,6.79l-5.05-0.46c0,0-6.6,0.41-2.18-4.62c2.12-2.42,2.82-4.44,2.98-5.88
			c0.17-1.56-0.3-2.45-0.3-2.45l5.5-0.63c-0.25,0.74-0.29,1.53-0.1,2.29C63.91,122.17,67.26,124.29,67.26,124.29z"/>
		<path class="st13" d="M63.24,119.31c-1.46,1.1-3.37,1.39-5.09,0.8c0.17-1.56-0.3-2.45-0.3-2.45l5.5-0.63
			C63.09,117.75,63.05,118.55,63.24,119.31z"/>
		<circle class="st12" cx="59.94" cy="114.69" r="5.49"/>
		<path class="st13" d="M67.06,124.57l-0.13-0.5l-0.11-0.44l-0.16-0.65l-0.03-0.12l-0.02-0.1c0,0,0.13-0.39-0.73-0.27l-0.16,0.03
			c-0.14,0.03-0.29,0.06-0.48,0.11l-0.16,0.05l-0.22,0.07l0,0c-0.68,0.22-1.31,0.59-1.83,1.09c-0.23,0.22-0.44,0.47-0.61,0.74
			c-0.02,0.03-0.03,0.05-0.05,0.07c-0.06,0.09-0.11,0.19-0.16,0.29c-0.01,1.98-2,4.39-2,4.39l-1.92-2.8l-0.04-0.06l-0.46-0.67
			l-0.16-0.22l-0.05-0.08l-1-1.35l-0.25-0.34l-0.08-0.11l-0.12-0.16l-0.29-0.39l-1.13,0.66l-1.51,0.87l-0.9,5.71l0,0.16l0.03,0.47
			l0.17,3.11l0,0.04l-0.33,1.28l0.05,0.03c0.76,0.41,1.54,0.77,2.36,1.06l0.21,0.08c0.25,0.08,0.49,0.16,0.73,0.23
			c0.01,0.04,0.02,0.08,0.02,0.11c0-0.04,0-0.07,0-0.11c3.08,0.89,6.35,0.91,9.43,0.04l0.06-0.02c0.14-0.04,0.29-0.08,0.43-0.13
			l0.23-0.07c0.62-0.2,1.23-0.45,1.82-0.72l0.23-4.5l0.16-3.24l0-0.19L67.06,124.57z"/>
		<path class="st4" d="M65.22,132.91c0-0.1,0-0.2-0.02-0.3c-0.02-0.1-0.01-0.19-0.03-0.28c-0.01-0.1-0.02-0.19-0.03-0.29
			c-0.01-0.1-0.03-0.19-0.05-0.29c-0.02-0.1-0.03-0.19-0.05-0.29c0-0.03-0.01-0.06-0.02-0.1c-0.03-0.13-0.06-0.25-0.09-0.38
			c-0.03-0.13-0.05-0.2-0.08-0.3c0-0.05-0.02-0.09-0.04-0.13s-0.04-0.15-0.06-0.22l-0.04-0.14c-0.02-0.06-0.04-0.13-0.06-0.19
			c-0.04-0.11-0.08-0.22-0.12-0.34c-0.04-0.11-0.08-0.22-0.12-0.33c-0.08-0.23-0.18-0.45-0.27-0.67c-0.36-0.87-0.77-1.73-1.14-2.58
			c-0.2-0.45-0.38-0.9-0.53-1.37l-0.05,0.07c-0.08,0.12-0.15,0.24-0.21,0.36c-0.01,1.98-2,4.39-2,4.39l-1.98-2.91l-1.75,2.67
			c-0.25,0.13-0.5,0.59-0.7,1.24c-0.06,0.18-0.11,0.37-0.16,0.57c-0.04,0.14-0.07,0.28-0.1,0.42c-0.02,0.07-0.03,0.15-0.05,0.22
			l-0.05,0.23l0,0.04c-0.03,0.16-0.06,0.32-0.09,0.48s-0.06,0.35-0.09,0.53c-0.02,0.12-0.04,0.23-0.05,0.35
			c-0.04,0.22-0.07,0.45-0.1,0.67c-0.02,0.13-0.04,0.25-0.05,0.39l-0.06,0.5c0.13,0.41,0.27,0.82,0.41,1.22
			c0.09,0.22,0.15,0.45,0.16,0.69c3.08,0.89,6.35,0.91,9.43,0.04c0-0.01,0-0.02,0-0.03c-0.05-0.23-0.06-0.46-0.06-0.69l0,0
			c0.05-0.64,0.14-1.29,0.26-1.92c0.04-0.31,0.06-0.63,0.05-0.94l0-0.11C65.22,133.09,65.22,133,65.22,132.91z M65.22,132.91
			c0-0.1,0-0.2-0.02-0.3c-0.02-0.1-0.01-0.19-0.03-0.28c-0.01-0.1-0.02-0.19-0.03-0.29c-0.01-0.1-0.03-0.19-0.05-0.29
			c-0.02-0.1-0.03-0.19-0.05-0.29c0-0.03-0.01-0.06-0.02-0.1c-0.03-0.13-0.06-0.25-0.09-0.38c-0.03-0.13-0.05-0.2-0.08-0.3
			c0-0.05-0.02-0.09-0.04-0.13s-0.04-0.15-0.06-0.22l-0.04-0.14c-0.02-0.06-0.04-0.13-0.06-0.19c-0.04-0.11-0.08-0.22-0.12-0.34
			c-0.04-0.11-0.08-0.22-0.12-0.33c-0.08-0.23-0.18-0.45-0.27-0.67c-0.36-0.87-0.77-1.73-1.14-2.58c-0.2-0.45-0.38-0.9-0.53-1.37
			l-0.05,0.07c-0.08,0.12-0.15,0.24-0.21,0.36c-0.01,1.98-2,4.39-2,4.39l-1.98-2.91l-1.75,2.67c-0.25,0.13-0.5,0.59-0.7,1.24
			c-0.06,0.18-0.11,0.37-0.16,0.57c-0.04,0.14-0.07,0.28-0.1,0.42c-0.02,0.07-0.03,0.15-0.05,0.22l-0.05,0.23l0,0.04
			c-0.03,0.16-0.06,0.32-0.09,0.48s-0.06,0.35-0.09,0.53c-0.02,0.12-0.04,0.23-0.05,0.35c-0.04,0.22-0.07,0.45-0.1,0.67
			c-0.02,0.13-0.04,0.25-0.05,0.39l-0.06,0.5c0.13,0.41,0.27,0.82,0.41,1.22c0.09,0.22,0.15,0.45,0.16,0.69
			c3.08,0.89,6.35,0.91,9.43,0.04c0-0.01,0-0.02,0-0.03c-0.05-0.23-0.06-0.46-0.06-0.69l0,0c0.05-0.64,0.14-1.29,0.26-1.92
			c0.04-0.31,0.06-0.63,0.05-0.94l0-0.11C65.22,133.09,65.22,133,65.22,132.91z M65.22,132.91c0-0.1,0-0.2-0.02-0.3
			c-0.02-0.1-0.01-0.19-0.03-0.28c-0.01-0.1-0.02-0.19-0.03-0.29c-0.01-0.1-0.03-0.19-0.05-0.29c-0.02-0.1-0.03-0.19-0.05-0.29
			c0-0.03-0.01-0.06-0.02-0.1c-0.03-0.13-0.06-0.25-0.09-0.38c-0.03-0.13-0.05-0.2-0.08-0.3c0-0.05-0.02-0.09-0.04-0.13
			s-0.04-0.15-0.06-0.22l-0.04-0.14c-0.02-0.06-0.04-0.13-0.06-0.19c-0.04-0.11-0.08-0.22-0.12-0.34c-0.04-0.11-0.08-0.22-0.12-0.33
			c-0.08-0.23-0.18-0.45-0.27-0.67c-0.36-0.87-0.77-1.73-1.14-2.58c-0.2-0.45-0.38-0.9-0.53-1.37l-0.05,0.07
			c-0.08,0.12-0.15,0.24-0.21,0.36c-0.01,1.98-2,4.39-2,4.39l-1.98-2.91l-1.75,2.67c-0.25,0.13-0.5,0.59-0.7,1.24
			c-0.06,0.18-0.11,0.37-0.16,0.57c-0.04,0.14-0.07,0.28-0.1,0.42c-0.02,0.07-0.03,0.15-0.05,0.22l-0.05,0.23l0,0.04
			c-0.03,0.16-0.06,0.32-0.09,0.48s-0.06,0.35-0.09,0.53c-0.02,0.12-0.04,0.23-0.05,0.35c-0.04,0.22-0.07,0.45-0.1,0.67
			c-0.02,0.13-0.04,0.25-0.05,0.39l-0.06,0.5c0.13,0.41,0.27,0.82,0.41,1.22c0.09,0.22,0.15,0.45,0.16,0.69
			c3.08,0.89,6.35,0.91,9.43,0.04c0-0.01,0-0.02,0-0.03c-0.05-0.23-0.06-0.46-0.06-0.69l0,0c0.05-0.64,0.14-1.29,0.26-1.92
			c0.04-0.31,0.06-0.63,0.05-0.94l0-0.11C65.22,133.09,65.22,133,65.22,132.91z M67.9,128.21l-0.88-3.58l-0.15-0.61l-0.04-0.17l0,0
			l-0.21-0.88c0-0.01,0-0.02,0-0.02l0,0c0.01-0.04,0-0.08-0.02-0.11c-0.03-0.07-0.11-0.13-0.31-0.15c-0.07-0.01-0.15-0.01-0.22,0
			l0,0c-0.22,0.02-0.43,0.06-0.65,0.12c-0.1,0.03-0.21,0.06-0.33,0.09l-0.22,0.07l-0.02,0c-0.58,0.19-1.12,0.48-1.59,0.87
			c-0.31,0.26-0.58,0.55-0.81,0.89l-0.05,0.07c-0.08,0.12-0.15,0.24-0.21,0.36c-0.01,1.98-2,4.39-2,4.39l-1.98-2.91l-0.11-0.16
			l-0.02-0.03L57.81,126l-0.22-0.29l-0.06-0.08l-1.02-1.38l0,0l-0.32-0.45l0-0.02l-0.11-0.15l-0.21-0.29l-0.76,0.44l-1.89,1.09
			l-0.89,5.65l0,0.06l0.02,0.41l0.17,3.15l0,0.18l-0.29,1.13c0.76,0.41,1.54,0.77,2.36,1.06l0.21,0.08
			c0.25,0.08,0.49,0.16,0.73,0.23c0.01,0.04,0.02,0.08,0.02,0.11c0-0.04,0-0.07,0-0.11c3.08,0.89,6.35,0.91,9.43,0.04l0.06-0.02
			c0.14-0.04,0.29-0.08,0.43-0.13l0.23-0.07c0.62-0.2,1.23-0.45,1.82-0.72l0,0l0.23-4.49l0.16-3.21L67.9,128.21z M55.51,136.83
			c0.01,0.04,0.02,0.08,0.02,0.11c0-0.04,0-0.07,0-0.11L55.51,136.83z M65.22,132.91c0-0.1,0-0.2-0.02-0.3
			c-0.02-0.1-0.01-0.19-0.03-0.28c-0.01-0.1-0.02-0.19-0.03-0.29c-0.01-0.1-0.03-0.19-0.05-0.29c-0.02-0.1-0.03-0.19-0.05-0.29
			c0-0.03-0.01-0.06-0.02-0.1c-0.03-0.13-0.06-0.25-0.09-0.38c-0.03-0.13-0.05-0.2-0.08-0.3c0-0.05-0.02-0.09-0.04-0.13
			s-0.04-0.15-0.06-0.22l-0.04-0.14c-0.02-0.06-0.04-0.13-0.06-0.19c-0.04-0.11-0.08-0.22-0.12-0.34c-0.04-0.11-0.08-0.22-0.12-0.33
			c-0.08-0.23-0.18-0.45-0.27-0.67c-0.36-0.87-0.77-1.73-1.14-2.58c-0.2-0.45-0.38-0.9-0.53-1.37l-0.05,0.07
			c-0.08,0.12-0.15,0.24-0.21,0.36c-0.01,1.98-2,4.39-2,4.39l-1.98-2.91l-1.75,2.67c-0.25,0.13-0.5,0.59-0.7,1.24
			c-0.06,0.18-0.11,0.37-0.16,0.57c-0.04,0.14-0.07,0.28-0.1,0.42c-0.02,0.07-0.03,0.15-0.05,0.22l-0.05,0.23l0,0.04
			c-0.03,0.16-0.06,0.32-0.09,0.48s-0.06,0.35-0.09,0.53c-0.02,0.12-0.04,0.23-0.05,0.35c-0.04,0.22-0.07,0.45-0.1,0.67
			c-0.02,0.13-0.04,0.25-0.05,0.39l-0.06,0.5c0.13,0.41,0.27,0.82,0.41,1.22c0.09,0.22,0.15,0.45,0.16,0.69
			c3.08,0.89,6.35,0.91,9.43,0.04c0-0.01,0-0.02,0-0.03c-0.05-0.23-0.06-0.46-0.06-0.69l0,0c0.05-0.64,0.14-1.29,0.26-1.92
			c0.04-0.31,0.06-0.63,0.05-0.94l0-0.11C65.22,133.09,65.22,133,65.22,132.91z M65.22,132.91c0-0.1,0-0.2-0.02-0.3
			c-0.02-0.1-0.01-0.19-0.03-0.28c-0.01-0.1-0.02-0.19-0.03-0.29c-0.01-0.1-0.03-0.19-0.05-0.29c-0.02-0.1-0.03-0.19-0.05-0.29
			c0-0.03-0.01-0.06-0.02-0.1c-0.03-0.13-0.06-0.25-0.09-0.38c-0.03-0.13-0.05-0.2-0.08-0.3c0-0.05-0.02-0.09-0.04-0.13
			s-0.04-0.15-0.06-0.22l-0.04-0.14c-0.02-0.06-0.04-0.13-0.06-0.19c-0.04-0.11-0.08-0.22-0.12-0.34c-0.04-0.11-0.08-0.22-0.12-0.33
			c-0.08-0.23-0.18-0.45-0.27-0.67c-0.36-0.87-0.77-1.73-1.14-2.58c-0.2-0.45-0.38-0.9-0.53-1.37l-0.05,0.07
			c-0.08,0.12-0.15,0.24-0.21,0.36c-0.01,1.98-2,4.39-2,4.39l-1.98-2.91l-1.75,2.67c-0.25,0.13-0.5,0.59-0.7,1.24
			c-0.06,0.18-0.11,0.37-0.16,0.57c-0.04,0.14-0.07,0.28-0.1,0.42c-0.02,0.07-0.03,0.15-0.05,0.22l-0.05,0.23l0,0.04
			c-0.03,0.16-0.06,0.32-0.09,0.48s-0.06,0.35-0.09,0.53c-0.02,0.12-0.04,0.23-0.05,0.35c-0.04,0.22-0.07,0.45-0.1,0.67
			c-0.02,0.13-0.04,0.25-0.05,0.39l-0.06,0.5c0.13,0.41,0.27,0.82,0.41,1.22c0.09,0.22,0.15,0.45,0.16,0.69
			c3.08,0.89,6.35,0.91,9.43,0.04c0-0.01,0-0.02,0-0.03c-0.05-0.23-0.06-0.46-0.06-0.69l0,0c0.05-0.64,0.14-1.29,0.26-1.92
			c0.04-0.31,0.06-0.63,0.05-0.94l0-0.11C65.22,133.09,65.22,133,65.22,132.91z M65.22,132.91c0-0.1,0-0.2-0.02-0.3
			c-0.02-0.1-0.01-0.19-0.03-0.28c-0.01-0.1-0.02-0.19-0.03-0.29c-0.01-0.1-0.03-0.19-0.05-0.29c-0.02-0.1-0.03-0.19-0.05-0.29
			c0-0.03-0.01-0.06-0.02-0.1c-0.03-0.13-0.06-0.25-0.09-0.38c-0.03-0.13-0.05-0.2-0.08-0.3c0-0.05-0.02-0.09-0.04-0.13
			s-0.04-0.15-0.06-0.22l-0.04-0.14c-0.02-0.06-0.04-0.13-0.06-0.19c-0.04-0.11-0.08-0.22-0.12-0.34c-0.04-0.11-0.08-0.22-0.12-0.33
			c-0.08-0.23-0.18-0.45-0.27-0.67c-0.36-0.87-0.77-1.73-1.14-2.58c-0.2-0.45-0.38-0.9-0.53-1.37l-0.05,0.07
			c-0.08,0.12-0.15,0.24-0.21,0.36c-0.01,1.98-2,4.39-2,4.39l-1.98-2.91l-1.75,2.67c-0.25,0.13-0.5,0.59-0.7,1.24
			c-0.06,0.18-0.11,0.37-0.16,0.57c-0.04,0.14-0.07,0.28-0.1,0.42c-0.02,0.07-0.03,0.15-0.05,0.22l-0.05,0.23l0,0.04
			c-0.03,0.16-0.06,0.32-0.09,0.48s-0.06,0.35-0.09,0.53c-0.02,0.12-0.04,0.23-0.05,0.35c-0.04,0.22-0.07,0.45-0.1,0.67
			c-0.02,0.13-0.04,0.25-0.05,0.39l-0.06,0.5c0.13,0.41,0.27,0.82,0.41,1.22c0.09,0.22,0.15,0.45,0.16,0.69
			c3.08,0.89,6.35,0.91,9.43,0.04c0-0.01,0-0.02,0-0.03c-0.05-0.23-0.06-0.46-0.06-0.69l0,0c0.05-0.64,0.14-1.29,0.26-1.92
			c0.04-0.31,0.06-0.63,0.05-0.94l0-0.11C65.22,133.09,65.22,133,65.22,132.91z M65.22,132.91c0-0.1,0-0.2-0.02-0.3
			c-0.02-0.1-0.01-0.19-0.03-0.28c-0.01-0.1-0.02-0.19-0.03-0.29c-0.01-0.1-0.03-0.19-0.05-0.29c-0.02-0.1-0.03-0.19-0.05-0.29
			c0-0.03-0.01-0.06-0.02-0.1c-0.03-0.13-0.06-0.25-0.09-0.38c-0.03-0.13-0.05-0.2-0.08-0.3c0-0.05-0.02-0.09-0.04-0.13
			s-0.04-0.15-0.06-0.22l-0.04-0.14c-0.02-0.06-0.04-0.13-0.06-0.19c-0.04-0.11-0.08-0.22-0.12-0.34c-0.04-0.11-0.08-0.22-0.12-0.33
			c-0.08-0.23-0.18-0.45-0.27-0.67c-0.36-0.87-0.77-1.73-1.14-2.58c-0.2-0.45-0.38-0.9-0.53-1.37l-0.05,0.07
			c-0.08,0.12-0.15,0.24-0.21,0.36c-0.01,1.98-2,4.39-2,4.39l-1.98-2.91l-1.75,2.67c-0.25,0.13-0.5,0.59-0.7,1.24
			c-0.06,0.18-0.11,0.37-0.16,0.57c-0.04,0.14-0.07,0.28-0.1,0.42c-0.02,0.07-0.03,0.15-0.05,0.22l-0.05,0.23l0,0.04
			c-0.03,0.16-0.06,0.32-0.09,0.48s-0.06,0.35-0.09,0.53c-0.02,0.12-0.04,0.23-0.05,0.35c-0.04,0.22-0.07,0.45-0.1,0.67
			c-0.02,0.13-0.04,0.25-0.05,0.39l-0.06,0.5c0.13,0.41,0.27,0.82,0.41,1.22c0.09,0.22,0.15,0.45,0.16,0.69
			c3.08,0.89,6.35,0.91,9.43,0.04c0-0.01,0-0.02,0-0.03c-0.05-0.23-0.06-0.46-0.06-0.69l0,0c0.05-0.64,0.14-1.29,0.26-1.92
			c0.04-0.31,0.06-0.63,0.05-0.94l0-0.11C65.22,133.09,65.22,133,65.22,132.91z M65.22,132.91c0-0.1,0-0.2-0.02-0.3
			c-0.02-0.1-0.01-0.19-0.03-0.28c-0.01-0.1-0.02-0.19-0.03-0.29c-0.01-0.1-0.03-0.19-0.05-0.29c-0.02-0.1-0.03-0.19-0.05-0.29
			c0-0.03-0.01-0.06-0.02-0.1c-0.03-0.13-0.06-0.25-0.09-0.38c-0.03-0.13-0.05-0.2-0.08-0.3c0-0.05-0.02-0.09-0.04-0.13
			s-0.04-0.15-0.06-0.22l-0.04-0.14c-0.02-0.06-0.04-0.13-0.06-0.19c-0.04-0.11-0.08-0.22-0.12-0.34c-0.04-0.11-0.08-0.22-0.12-0.33
			c-0.08-0.23-0.18-0.45-0.27-0.67c-0.36-0.87-0.77-1.73-1.14-2.58c-0.2-0.45-0.38-0.9-0.53-1.37l-0.05,0.07
			c-0.08,0.12-0.15,0.24-0.21,0.36c-0.01,1.98-2,4.39-2,4.39l-1.98-2.91l-1.75,2.67c-0.25,0.13-0.5,0.59-0.7,1.24
			c-0.06,0.18-0.11,0.37-0.16,0.57c-0.04,0.14-0.07,0.28-0.1,0.42c-0.02,0.07-0.03,0.15-0.05,0.22l-0.05,0.23l0,0.04
			c-0.03,0.16-0.06,0.32-0.09,0.48s-0.06,0.35-0.09,0.53c-0.02,0.12-0.04,0.23-0.05,0.35c-0.04,0.22-0.07,0.45-0.1,0.67
			c-0.02,0.13-0.04,0.25-0.05,0.39l-0.06,0.5c0.13,0.41,0.27,0.82,0.41,1.22c0.09,0.22,0.15,0.45,0.16,0.69
			c3.08,0.89,6.35,0.91,9.43,0.04c0-0.01,0-0.02,0-0.03c-0.05-0.23-0.06-0.46-0.06-0.69l0,0c0.05-0.64,0.14-1.29,0.26-1.92
			c0.04-0.31,0.06-0.63,0.05-0.94l0-0.11C65.22,133.09,65.22,133,65.22,132.91z M65.22,132.91c0-0.1,0-0.2-0.02-0.3
			c-0.02-0.1-0.01-0.19-0.03-0.28c-0.01-0.1-0.02-0.19-0.03-0.29c-0.01-0.1-0.03-0.19-0.05-0.29c-0.02-0.1-0.03-0.19-0.05-0.29
			c0-0.03-0.01-0.06-0.02-0.1c-0.03-0.13-0.06-0.25-0.09-0.38c-0.03-0.13-0.05-0.2-0.08-0.3c0-0.05-0.02-0.09-0.04-0.13
			s-0.04-0.15-0.06-0.22l-0.04-0.14c-0.02-0.06-0.04-0.13-0.06-0.19c-0.04-0.11-0.08-0.22-0.12-0.34c-0.04-0.11-0.08-0.22-0.12-0.33
			c-0.08-0.23-0.18-0.45-0.27-0.67c-0.36-0.87-0.77-1.73-1.14-2.58c-0.2-0.45-0.38-0.9-0.53-1.37l-0.05,0.07
			c-0.08,0.12-0.15,0.24-0.21,0.36c-0.01,1.98-2,4.39-2,4.39l-1.98-2.91l-1.75,2.67c-0.25,0.13-0.5,0.59-0.7,1.24
			c-0.06,0.18-0.11,0.37-0.16,0.57c-0.04,0.14-0.07,0.28-0.1,0.42c-0.02,0.07-0.03,0.15-0.05,0.22l-0.05,0.23l0,0.04
			c-0.03,0.16-0.06,0.32-0.09,0.48s-0.06,0.35-0.09,0.53c-0.02,0.12-0.04,0.23-0.05,0.35c-0.04,0.22-0.07,0.45-0.1,0.67
			c-0.02,0.13-0.04,0.25-0.05,0.39l-0.06,0.5c0.13,0.41,0.27,0.82,0.41,1.22c0.09,0.22,0.15,0.45,0.16,0.69
			c3.08,0.89,6.35,0.91,9.43,0.04c0-0.01,0-0.02,0-0.03c-0.05-0.23-0.06-0.46-0.06-0.69l0,0c0.05-0.64,0.14-1.29,0.26-1.92
			c0.04-0.31,0.06-0.63,0.05-0.94l0-0.11C65.22,133.09,65.22,133,65.22,132.91z M65.22,132.91c0-0.1,0-0.2-0.02-0.3
			c-0.02-0.1-0.01-0.19-0.03-0.28c-0.01-0.1-0.02-0.19-0.03-0.29c-0.01-0.1-0.03-0.19-0.05-0.29c-0.02-0.1-0.03-0.19-0.05-0.29
			c0-0.03-0.01-0.06-0.02-0.1c-0.03-0.13-0.06-0.25-0.09-0.38c-0.03-0.13-0.05-0.2-0.08-0.3c0-0.05-0.02-0.09-0.04-0.13
			s-0.04-0.15-0.06-0.22l-0.04-0.14c-0.02-0.06-0.04-0.13-0.06-0.19c-0.04-0.11-0.08-0.22-0.12-0.34c-0.04-0.11-0.08-0.22-0.12-0.33
			c-0.08-0.23-0.18-0.45-0.27-0.67c-0.36-0.87-0.77-1.73-1.14-2.58c-0.2-0.45-0.38-0.9-0.53-1.37l-0.05,0.07
			c-0.08,0.12-0.15,0.24-0.21,0.36c-0.01,1.98-2,4.39-2,4.39l-1.98-2.91l-1.75,2.67c-0.25,0.13-0.5,0.59-0.7,1.24
			c-0.06,0.18-0.11,0.37-0.16,0.57c-0.04,0.14-0.07,0.28-0.1,0.42c-0.02,0.07-0.03,0.15-0.05,0.22l-0.05,0.23l0,0.04
			c-0.03,0.16-0.06,0.32-0.09,0.48s-0.06,0.35-0.09,0.53c-0.02,0.12-0.04,0.23-0.05,0.35c-0.04,0.22-0.07,0.45-0.1,0.67
			c-0.02,0.13-0.04,0.25-0.05,0.39l-0.06,0.5c0.13,0.41,0.27,0.82,0.41,1.22c0.09,0.22,0.15,0.45,0.16,0.69
			c3.08,0.89,6.35,0.91,9.43,0.04c0-0.01,0-0.02,0-0.03c-0.05-0.23-0.06-0.46-0.06-0.69l0,0c0.05-0.64,0.14-1.29,0.26-1.92
			c0.04-0.31,0.06-0.63,0.05-0.94l0-0.11C65.22,133.09,65.22,133,65.22,132.91z M65.22,132.91c0-0.1,0-0.2-0.02-0.3
			c-0.02-0.1-0.01-0.19-0.03-0.28c-0.01-0.1-0.02-0.19-0.03-0.29c-0.01-0.1-0.03-0.19-0.05-0.29c-0.02-0.1-0.03-0.19-0.05-0.29
			c0-0.03-0.01-0.06-0.02-0.1c-0.03-0.13-0.06-0.25-0.09-0.38c-0.03-0.13-0.05-0.2-0.08-0.3c0-0.05-0.02-0.09-0.04-0.13
			s-0.04-0.15-0.06-0.22l-0.04-0.14c-0.02-0.06-0.04-0.13-0.06-0.19c-0.04-0.11-0.08-0.22-0.12-0.34c-0.04-0.11-0.08-0.22-0.12-0.33
			c-0.08-0.23-0.18-0.45-0.27-0.67c-0.36-0.87-0.77-1.73-1.14-2.58c-0.2-0.45-0.38-0.9-0.53-1.37l-0.05,0.07
			c-0.08,0.12-0.15,0.24-0.21,0.36c-0.01,1.98-2,4.39-2,4.39l-1.98-2.91l-1.75,2.67c-0.25,0.13-0.5,0.59-0.7,1.24
			c-0.06,0.18-0.11,0.37-0.16,0.57c-0.04,0.14-0.07,0.28-0.1,0.42c-0.02,0.07-0.03,0.15-0.05,0.22l-0.05,0.23l0,0.04
			c-0.03,0.16-0.06,0.32-0.09,0.48s-0.06,0.35-0.09,0.53c-0.02,0.12-0.04,0.23-0.05,0.35c-0.04,0.22-0.07,0.45-0.1,0.67
			c-0.02,0.13-0.04,0.25-0.05,0.39l-0.06,0.5c0.13,0.41,0.27,0.82,0.41,1.22c0.09,0.22,0.15,0.45,0.16,0.69
			c3.08,0.89,6.35,0.91,9.43,0.04c0-0.01,0-0.02,0-0.03c-0.05-0.23-0.06-0.46-0.06-0.69l0,0c0.05-0.64,0.14-1.29,0.26-1.92
			c0.04-0.31,0.06-0.63,0.05-0.94l0-0.11C65.22,133.09,65.22,133,65.22,132.91z"/>
		<path class="st13" d="M58.26,126.45l-0.17-0.02c-0.25-0.04-0.51-0.09-0.75-0.15l-0.09-0.03c-0.61-0.18-1.28-0.49-1.43-1.04
			c-0.04-0.18-0.04-0.36,0.02-0.53c0.09-0.3,0.2-0.59,0.35-0.86l0-0.02c0.02-0.04,0.04-0.08,0.06-0.11c0.21-0.4,0.52-0.74,0.91-0.98
			l-0.3,0.05l0,0l-2.55,0.4l-3.96,0.62c0,0-0.7-0.14-1.67,2.49c0,0.03-0.02,0.06-0.03,0.1c-0.23,0.64-0.48,1.45-0.74,2.46
			c-0.18,0.7-0.34,1.38-0.49,2.05c-0.04,0.2-0.09,0.4-0.13,0.59c0.45,0.54,0.94,1.04,1.45,1.51l0.08,0.08
			c1.01,0.92,2.13,1.73,3.34,2.38l0.05,0.03c0.76,0.41,1.54,0.77,2.36,1.06l0.21,0.08c0.05-0.46,0.1-0.98,0.16-1.51
			c0-0.05,0-0.11,0.02-0.16l0.06-0.5c0.02-0.13,0.03-0.25,0.05-0.39c0.03-0.22,0.06-0.45,0.1-0.67c0.02-0.12,0.03-0.23,0.05-0.35
			c0.03-0.18,0.06-0.36,0.09-0.53s0.06-0.32,0.09-0.48l0-0.04l0.05-0.23c0.02-0.08,0.03-0.15,0.05-0.22
			c0.03-0.14,0.06-0.29,0.1-0.42c0.05-0.2,0.1-0.39,0.16-0.57c0.2-0.65,0.44-1.11,0.7-1.24l1.75-2.67l0.07-0.11l0.03-0.05
			L58.26,126.45z"/>
		<path class="st14" d="M58.12,126.46l-1.86,2.84c-0.25,0.13-0.49,0.57-0.69,1.2c-0.06,0.19-0.12,0.39-0.17,0.6
			c-0.25,1.08-0.45,2.18-0.58,3.29c0,0.05,0,0.1-0.02,0.15c-0.09,0.7-0.16,1.38-0.22,1.99c-0.81-0.29-1.6-0.64-2.36-1.06l-0.05-0.03
			c-1.2-0.66-2.32-1.46-3.34-2.38l-0.08-0.08c-0.52-0.47-1-0.98-1.45-1.51c-0.06-0.07-0.12-0.14-0.17-0.21
			c0.03-0.13,0.06-0.25,0.09-0.39c0.15-0.67,0.31-1.35,0.48-2.04c0.23-0.95,0.52-1.89,0.87-2.81c0.01-0.03,0.02-0.05,0.03-0.08
			c0.9-2.28,1.54-2.15,1.54-2.15l4.18-0.65l2.64-0.42l-0.08,0.05l0,0c-0.29,0.21-0.54,0.47-0.73,0.77l-0.07,0.12
			c-0.03,0.05-0.06,0.1-0.09,0.15c-0.15,0.28-0.27,0.57-0.35,0.88c-0.08,0.24-0.06,0.5,0.06,0.72c0.25,0.49,0.96,0.76,1.55,0.91
			l0.1,0.03C57.58,126.39,57.85,126.43,58.12,126.46z"/>
		<path class="st13" d="M72.61,131.6l-0.09-2.23c0.45-3.51-0.42-3.74-0.42-3.74l-1.04-0.51l-0.03,0l-4.19-2.06l-0.16-0.08
			l-0.05-0.02l0,0l-0.55-0.27l0,0l-0.35-0.17l-0.65-0.32l-0.22-0.11c0,0,0,0.04,0,0.12c0,0.08,0,0.29,0,0.54c0,0.07,0,0.14,0,0.22
			c0,0.25,0.02,0.55,0.04,0.89c0.04,0.86,0.12,2.01,0.26,3.37c0.08,0.79,0.18,1.65,0.31,2.57c0.08,0.55,0.13,1.09,0.16,1.62
			c0.11,1.79,0.04,3.58-0.19,5.35l0.23-0.07c0.62-0.2,1.23-0.45,1.82-0.72l0,0c1.15-0.53,2.24-1.2,3.25-1.98l0.05-0.03
			c0.65-0.5,1.26-1.05,1.83-1.65L72.61,131.6z"/>
		<path class="st14" d="M72.83,131.6l-0.09-2.24c0.45-3.51-0.42-3.74-0.42-3.74l-1.25-0.61l-0.03,0l-4.21-2.06l-0.19-0.09
			l-0.04-0.02l-0.31-0.15l-0.41-0.2l-0.81-0.4l0,0.11c0,0.06,0,0.14,0,0.25l0,0c0,0.07,0,0.14,0,0.22c0,0.08,0,0.14,0,0.22
			c0,0.25,0.02,0.58,0.04,0.95c0.04,0.8,0.11,1.85,0.24,3.1c0.09,0.86,0.2,1.81,0.34,2.83c0.07,0.55,0.13,1.09,0.16,1.63
			c0.1,1.76,0.04,3.53-0.18,5.27c0.62-0.2,1.23-0.45,1.82-0.72l0,0c1.15-0.53,2.24-1.2,3.25-1.98l0.05-0.03
			c0.65-0.5,1.26-1.05,1.83-1.65c0.07-0.07,0.14-0.15,0.21-0.23L72.83,131.6z"/>
		<path class="st13" d="M55.17,108.65c-0.25,0.35-0.23,0.82-0.35,1.25c-0.27,0.98-1.34,1.59-1.59,2.58
			c-0.15,0.58,0.02,1.19-0.08,1.78c-0.18,1.08-1.18,1.81-1.73,2.76c-0.57,0.99-0.66,2.18-0.24,3.24c0.13,0.26,0.23,0.54,0.32,0.82
			c0.06,0.42,0.03,0.85-0.08,1.26c-0.19,0.89-0.39,1.88,0.04,2.69c0.36,0.68,1.12,1.08,1.88,1.21c0.77,0.09,1.55,0.06,2.3-0.1
			c0.83-0.12,1.68-0.27,2.41-0.69l-2.69-6.58c-0.27-0.66-0.55-1.35-0.54-2.07c0.02-0.53,0.14-1.05,0.35-1.54
			c0.53-1.42,1.3-2.74,2.28-3.9c0.39,0.46,0.36,1.15,0.69,1.66c0.29,0.38,0.68,0.67,1.12,0.84c1.29,0.63,2.61,1.19,3.96,1.68
			c0.28,0.04,0.49,0.3,0.45,0.58c-0.01,0.07-0.03,0.13-0.07,0.19l-1.04,4.23c-0.23,0.93-0.43,2.01,0.14,2.76
			c0.58,0.76,1.88,1.12,1.89,2.09c-0.01,0.15-0.01,0.31,0,0.46c0.07,0.45,0.6,0.68,1.06,0.7c1.56,0.04,2.91-1.06,3.2-2.59
			c0.26-1.66-0.84-3.2-1.29-4.82c-0.76-2.73,0.28-5.92-1.23-8.32c-1.22-1.95-3.46-2.48-5.59-2.73
			C59.21,107.9,56.23,107.26,55.17,108.65z"/>
		<path class="st11" d="M55.17,108.4c-0.25,0.35-0.23,0.82-0.35,1.25c-0.27,0.98-1.34,1.59-1.59,2.58
			c-0.15,0.58,0.02,1.19-0.08,1.78c-0.18,1.08-1.18,1.81-1.73,2.76c-0.57,0.99-0.66,2.18-0.24,3.24c0.13,0.26,0.23,0.54,0.32,0.82
			c0.06,0.42,0.03,0.85-0.08,1.26c-0.19,0.89-0.39,1.88,0.04,2.69c0.36,0.68,1.12,1.08,1.88,1.21c0.77,0.09,1.55,0.06,2.3-0.1
			c0.83-0.12,1.68-0.27,2.41-0.69l-2.69-6.58c-0.27-0.66-0.55-1.35-0.54-2.07c0.02-0.53,0.14-1.05,0.35-1.54
			c0.53-1.42,1.3-2.74,2.28-3.9c0.39,0.46,0.36,1.15,0.69,1.66c0.29,0.38,0.68,0.67,1.12,0.84c1.29,0.63,2.61,1.19,3.96,1.68
			c0.28,0.04,0.49,0.3,0.45,0.58c-0.01,0.07-0.03,0.13-0.07,0.19l-1.04,4.23c-0.23,0.93-0.43,2.01,0.14,2.76
			c0.58,0.76,1.88,1.12,1.89,2.09c-0.01,0.15-0.01,0.31,0,0.46c0.07,0.45,0.6,0.68,1.06,0.7c1.56,0.04,2.91-1.06,3.2-2.59
			c0.26-1.66-0.84-3.2-1.29-4.82c-0.76-2.73,0.28-5.92-1.23-8.32c-1.22-1.95-3.46-2.48-5.59-2.73
			C59.22,107.65,56.23,107.01,55.17,108.4z"/>
	</g>
	<g class="st9">
		<path class="st5" d="M77.15,181.05c-0.01,4.08-1.49,8.02-4.16,11.1c-0.13,0.15-0.27,0.3-0.41,0.45c-0.07,0.08-0.14,0.15-0.21,0.23
			c-0.57,0.59-1.18,1.14-1.83,1.65l-0.05,0.03c-1,0.78-2.09,1.44-3.25,1.98l0,0c-0.59,0.28-1.2,0.52-1.82,0.72l-0.23,0.07
			c-0.14,0.05-0.29,0.09-0.43,0.13l-0.06,0.02c-3.09,0.87-6.35,0.85-9.43-0.04l-0.03,0c-0.25-0.07-0.5-0.15-0.73-0.23l-0.21-0.08
			c-0.81-0.29-1.6-0.64-2.36-1.06l-0.05-0.03c-1.2-0.66-2.32-1.46-3.34-2.38l-0.08-0.08c-0.52-0.47-1-0.98-1.45-1.51
			c-0.06-0.07-0.12-0.14-0.17-0.21c-0.11-0.13-0.21-0.27-0.32-0.4c-5.75-7.47-4.36-18.2,3.11-23.95c7.47-5.75,18.2-4.36,23.95,3.11
			C75.92,173.56,77.17,177.25,77.15,181.05z"/>
		
			<linearGradient id="SVGID_3_" gradientUnits="userSpaceOnUse" x1="84.5778" y1="47.7246" x2="110.3214" y2="47.7246" gradientTransform="matrix(1 4.361738e-03 4.361738e-03 -1 -37.9003 229.9109)">
			<stop  offset="0" style="stop-color:#808080;stop-opacity:0.25"/>
			<stop  offset="0.54" style="stop-color:#808080;stop-opacity:0.12"/>
			<stop  offset="1" style="stop-color:#808080;stop-opacity:0.1"/>
		</linearGradient>
		<path class="st15" d="M72.57,192.04l-0.09-2.26c0.46-3.57-0.42-3.8-0.42-3.8l-1.25-0.62l-0.03-0.01l-4.21-2.1l-0.19-0.1l-0.02-0.1
			c0,0,0.08-0.25-0.33-0.3c-0.08-0.2-0.11-0.42-0.1-0.64c0.04-0.48,0.41-0.86,0.7-1.25c0.73-1.07,1.03-2.37,0.84-3.66
			c-0.19-1.27-0.67-2.48-1.39-3.54l-0.08-0.12c0.1-0.36,0.15-0.73,0.15-1.11c0.01-2.89-2.9-5.25-6.51-5.26
			c-3.27-0.01-5.99,1.91-6.48,4.42c-0.07,0.1-0.14,0.2-0.2,0.31c-0.67,1.24,0.35,2.17,0.38,3.41c0.02,0.85-0.56,1.58-1.01,2.3
			c-0.46,0.72-0.8,1.68-0.33,2.4c0.15,0.24,0.38,0.42,0.52,0.66c0.48,0.86-0.33,1.84-0.63,2.78c-0.03,0.11-0.06,0.22-0.08,0.33
			l-1.94,0.31c0,0-0.64-0.13-1.54,2.19c-0.01,0.03-0.02,0.05-0.03,0.08c-0.34,0.93-0.63,1.89-0.87,2.86
			c-0.18,0.71-0.34,1.4-0.48,2.08c-0.03,0.13-0.06,0.27-0.09,0.4c0.06,0.07,0.11,0.14,0.17,0.21c0.45,0.55,0.94,1.06,1.45,1.54
			l0.08,0.08c1.01,0.94,2.13,1.75,3.34,2.42l0.05,0.03c0.76,0.42,1.54,0.78,2.36,1.07l0.21,0.08c0.25,0.09,0.49,0.16,0.73,0.24
			c0.01,0.04,0.02,0.08,0.02,0.12c0-0.04,0-0.07,0-0.11c3.08,0.91,6.35,0.92,9.43,0.04l0.06-0.02c0.14-0.04,0.29-0.08,0.43-0.13
			l0.23-0.07c0.62-0.21,1.23-0.45,1.82-0.73l0,0c1.16-0.54,2.25-1.22,3.25-2.01l0.05-0.03c0.65-0.51,1.26-1.07,1.83-1.67
			c0.07-0.07,0.14-0.15,0.21-0.23L72.57,192.04z"/>
		<path class="st14" d="M53.33,175.67c0.02,0.84-0.56,1.56-1.01,2.26c-0.46,0.7-0.8,1.65-0.33,2.36c0.15,0.23,0.38,0.41,0.52,0.65
			c0.48,0.84-0.33,1.81-0.63,2.73c-0.34,1.07,0.05,2.26,0.75,3.13c0.71,0.87,1.69,1.46,2.68,1.98c2.09,1.12,4.33,1.93,6.65,2.4
			c1.21,0.23,2.51,0.33,3.65-0.15c1.63-0.74,2.55-2.5,2.21-4.26c-0.28-1.32-1.25-2.39-1.74-3.64c-0.12-0.25-0.17-0.52-0.16-0.79
			c0.04-0.47,0.41-0.84,0.7-1.23c0.72-1.04,1.01-2.32,0.83-3.57c-0.19-1.25-0.67-2.44-1.39-3.49c-0.26-0.43-0.6-0.81-1-1.11
			c-0.55-0.37-1.22-0.48-1.88-0.58c-2.73-0.39-5.55-0.82-8.3-0.98c-0.87-0.05-1.51,0.12-1.94,0.93
			C52.29,173.53,53.31,174.45,53.33,175.67z"/>
		<path class="st12" d="M67.34,184.27l-5.21,7.34l-5.05-0.46c0,0-0.17,1.76-2.18-4.62c-1.12-3.57,1.18-2.32,1.64-3.31
			c0.46-0.99,1.26-1.85,1.33-2.58c0.17-1.56-0.3-2.45-0.3-2.45l5.5-0.63c-0.25,0.74-0.29,1.53-0.1,2.29
			C63.65,182.7,67.34,184.27,67.34,184.27z"/>
		
			<ellipse transform="matrix(4.361738e-03 -1 1 4.361738e-03 -113.462 231.6635)" class="st14" cx="59.61" cy="172.81" rx="5.15" ry="6.53"/>
		<path class="st13" d="M62.97,179.84c-1.46,1.1-3.37,1.39-5.09,0.8c0.17-1.56-0.3-2.45-0.3-2.45l5.5-0.63
			C62.82,178.29,62.79,179.08,62.97,179.84z"/>
		<circle class="st12" cx="59.68" cy="175.23" r="5.49"/>
		<path class="st13" d="M66.8,185.1l-0.13-0.5l-0.11-0.44l-0.16-0.65l-0.03-0.12l-0.02-0.1c0,0,0.13-0.39-0.73-0.27l-0.16,0.03
			c-0.14,0.03-0.29,0.06-0.48,0.11l-0.16,0.05l-0.22,0.07l0,0c-0.68,0.22-1.31,0.59-1.83,1.09c-0.23,0.22-0.44,0.47-0.61,0.74
			c-0.02,0.03-0.03,0.05-0.05,0.07c-0.06,0.09-0.11,0.19-0.16,0.29c-0.01,1.98-2,4.39-2,4.39l-1.92-2.8L58,186.99l-0.46-0.67
			l-0.16-0.22l-0.05-0.08l-1-1.35l-0.25-0.34L56,184.22l-0.12-0.16l-0.29-0.39l-1.13,0.66l-1.51,0.87l-0.9,5.71l0,0.16l0.03,0.47
			l0.17,3.11l0,0.04l-0.33,1.28l0.05,0.03c0.76,0.41,1.54,0.77,2.36,1.06l0.21,0.08c0.25,0.08,0.49,0.16,0.73,0.23
			c0.01,0.04,0.02,0.08,0.02,0.11c0-0.04,0-0.07,0-0.11c3.08,0.89,6.35,0.91,9.43,0.04l0.06-0.02c0.14-0.04,0.29-0.08,0.43-0.13
			l0.23-0.07c0.62-0.2,1.23-0.45,1.82-0.72l0.23-4.5l0.16-3.24l0-0.19L66.8,185.1z"/>
		<path class="st14" d="M64.95,193.45c0-0.1,0-0.2-0.02-0.3c-0.02-0.1-0.01-0.19-0.03-0.28s-0.02-0.19-0.03-0.29
			s-0.03-0.19-0.05-0.29c-0.02-0.1-0.03-0.19-0.05-0.29c0-0.03-0.01-0.06-0.02-0.1c-0.03-0.13-0.06-0.25-0.09-0.38
			s-0.05-0.2-0.08-0.3c0-0.05-0.02-0.09-0.04-0.13c-0.01-0.04-0.04-0.15-0.06-0.22l-0.04-0.14c-0.02-0.06-0.04-0.13-0.06-0.19
			c-0.04-0.11-0.08-0.22-0.12-0.34s-0.08-0.22-0.12-0.33c-0.08-0.23-0.18-0.45-0.27-0.67c-0.36-0.87-0.77-1.73-1.14-2.58
			c-0.2-0.45-0.38-0.9-0.53-1.37l-0.05,0.07c-0.08,0.12-0.15,0.24-0.21,0.36c-0.01,1.98-2,4.39-2,4.39l-1.98-2.91l-1.75,2.67
			c-0.25,0.13-0.5,0.59-0.7,1.24c-0.06,0.18-0.11,0.37-0.16,0.57c-0.04,0.14-0.07,0.28-0.1,0.42c-0.02,0.07-0.03,0.15-0.05,0.22
			l-0.05,0.23l0,0.04c-0.03,0.16-0.06,0.32-0.09,0.48c-0.03,0.16-0.06,0.35-0.09,0.53c-0.02,0.12-0.04,0.23-0.05,0.35
			c-0.04,0.22-0.07,0.45-0.1,0.67c-0.02,0.13-0.04,0.25-0.05,0.39l-0.06,0.5c0.13,0.41,0.27,0.82,0.41,1.22
			c0.09,0.22,0.15,0.45,0.16,0.69c3.08,0.89,6.35,0.91,9.43,0.04c0-0.01,0-0.02,0-0.03c-0.05-0.23-0.06-0.46-0.06-0.69l0,0
			c0.05-0.64,0.14-1.29,0.26-1.92c0.04-0.31,0.06-0.63,0.05-0.94l0-0.11C64.96,193.63,64.95,193.54,64.95,193.45z M64.95,193.45
			c0-0.1,0-0.2-0.02-0.3c-0.02-0.1-0.01-0.19-0.03-0.28s-0.02-0.19-0.03-0.29s-0.03-0.19-0.05-0.29c-0.02-0.1-0.03-0.19-0.05-0.29
			c0-0.03-0.01-0.06-0.02-0.1c-0.03-0.13-0.06-0.25-0.09-0.38s-0.05-0.2-0.08-0.3c0-0.05-0.02-0.09-0.04-0.13
			c-0.01-0.04-0.04-0.15-0.06-0.22l-0.04-0.14c-0.02-0.06-0.04-0.13-0.06-0.19c-0.04-0.11-0.08-0.22-0.12-0.34s-0.08-0.22-0.12-0.33
			c-0.08-0.23-0.18-0.45-0.27-0.67c-0.36-0.87-0.77-1.73-1.14-2.58c-0.2-0.45-0.38-0.9-0.53-1.37l-0.05,0.07
			c-0.08,0.12-0.15,0.24-0.21,0.36c-0.01,1.98-2,4.39-2,4.39l-1.98-2.91l-1.75,2.67c-0.25,0.13-0.5,0.59-0.7,1.24
			c-0.06,0.18-0.11,0.37-0.16,0.57c-0.04,0.14-0.07,0.28-0.1,0.42c-0.02,0.07-0.03,0.15-0.05,0.22l-0.05,0.23l0,0.04
			c-0.03,0.16-0.06,0.32-0.09,0.48c-0.03,0.16-0.06,0.35-0.09,0.53c-0.02,0.12-0.04,0.23-0.05,0.35c-0.04,0.22-0.07,0.45-0.1,0.67
			c-0.02,0.13-0.04,0.25-0.05,0.39l-0.06,0.5c0.13,0.41,0.27,0.82,0.41,1.22c0.09,0.22,0.15,0.45,0.16,0.69
			c3.08,0.89,6.35,0.91,9.43,0.04c0-0.01,0-0.02,0-0.03c-0.05-0.23-0.06-0.46-0.06-0.69l0,0c0.05-0.64,0.14-1.29,0.26-1.92
			c0.04-0.31,0.06-0.63,0.05-0.94l0-0.11C64.96,193.63,64.95,193.54,64.95,193.45z M64.95,193.45c0-0.1,0-0.2-0.02-0.3
			c-0.02-0.1-0.01-0.19-0.03-0.28s-0.02-0.19-0.03-0.29s-0.03-0.19-0.05-0.29c-0.02-0.1-0.03-0.19-0.05-0.29
			c0-0.03-0.01-0.06-0.02-0.1c-0.03-0.13-0.06-0.25-0.09-0.38s-0.05-0.2-0.08-0.3c0-0.05-0.02-0.09-0.04-0.13
			c-0.01-0.04-0.04-0.15-0.06-0.22l-0.04-0.14c-0.02-0.06-0.04-0.13-0.06-0.19c-0.04-0.11-0.08-0.22-0.12-0.34s-0.08-0.22-0.12-0.33
			c-0.08-0.23-0.18-0.45-0.27-0.67c-0.36-0.87-0.77-1.73-1.14-2.58c-0.2-0.45-0.38-0.9-0.53-1.37l-0.05,0.07
			c-0.08,0.12-0.15,0.24-0.21,0.36c-0.01,1.98-2,4.39-2,4.39l-1.98-2.91l-1.75,2.67c-0.25,0.13-0.5,0.59-0.7,1.24
			c-0.06,0.18-0.11,0.37-0.16,0.57c-0.04,0.14-0.07,0.28-0.1,0.42c-0.02,0.07-0.03,0.15-0.05,0.22l-0.05,0.23l0,0.04
			c-0.03,0.16-0.06,0.32-0.09,0.48c-0.03,0.16-0.06,0.35-0.09,0.53c-0.02,0.12-0.04,0.23-0.05,0.35c-0.04,0.22-0.07,0.45-0.1,0.67
			c-0.02,0.13-0.04,0.25-0.05,0.39l-0.06,0.5c0.13,0.41,0.27,0.82,0.41,1.22c0.09,0.22,0.15,0.45,0.16,0.69
			c3.08,0.89,6.35,0.91,9.43,0.04c0-0.01,0-0.02,0-0.03c-0.05-0.23-0.06-0.46-0.06-0.69l0,0c0.05-0.64,0.14-1.29,0.26-1.92
			c0.04-0.31,0.06-0.63,0.05-0.94l0-0.11C64.96,193.63,64.95,193.54,64.95,193.45z M67.64,188.74l-0.88-3.58l-0.15-0.61l-0.04-0.17
			l0,0l-0.21-0.88c0-0.01,0-0.02,0-0.02l0,0c0.01-0.04,0-0.08-0.02-0.11c-0.03-0.07-0.11-0.13-0.31-0.15
			c-0.07-0.01-0.15-0.01-0.22,0l0,0c-0.22,0.02-0.43,0.06-0.65,0.12c-0.1,0.03-0.21,0.06-0.33,0.09l-0.22,0.07l-0.02,0
			c-0.58,0.19-1.12,0.48-1.59,0.87c-0.31,0.26-0.58,0.55-0.81,0.89l-0.05,0.07c-0.08,0.12-0.15,0.24-0.21,0.36
			c-0.01,1.98-2,4.39-2,4.39l-1.98-2.91l-0.11-0.16l-0.02-0.03l-0.29-0.43l-0.22-0.29l-0.06-0.08l-1.02-1.38l0,0l-0.32-0.45l0-0.02
			l-0.11-0.15l-0.21-0.29l-0.76,0.44l-1.89,1.09l-0.89,5.65l0,0.06l0.02,0.41l0.17,3.15l0,0.18L51.96,196
			c0.76,0.41,1.54,0.77,2.36,1.06l0.21,0.08c0.25,0.08,0.49,0.16,0.73,0.23c0.01,0.04,0.02,0.08,0.02,0.11c0-0.04,0-0.07,0-0.11
			c3.08,0.89,6.35,0.91,9.43,0.04l0.06-0.02c0.14-0.04,0.29-0.08,0.43-0.13l0.23-0.07c0.62-0.2,1.23-0.45,1.82-0.72l0,0l0.23-4.49
			l0.16-3.21L67.64,188.74z M55.24,197.36c0.01,0.04,0.02,0.08,0.02,0.11c0-0.04,0-0.07,0-0.11L55.24,197.36z M64.95,193.45
			c0-0.1,0-0.2-0.02-0.3c-0.02-0.1-0.01-0.19-0.03-0.28s-0.02-0.19-0.03-0.29s-0.03-0.19-0.05-0.29c-0.02-0.1-0.03-0.19-0.05-0.29
			c0-0.03-0.01-0.06-0.02-0.1c-0.03-0.13-0.06-0.25-0.09-0.38s-0.05-0.2-0.08-0.3c0-0.05-0.02-0.09-0.04-0.13
			c-0.01-0.04-0.04-0.15-0.06-0.22l-0.04-0.14c-0.02-0.06-0.04-0.13-0.06-0.19c-0.04-0.11-0.08-0.22-0.12-0.34s-0.08-0.22-0.12-0.33
			c-0.08-0.23-0.18-0.45-0.27-0.67c-0.36-0.87-0.77-1.73-1.14-2.58c-0.2-0.45-0.38-0.9-0.53-1.37l-0.05,0.07
			c-0.08,0.12-0.15,0.24-0.21,0.36c-0.01,1.98-2,4.39-2,4.39l-1.98-2.91l-1.75,2.67c-0.25,0.13-0.5,0.59-0.7,1.24
			c-0.06,0.18-0.11,0.37-0.16,0.57c-0.04,0.14-0.07,0.28-0.1,0.42c-0.02,0.07-0.03,0.15-0.05,0.22l-0.05,0.23l0,0.04
			c-0.03,0.16-0.06,0.32-0.09,0.48c-0.03,0.16-0.06,0.35-0.09,0.53c-0.02,0.12-0.04,0.23-0.05,0.35c-0.04,0.22-0.07,0.45-0.1,0.67
			c-0.02,0.13-0.04,0.25-0.05,0.39l-0.06,0.5c0.13,0.41,0.27,0.82,0.41,1.22c0.09,0.22,0.15,0.45,0.16,0.69
			c3.08,0.89,6.35,0.91,9.43,0.04c0-0.01,0-0.02,0-0.03c-0.05-0.23-0.06-0.46-0.06-0.69l0,0c0.05-0.64,0.14-1.29,0.26-1.92
			c0.04-0.31,0.06-0.63,0.05-0.94l0-0.11C64.96,193.63,64.95,193.54,64.95,193.45z M64.95,193.45c0-0.1,0-0.2-0.02-0.3
			c-0.02-0.1-0.01-0.19-0.03-0.28s-0.02-0.19-0.03-0.29s-0.03-0.19-0.05-0.29c-0.02-0.1-0.03-0.19-0.05-0.29
			c0-0.03-0.01-0.06-0.02-0.1c-0.03-0.13-0.06-0.25-0.09-0.38s-0.05-0.2-0.08-0.3c0-0.05-0.02-0.09-0.04-0.13
			c-0.01-0.04-0.04-0.15-0.06-0.22l-0.04-0.14c-0.02-0.06-0.04-0.13-0.06-0.19c-0.04-0.11-0.08-0.22-0.12-0.34s-0.08-0.22-0.12-0.33
			c-0.08-0.23-0.18-0.45-0.27-0.67c-0.36-0.87-0.77-1.73-1.14-2.58c-0.2-0.45-0.38-0.9-0.53-1.37l-0.05,0.07
			c-0.08,0.12-0.15,0.24-0.21,0.36c-0.01,1.98-2,4.39-2,4.39l-1.98-2.91l-1.75,2.67c-0.25,0.13-0.5,0.59-0.7,1.24
			c-0.06,0.18-0.11,0.37-0.16,0.57c-0.04,0.14-0.07,0.28-0.1,0.42c-0.02,0.07-0.03,0.15-0.05,0.22l-0.05,0.23l0,0.04
			c-0.03,0.16-0.06,0.32-0.09,0.48c-0.03,0.16-0.06,0.35-0.09,0.53c-0.02,0.12-0.04,0.23-0.05,0.35c-0.04,0.22-0.07,0.45-0.1,0.67
			c-0.02,0.13-0.04,0.25-0.05,0.39l-0.06,0.5c0.13,0.41,0.27,0.82,0.41,1.22c0.09,0.22,0.15,0.45,0.16,0.69
			c3.08,0.89,6.35,0.91,9.43,0.04c0-0.01,0-0.02,0-0.03c-0.05-0.23-0.06-0.46-0.06-0.69l0,0c0.05-0.64,0.14-1.29,0.26-1.92
			c0.04-0.31,0.06-0.63,0.05-0.94l0-0.11C64.96,193.63,64.95,193.54,64.95,193.45z M64.95,193.45c0-0.1,0-0.2-0.02-0.3
			c-0.02-0.1-0.01-0.19-0.03-0.28s-0.02-0.19-0.03-0.29s-0.03-0.19-0.05-0.29c-0.02-0.1-0.03-0.19-0.05-0.29
			c0-0.03-0.01-0.06-0.02-0.1c-0.03-0.13-0.06-0.25-0.09-0.38s-0.05-0.2-0.08-0.3c0-0.05-0.02-0.09-0.04-0.13
			c-0.01-0.04-0.04-0.15-0.06-0.22l-0.04-0.14c-0.02-0.06-0.04-0.13-0.06-0.19c-0.04-0.11-0.08-0.22-0.12-0.34s-0.08-0.22-0.12-0.33
			c-0.08-0.23-0.18-0.45-0.27-0.67c-0.36-0.87-0.77-1.73-1.14-2.58c-0.2-0.45-0.38-0.9-0.53-1.37l-0.05,0.07
			c-0.08,0.12-0.15,0.24-0.21,0.36c-0.01,1.98-2,4.39-2,4.39l-1.98-2.91l-1.75,2.67c-0.25,0.13-0.5,0.59-0.7,1.24
			c-0.06,0.18-0.11,0.37-0.16,0.57c-0.04,0.14-0.07,0.28-0.1,0.42c-0.02,0.07-0.03,0.15-0.05,0.22l-0.05,0.23l0,0.04
			c-0.03,0.16-0.06,0.32-0.09,0.48c-0.03,0.16-0.06,0.35-0.09,0.53c-0.02,0.12-0.04,0.23-0.05,0.35c-0.04,0.22-0.07,0.45-0.1,0.67
			c-0.02,0.13-0.04,0.25-0.05,0.39l-0.06,0.5c0.13,0.41,0.27,0.82,0.41,1.22c0.09,0.22,0.15,0.45,0.16,0.69
			c3.08,0.89,6.35,0.91,9.43,0.04c0-0.01,0-0.02,0-0.03c-0.05-0.23-0.06-0.46-0.06-0.69l0,0c0.05-0.64,0.14-1.29,0.26-1.92
			c0.04-0.31,0.06-0.63,0.05-0.94l0-0.11C64.96,193.63,64.95,193.54,64.95,193.45z M64.95,193.45c0-0.1,0-0.2-0.02-0.3
			c-0.02-0.1-0.01-0.19-0.03-0.28s-0.02-0.19-0.03-0.29s-0.03-0.19-0.05-0.29c-0.02-0.1-0.03-0.19-0.05-0.29
			c0-0.03-0.01-0.06-0.02-0.1c-0.03-0.13-0.06-0.25-0.09-0.38s-0.05-0.2-0.08-0.3c0-0.05-0.02-0.09-0.04-0.13
			c-0.01-0.04-0.04-0.15-0.06-0.22l-0.04-0.14c-0.02-0.06-0.04-0.13-0.06-0.19c-0.04-0.11-0.08-0.22-0.12-0.34s-0.08-0.22-0.12-0.33
			c-0.08-0.23-0.18-0.45-0.27-0.67c-0.36-0.87-0.77-1.73-1.14-2.58c-0.2-0.45-0.38-0.9-0.53-1.37l-0.05,0.07
			c-0.08,0.12-0.15,0.24-0.21,0.36c-0.01,1.98-2,4.39-2,4.39l-1.98-2.91l-1.75,2.67c-0.25,0.13-0.5,0.59-0.7,1.24
			c-0.06,0.18-0.11,0.37-0.16,0.57c-0.04,0.14-0.07,0.28-0.1,0.42c-0.02,0.07-0.03,0.15-0.05,0.22l-0.05,0.23l0,0.04
			c-0.03,0.16-0.06,0.32-0.09,0.48c-0.03,0.16-0.06,0.35-0.09,0.53c-0.02,0.12-0.04,0.23-0.05,0.35c-0.04,0.22-0.07,0.45-0.1,0.67
			c-0.02,0.13-0.04,0.25-0.05,0.39l-0.06,0.5c0.13,0.41,0.27,0.82,0.41,1.22c0.09,0.22,0.15,0.45,0.16,0.69
			c3.08,0.89,6.35,0.91,9.43,0.04c0-0.01,0-0.02,0-0.03c-0.05-0.23-0.06-0.46-0.06-0.69l0,0c0.05-0.64,0.14-1.29,0.26-1.92
			c0.04-0.31,0.06-0.63,0.05-0.94l0-0.11C64.96,193.63,64.95,193.54,64.95,193.45z M64.95,193.45c0-0.1,0-0.2-0.02-0.3
			c-0.02-0.1-0.01-0.19-0.03-0.28s-0.02-0.19-0.03-0.29s-0.03-0.19-0.05-0.29c-0.02-0.1-0.03-0.19-0.05-0.29
			c0-0.03-0.01-0.06-0.02-0.1c-0.03-0.13-0.06-0.25-0.09-0.38s-0.05-0.2-0.08-0.3c0-0.05-0.02-0.09-0.04-0.13
			c-0.01-0.04-0.04-0.15-0.06-0.22l-0.04-0.14c-0.02-0.06-0.04-0.13-0.06-0.19c-0.04-0.11-0.08-0.22-0.12-0.34s-0.08-0.22-0.12-0.33
			c-0.08-0.23-0.18-0.45-0.27-0.67c-0.36-0.87-0.77-1.73-1.14-2.58c-0.2-0.45-0.38-0.9-0.53-1.37l-0.05,0.07
			c-0.08,0.12-0.15,0.24-0.21,0.36c-0.01,1.98-2,4.39-2,4.39l-1.98-2.91l-1.75,2.67c-0.25,0.13-0.5,0.59-0.7,1.24
			c-0.06,0.18-0.11,0.37-0.16,0.57c-0.04,0.14-0.07,0.28-0.1,0.42c-0.02,0.07-0.03,0.15-0.05,0.22l-0.05,0.23l0,0.04
			c-0.03,0.16-0.06,0.32-0.09,0.48c-0.03,0.16-0.06,0.35-0.09,0.53c-0.02,0.12-0.04,0.23-0.05,0.35c-0.04,0.22-0.07,0.45-0.1,0.67
			c-0.02,0.13-0.04,0.25-0.05,0.39l-0.06,0.5c0.13,0.41,0.27,0.82,0.41,1.22c0.09,0.22,0.15,0.45,0.16,0.69
			c3.08,0.89,6.35,0.91,9.43,0.04c0-0.01,0-0.02,0-0.03c-0.05-0.23-0.06-0.46-0.06-0.69l0,0c0.05-0.64,0.14-1.29,0.26-1.92
			c0.04-0.31,0.06-0.63,0.05-0.94l0-0.11C64.96,193.63,64.95,193.54,64.95,193.45z M64.95,193.45c0-0.1,0-0.2-0.02-0.3
			c-0.02-0.1-0.01-0.19-0.03-0.28s-0.02-0.19-0.03-0.29s-0.03-0.19-0.05-0.29c-0.02-0.1-0.03-0.19-0.05-0.29
			c0-0.03-0.01-0.06-0.02-0.1c-0.03-0.13-0.06-0.25-0.09-0.38s-0.05-0.2-0.08-0.3c0-0.05-0.02-0.09-0.04-0.13
			c-0.01-0.04-0.04-0.15-0.06-0.22l-0.04-0.14c-0.02-0.06-0.04-0.13-0.06-0.19c-0.04-0.11-0.08-0.22-0.12-0.34s-0.08-0.22-0.12-0.33
			c-0.08-0.23-0.18-0.45-0.27-0.67c-0.36-0.87-0.77-1.73-1.14-2.58c-0.2-0.45-0.38-0.9-0.53-1.37l-0.05,0.07
			c-0.08,0.12-0.15,0.24-0.21,0.36c-0.01,1.98-2,4.39-2,4.39l-1.98-2.91l-1.75,2.67c-0.25,0.13-0.5,0.59-0.7,1.24
			c-0.06,0.18-0.11,0.37-0.16,0.57c-0.04,0.14-0.07,0.28-0.1,0.42c-0.02,0.07-0.03,0.15-0.05,0.22l-0.05,0.23l0,0.04
			c-0.03,0.16-0.06,0.32-0.09,0.48c-0.03,0.16-0.06,0.35-0.09,0.53c-0.02,0.12-0.04,0.23-0.05,0.35c-0.04,0.22-0.07,0.45-0.1,0.67
			c-0.02,0.13-0.04,0.25-0.05,0.39l-0.06,0.5c0.13,0.41,0.27,0.82,0.41,1.22c0.09,0.22,0.15,0.45,0.16,0.69
			c3.08,0.89,6.35,0.91,9.43,0.04c0-0.01,0-0.02,0-0.03c-0.05-0.23-0.06-0.46-0.06-0.69l0,0c0.05-0.64,0.14-1.29,0.26-1.92
			c0.04-0.31,0.06-0.63,0.05-0.94l0-0.11C64.96,193.63,64.95,193.54,64.95,193.45z M64.95,193.45c0-0.1,0-0.2-0.02-0.3
			c-0.02-0.1-0.01-0.19-0.03-0.28s-0.02-0.19-0.03-0.29s-0.03-0.19-0.05-0.29c-0.02-0.1-0.03-0.19-0.05-0.29
			c0-0.03-0.01-0.06-0.02-0.1c-0.03-0.13-0.06-0.25-0.09-0.38s-0.05-0.2-0.08-0.3c0-0.05-0.02-0.09-0.04-0.13
			c-0.01-0.04-0.04-0.15-0.06-0.22l-0.04-0.14c-0.02-0.06-0.04-0.13-0.06-0.19c-0.04-0.11-0.08-0.22-0.12-0.34s-0.08-0.22-0.12-0.33
			c-0.08-0.23-0.18-0.45-0.27-0.67c-0.36-0.87-0.77-1.73-1.14-2.58c-0.2-0.45-0.38-0.9-0.53-1.37l-0.05,0.07
			c-0.08,0.12-0.15,0.24-0.21,0.36c-0.01,1.98-2,4.39-2,4.39l-1.98-2.91l-1.75,2.67c-0.25,0.13-0.5,0.59-0.7,1.24
			c-0.06,0.18-0.11,0.37-0.16,0.57c-0.04,0.14-0.07,0.28-0.1,0.42c-0.02,0.07-0.03,0.15-0.05,0.22l-0.05,0.23l0,0.04
			c-0.03,0.16-0.06,0.32-0.09,0.48c-0.03,0.16-0.06,0.35-0.09,0.53c-0.02,0.12-0.04,0.23-0.05,0.35c-0.04,0.22-0.07,0.45-0.1,0.67
			c-0.02,0.13-0.04,0.25-0.05,0.39l-0.06,0.5c0.13,0.41,0.27,0.82,0.41,1.22c0.09,0.22,0.15,0.45,0.16,0.69
			c3.08,0.89,6.35,0.91,9.43,0.04c0-0.01,0-0.02,0-0.03c-0.05-0.23-0.06-0.46-0.06-0.69l0,0c0.05-0.64,0.14-1.29,0.26-1.92
			c0.04-0.31,0.06-0.63,0.05-0.94l0-0.11C64.96,193.63,64.95,193.54,64.95,193.45z M64.95,193.45c0-0.1,0-0.2-0.02-0.3
			c-0.02-0.1-0.01-0.19-0.03-0.28s-0.02-0.19-0.03-0.29s-0.03-0.19-0.05-0.29c-0.02-0.1-0.03-0.19-0.05-0.29
			c0-0.03-0.01-0.06-0.02-0.1c-0.03-0.13-0.06-0.25-0.09-0.38s-0.05-0.2-0.08-0.3c0-0.05-0.02-0.09-0.04-0.13
			c-0.01-0.04-0.04-0.15-0.06-0.22l-0.04-0.14c-0.02-0.06-0.04-0.13-0.06-0.19c-0.04-0.11-0.08-0.22-0.12-0.34s-0.08-0.22-0.12-0.33
			c-0.08-0.23-0.18-0.45-0.27-0.67c-0.36-0.87-0.77-1.73-1.14-2.58c-0.2-0.45-0.38-0.9-0.53-1.37l-0.05,0.07
			c-0.08,0.12-0.15,0.24-0.21,0.36c-0.01,1.98-2,4.39-2,4.39l-1.98-2.91l-1.75,2.67c-0.25,0.13-0.5,0.59-0.7,1.24
			c-0.06,0.18-0.11,0.37-0.16,0.57c-0.04,0.14-0.07,0.28-0.1,0.42c-0.02,0.07-0.03,0.15-0.05,0.22l-0.05,0.23l0,0.04
			c-0.03,0.16-0.06,0.32-0.09,0.48c-0.03,0.16-0.06,0.35-0.09,0.53c-0.02,0.12-0.04,0.23-0.05,0.35c-0.04,0.22-0.07,0.45-0.1,0.67
			c-0.02,0.13-0.04,0.25-0.05,0.39l-0.06,0.5c0.13,0.41,0.27,0.82,0.41,1.22c0.09,0.22,0.15,0.45,0.16,0.69
			c3.08,0.89,6.35,0.91,9.43,0.04c0-0.01,0-0.02,0-0.03c-0.05-0.23-0.06-0.46-0.06-0.69l0,0c0.05-0.64,0.14-1.29,0.26-1.92
			c0.04-0.31,0.06-0.63,0.05-0.94l0-0.11C64.96,193.63,64.95,193.54,64.95,193.45z"/>
		<path class="st13" d="M58,186.99l-0.17-0.02c-0.25-0.04-0.51-0.09-0.75-0.15l-0.09-0.03c-0.61-0.18-1.28-0.49-1.43-1.04
			c-0.04-0.18-0.04-0.36,0.02-0.53c0.09-0.3,0.2-0.59,0.35-0.86l0-0.02c0.02-0.04,0.04-0.08,0.06-0.11c0.21-0.4,0.52-0.74,0.91-0.98
			l-0.3,0.05l0,0l-2.55,0.4l-3.96,0.62c0,0-0.7-0.14-1.67,2.49c0,0.03-0.02,0.06-0.03,0.1c-0.23,0.64-0.48,1.45-0.74,2.46
			c-0.18,0.7-0.34,1.38-0.49,2.05c-0.04,0.2-0.09,0.4-0.13,0.59c0.45,0.54,0.94,1.04,1.45,1.51l0.08,0.08
			c1.01,0.92,2.13,1.73,3.34,2.38l0.05,0.03c0.76,0.41,1.54,0.77,2.36,1.06l0.21,0.08c0.05-0.46,0.1-0.98,0.16-1.51
			c0-0.05,0-0.11,0.02-0.16l0.06-0.5c0.02-0.13,0.03-0.25,0.05-0.39c0.03-0.22,0.06-0.45,0.1-0.67c0.02-0.12,0.03-0.23,0.05-0.35
			c0.03-0.18,0.06-0.36,0.09-0.53c0.03-0.17,0.06-0.32,0.09-0.48l0-0.04l0.05-0.23c0.02-0.08,0.03-0.15,0.05-0.22
			c0.03-0.14,0.06-0.29,0.1-0.42c0.05-0.2,0.1-0.39,0.16-0.57c0.2-0.65,0.44-1.11,0.7-1.24l1.75-2.67l0.07-0.11l0.03-0.05L58,186.99
			z"/>
		<path class="st16" d="M57.85,186.99l-1.86,2.84c-0.25,0.13-0.49,0.57-0.69,1.2c-0.06,0.19-0.12,0.39-0.17,0.6
			c-0.25,1.08-0.45,2.18-0.58,3.29c0,0.05,0,0.1-0.02,0.15c-0.09,0.7-0.16,1.38-0.22,1.99c-0.81-0.29-1.6-0.64-2.36-1.06l-0.05-0.03
			c-1.2-0.66-2.32-1.46-3.34-2.38l-0.08-0.08c-0.52-0.47-1-0.98-1.45-1.51c-0.06-0.07-0.12-0.14-0.17-0.21
			c0.03-0.13,0.06-0.25,0.09-0.39c0.15-0.67,0.31-1.35,0.48-2.04c0.23-0.95,0.52-1.89,0.87-2.81c0.01-0.03,0.02-0.05,0.03-0.08
			c0.9-2.28,1.54-2.15,1.54-2.15l4.18-0.65l2.64-0.42l-0.08,0.05l0,0c-0.29,0.21-0.54,0.47-0.73,0.77l-0.07,0.12
			c-0.03,0.05-0.06,0.1-0.09,0.15c-0.15,0.28-0.27,0.57-0.35,0.88c-0.08,0.24-0.06,0.5,0.06,0.72c0.25,0.49,0.96,0.76,1.55,0.91
			l0.1,0.03C57.32,186.92,57.58,186.96,57.85,186.99z"/>
		<path class="st13" d="M72.35,192.13l-0.09-2.23c0.45-3.51-0.42-3.74-0.42-3.74l-1.04-0.51l-0.03,0l-4.19-2.06l-0.16-0.08
			l-0.05-0.02l0,0l-0.55-0.27l0,0l-0.35-0.17l-0.65-0.32l-0.22-0.11c0,0,0,0.04,0,0.12c0,0.08,0,0.29,0,0.54c0,0.07,0,0.14,0,0.22
			c0,0.25,0.02,0.55,0.04,0.89c0.04,0.86,0.12,2.01,0.26,3.37c0.08,0.79,0.18,1.65,0.31,2.57c0.08,0.55,0.13,1.09,0.16,1.62
			c0.11,1.79,0.04,3.58-0.19,5.35l0.23-0.07c0.62-0.2,1.23-0.45,1.82-0.72l0,0c1.15-0.53,2.24-1.2,3.25-1.98l0.05-0.03
			c0.65-0.5,1.26-1.05,1.83-1.65L72.35,192.13z"/>
		<path class="st16" d="M72.57,192.13l-0.09-2.24c0.45-3.51-0.42-3.74-0.42-3.74l-1.25-0.61l-0.03,0l-4.21-2.06l-0.19-0.09
			l-0.04-0.02l-0.31-0.15l-0.41-0.2l-0.81-0.4l0,0.11c0,0.06,0,0.14,0,0.25l0,0c0,0.07,0,0.14,0,0.22c0,0.08,0,0.14,0,0.22
			c0,0.25,0.02,0.58,0.04,0.95c0.04,0.8,0.11,1.85,0.24,3.1c0.09,0.86,0.2,1.81,0.34,2.83c0.07,0.55,0.13,1.09,0.16,1.63
			c0.1,1.76,0.04,3.53-0.18,5.27c0.62-0.2,1.23-0.45,1.82-0.72l0,0c1.15-0.53,2.24-1.2,3.25-1.98l0.05-0.03
			c0.65-0.5,1.26-1.05,1.83-1.65c0.07-0.07,0.14-0.15,0.21-0.23L72.57,192.13z"/>
		<path class="st13" d="M58.48,173.61c0.78-0.13,1.57-0.41,2.35-0.24c0.65,0.14,1.2,0.58,1.79,0.88c0.58,0.29,1.21,0.46,1.85,0.5
			c0.24,0.03,0.47-0.01,0.68-0.13c0.31-0.21,0.36-0.66,0.31-1.03c-0.15-1.07-0.81-1.99-1.49-2.83c-0.27-0.36-0.59-0.68-0.94-0.96
			c-0.9-0.67-2.09-0.79-3.21-0.74c-1.28,0.05-2.57,0.29-3.68,0.93c-0.76,0.43-2.49,1.78-1.89,2.77
			C54.87,173.78,57.49,173.78,58.48,173.61z"/>
		<path class="st14" d="M58.48,173.36c0.78-0.13,1.57-0.41,2.35-0.24c0.65,0.14,1.2,0.58,1.79,0.88c0.58,0.29,1.21,0.46,1.85,0.5
			c0.24,0.03,0.47-0.01,0.68-0.13c0.31-0.21,0.36-0.66,0.31-1.03c-0.15-1.07-0.81-1.99-1.49-2.83c-0.27-0.36-0.59-0.68-0.94-0.96
			c-0.9-0.67-2.09-0.79-3.21-0.74c-1.28,0.05-2.57,0.29-3.68,0.93c-0.76,0.43-2.49,1.78-1.89,2.77
			C54.87,173.53,57.49,173.53,58.48,173.36z"/>
	</g>
	
		<linearGradient id="SVGID_4_" gradientUnits="userSpaceOnUse" x1="142.3107" y1="89.129" x2="142.3107" y2="225.5306" gradientTransform="matrix(1 4.361738e-03 -4.361738e-03 1 6.2943 1.9615)">
		<stop  offset="0" style="stop-color:#808080;stop-opacity:0.25"/>
		<stop  offset="0.54" style="stop-color:#808080;stop-opacity:0.12"/>
		<stop  offset="1" style="stop-color:#808080;stop-opacity:0.1"/>
	</linearGradient>
	<path class="st17" d="M127.51,161.36l0.04,0c0.05,1.68,0.28,3.21,0.74,3.63c1.09,1.01,5.64-0.98,5.33-2.2
		c-0.06-0.25-0.17-0.66-0.3-1.18c1.23-0.15,2.28-0.49,2.7-1.21l0.78,2.43l0.05,0.17l0.02,0l0.05,0c0.5,4.93,1.63,15.17,2.57,16.54
		c1.25,1.82,2.66,9.7,2.66,9.7l2.63,16.16c0,0,1,9.3,1.62,10.31c0.18,0.19,0.42,0.32,0.68,0.36c-0.37,1.09-0.9,2.36-1.52,3.07
		c-1.26,1.41-2.93,4.22-4.38,4.02c-1.45-0.21-1.88,2.82,0.82,3.23c1.49,0.23,3.88-0.03,5.71-0.31c0,0.81,0.56,1.74,1.97,1.96
		c2.7,0.42,8.31-0.77,8.31-0.77s4.78-1.99,5-3.41c0.16-1.03-0.56-5.17-0.96-7.34c0.76-1.2,0-11.63,0-11.63l-1.37-19.98
		c0,0,0.88-11.09,0.06-13.12c-0.51-1.26-0.68-7.04-0.74-11.17l1,0.07c0.06-0.07,0.11-0.14,0.16-0.22l0.25,0.02
		c0,0,1.26-1.41,0.22-3.63c-0.76-1.65-0.59-9.1-0.45-12.81l0,0l0.16-1.76c0.06-0.05,0.1-0.12,0.12-0.19
		c1.95-0.25,3.85-0.82,5.62-1.67c0.53-0.22,1.03-0.52,1.48-0.89c1.04-1,0.45-7.06-1.59-16.15c-2.04-9.09-3.91-8.29-3.91-8.29
		s-4.98-0.43-7.26-3.46s-3.81-3-3.81-3l0,0c-0.06-0.4-0.09-0.77-0.12-1.12c0-0.13-0.02-0.25-0.03-0.38
		c0.78-0.72,1.38-1.62,1.74-2.61c0.47-0.25,1.04-0.33,1.49-0.64c0.11-0.08,0.22-0.18,0.31-0.29c0.45-0.41,0.74-0.97,0.81-1.58
		c0.07-0.66,0.05-1.33-0.08-1.98c-0.15-0.97-0.38-1.95-0.94-2.71c-0.56-0.76-1.4-1.22-2.21-1.65c-2.19-1.16-4.39-2.31-6.59-3.45
		c-0.43-0.27-0.91-0.44-1.41-0.51c-0.88-0.05-1.68,0.55-2.4,1.12c-0.29,0.22-0.56,0.46-0.82,0.71c-0.22,0.19-0.42,0.41-0.6,0.64
		c-0.84,1.11-1.2,3.22-0.84,4.62c0.11,0.44,0.36,0.57,0.67,0.57c-0.46,0.9-0.7,1.9-0.7,2.91c0,2.25,1.15,4.35,3.04,5.56
		c0,0.14,0,0.28,0.01,0.41c0.01,0.52-0.01,1.03-0.06,1.54c0,0-5.54,2.96-6.17,4.37c-0.63,1.41-2.92,2.41-2.92,2.41
		s-4.37,2.2-4.41,10.07l-2.33,11.09l-0.51,21.19c0,0,0.29-0.25,0.76-0.6c-0.02,0.14-0.03,0.29-0.04,0.43
		c-0.07,0.81-0.09,1.62-0.07,2.43L127.51,161.36z M155.18,216.32c-0.09,0.32-0.21,0.75-0.37,1.25c-0.07-0.42-0.14-0.83-0.21-1.22
		C154.78,216.34,154.97,216.33,155.18,216.32L155.18,216.32z"/>
	<path class="st18" d="M147.64,213.69c0,0-0.82,3.6-2.03,4.99c-1.21,1.39-2.81,4.19-4.2,3.98s-1.81,2.79,0.79,3.2
		s7.99-0.76,7.99-0.76s4.61-1.99,4.81-3.38c0.2-1.39-1.16-8.61-1.16-8.61L147.64,213.69z"/>
	<path class="st19" d="M147.64,213.69c0,0-0.82,3.6-2.03,4.99c-1.21,1.39-2.81,4.19-4.2,3.98s-1.81,2.79,0.79,3.2
		s7.99-0.76,7.99-0.76s4.61-1.99,4.81-3.38c0.2-1.39-1.16-8.61-1.16-8.61L147.64,213.69z"/>
	<path class="st18" d="M155.04,215.32c0,0-0.82,3.6-2.03,4.99c-1.21,1.39-2.82,4.19-4.21,3.98c-1.39-0.21-1.81,2.79,0.79,3.2
		c2.6,0.41,8.01-0.77,8.01-0.77s4.61-1.99,4.81-3.38c0.2-1.39-1.16-8.61-1.16-8.61L155.04,215.32z"/>
	<path class="st20" d="M137.07,160.43c0,0,1.52,17.21,2.72,19.02c1.19,1.81,2.56,9.61,2.56,9.61l2.53,16.01
		c0,0,0.96,9.21,1.56,10.21c0.59,1,8.02,0.61,8.02,0.61l-4.39-53L137.07,160.43z"/>
	<path class="st19" d="M137.07,160.43c0,0,1.52,17.21,2.72,19.02c1.19,1.81,2.56,9.61,2.56,9.61l2.53,16.01
		c0,0,0.96,9.21,1.56,10.21c0.59,1,8.02,0.61,8.02,0.61l-4.39-53L137.07,160.43z"/>
	<path class="st20" d="M133.91,152.21l0.52,1.66l2.79,8.98l0.05,0.17l0.02,0c0.38,0.09,8.38,1.96,10.1,2.54
		c0.09,0.03,0.18,0.06,0.27,0.1c0.8,0.4,1.74,14.81,1.74,14.81s0.54,13.61,0.94,14.61c0.4,1,1.92,21.61,2.91,21.02
		s8.2,0.04,8.2,0.04c0.8-0.8,0.05-11.6,0.05-11.6l-1.34-19.81c0,0,0.85-11,0.06-13c-0.79-2.01-0.73-15.41-0.73-15.41l-16.36-2.63
		l-1.58-0.26L133.91,152.21z"/>
	<path class="st21" d="M134.42,153.87l2.79,8.98l0.07,0.18c0.38,0.09,8.38,1.96,10.1,2.54l0.17,0l-4.42-11.88l-0.13-0.34l-1.45,0.09
		L134.42,153.87z"/>
	<path class="st13" d="M153.29,112.29c0,0-7.44,7.97-12.01,1.35l-4.41,2.98l0.78,4.61l-2.75,34.79c0,0,6.8-0.17,11.6,1.45
		c2.73,0.98,5.77,0.29,7.81-1.77l-0.66-30.61l1.84-9.39L153.29,112.29z"/>
	<path class="st18" d="M153.29,111.69c0,0-7.44,7.97-12.01,1.35l-4.41,2.98l0.78,4.61l-2.75,34.79c0,0,6.8-0.17,11.6,1.45
		c2.73,0.98,5.77,0.29,7.81-1.77l-0.66-30.61l1.84-9.39L153.29,111.69z"/>
	<g id="b7475575-9269-4b4a-a721-bb0a166a2f3e_1_">
		<g id="_x35_bdc843c-f8f1-42c9-9268-9744bdec504e_1_">
			<polyline id="_x36_bc746a9-2d5c-4457-b327-3c896c91b9d0_1_" class="st22" points="138.36,147.26 138.35,148.52 137.95,148.52 
				137.95,147.68 136.48,147.67 136.48,148.51 136.08,148.51 136.08,147.25 138.36,147.26 			"/>
			<path id="d39c551f-7962-48ac-bd52-1b7ff04213b0_1_" class="st22" d="M138,146.85l-1.55-0.01c-0.21-0.05-0.37-0.21-0.42-0.42
				l2.39,0.01C138.37,146.64,138.2,146.8,138,146.85"/>
		</g>
		<g id="_x33_38417f9-9740-4f15-9fb5-4758cf3f6efe_1_">
			<path id="a3b10f10-7568-4e16-9739-cab30d2da761_1_" class="st22" d="M152.04,146.51c-0.05,0.2-0.22,0.36-0.42,0.41l-0.65,0
				l-0.03,0.01l-0.01,1.65l-0.4,0l0.01-1.65l-0.04-0.01l-0.65,0c-0.2-0.05-0.36-0.21-0.42-0.42l0,0L152.04,146.51L152.04,146.51"/>
		</g>
	</g>
	<path class="st23" d="M137.7,153.03c0,0-0.02,5.2-1.23,7.4s-8.21,0.97-8.21,0.97l1.43-7.4L137.7,153.03z"/>
	<path class="st24" d="M129.01,165c1.05,1.01,5.43-0.98,5.14-2.18c-0.21-0.85-0.93-3.88-1.34-5.6l-0.29-1.21
		c0,0-2.56-0.81-3.47-0.02c-0.33,0.29-0.57,1.44-0.68,2.82C128.17,161.23,128.35,164.36,129.01,165z"/>
	<path class="st24" d="M138.86,115.22l6.98,5.43c0,0,10.4-0.55,7.83-5.57c-1.12-2.2-1.79-4.61-1.98-7.08
		c-0.08-0.91-0.08-1.83,0.01-2.74c0,0-9.56-8.83-8.41,1.16c0.09,0.77,0.14,1.54,0.16,2.31
		C143.56,116.25,138.86,115.22,138.86,115.22z"/>
	<path class="st13" d="M143.31,106.44c0.09,0.77,0.14,1.54,0.16,2.31c1.07,0.72,2.34,1.1,3.63,1.11c1.79,0.01,3.12-1.73,4.31-2.88
		c-0.13-1.66,0.31-1.7,0.31-1.7S142.15,96.43,143.31,106.44z"/>
	
		<ellipse transform="matrix(4.362504e-03 -1 1 4.362504e-03 43.6263 249.5341)" class="st24" cx="147.13" cy="102.86" rx="6.6" ry="6.6"/>
	<path class="st13" d="M151.8,109.18c0,0,1.1,0.11,3.29,3.11c2.19,3.01,6.99,3.43,6.99,3.43s1.8-0.79,3.76,8.22
		c1.96,9.01,2.53,15.01,1.53,16.01c-1,1-5.01,2.38-7.02,2.37c0,0-0.66,12.6,0.33,14.8c0.99,2.2-0.22,3.6-0.22,3.6l-8.79-0.64
		c0,0-2.99-3.81-3.56-10.42s-2.49-25.42-1.48-27.61c1.01-2.2,5.43-7.78,5.24-8.38C151.68,113.08,151.8,109.18,151.8,109.18z"/>
	<path class="st23" d="M151.82,109.12c0,0,1.48-0.03,3.67,2.98c2.19,3.01,6.98,3.43,6.98,3.43s1.8-0.79,3.76,8.22
		s2.53,15.01,1.53,16.01s-5.01,2.38-7.01,2.37c0,0-0.66,12.6,0.33,14.8c0.99,2.2-0.22,3.6-0.22,3.6l-8.79-0.64
		c0,0-2.99-3.81-3.56-10.42c-0.57-6.6-2.49-25.42-1.48-27.6c1.01-2.19,5.43-7.78,5.24-8.38
		C152.09,112.89,151.82,109.12,151.82,109.12z"/>
	<path class="st13" d="M128.37,158.82c0.96-0.73,2.77-1.86,4.43-1.6l-0.29-1.21c0,0-2.56-0.81-3.47-0.02
		C128.72,156.28,128.48,157.43,128.37,158.82z"/>
	<path class="st13" d="M143.4,110.34c0,0-5.12,3.28-5.72,4.68c-0.61,1.4-2.81,2.39-2.81,2.39s-4.21,2.18-4.24,9.98l-2.25,10.99
		l9.94,14.05c0,0,1.26-14,1.88-17.4c0.62-3.4,1.44-9.79,1.44-9.79s3.02-3.79,2.62-4.79C143.86,119.46,143.4,110.34,143.4,110.34z"/>
	<path class="st23" d="M143.4,110.28c0,0-5.33,2.94-5.94,4.33s-2.81,2.39-2.81,2.39s-4.21,2.18-4.24,9.98l-2.25,10.99l-0.49,21
		c0,0,3.62-3.39,6.21-1.77c2.59,1.61,4.22-5.18,4.22-5.18s1.26-14,1.88-17.4c0.62-3.4,1.44-9.79,1.44-9.79s3.02-3.79,2.62-4.79
		S143.4,110.28,143.4,110.28z"/>
	<path class="st13" d="M141.37,94.8c0.34-0.43,0.73-0.81,1.17-1.15c0.69-0.57,1.45-1.16,2.31-1.11c0.48,0.07,0.95,0.23,1.36,0.49
		c2.12,1.13,4.24,2.27,6.35,3.42c0.78,0.43,1.58,0.88,2.13,1.64c0.54,0.76,0.76,1.74,0.91,2.69c0.13,0.65,0.15,1.31,0.08,1.96
		c-0.07,0.64-0.38,1.23-0.88,1.65c-0.57,0.41-1.35,0.41-1.83,0.95c-0.28,0.31-0.4,0.75-0.6,1.13c-0.2,0.38-0.54,0.75-0.92,0.68
		c-0.39-0.07-0.62-0.48-0.67-0.89c-0.02-0.42,0-0.84,0.08-1.26c0.08-0.75-0.01-1.55-0.45-2.11c-0.3-0.38-0.73-0.62-1.02-1.01
		c-0.69-0.95-0.37-2.51-1.13-3.4c-0.45-0.47-1.12-0.67-1.76-0.51c-0.62,0.13-1.19,0.46-1.76,0.75c-0.77,0.39-1.58,0.69-2.41,0.92
		c-0.7,0.19-1.51,0.64-1.74-0.29C140.21,97.99,140.56,95.91,141.37,94.8z"/>
	<path class="st25" d="M141.57,94.61c0.34-0.43,0.73-0.81,1.17-1.15c0.69-0.57,1.45-1.16,2.31-1.11c0.48,0.07,0.95,0.23,1.36,0.49
		c2.12,1.13,3.89,0.08,6.35,3.42c0.52,0.72,1.58,0.88,2.13,1.64s0.76,1.74,0.91,2.69c0.13,0.65,0.15,1.31,0.08,1.96
		c-0.07,0.64-0.38,1.23-0.88,1.65c-0.57,0.41-1.35,0.41-1.83,0.95c-0.28,0.31-0.4,0.75-0.6,1.13c-0.2,0.38-0.54,0.75-0.92,0.68
		c-0.39-0.07-0.62-0.48-0.67-0.89c-0.02-0.42,0-0.84,0.08-1.26c0.08-0.75-0.01-1.55-0.45-2.11c-0.3-0.38-0.73-0.62-1.02-1.01
		c-0.69-0.95-0.37-2.51-1.13-3.4c-0.45-0.47-1.12-0.67-1.76-0.51c-0.62,0.13-1.19,0.46-1.76,0.75c-0.77,0.39-1.58,0.69-2.41,0.92
		c-0.7,0.19-1.51,0.64-1.74-0.29C140.41,97.8,140.76,95.71,141.57,94.61z"/>
	<path class="st13" d="M159.46,125.21c0,0,2.64,6.81,0.62,9.61l-4.4-1.02c0,0,4,1.22,3.41-1.19
		C158.51,130.21,159.46,125.21,159.46,125.21z"/>
	<path class="st13" d="M160.85,142.03c0,0-5.8,0.37-7.4-0.83c2.1,1.62,4.58,2.66,7.21,3.03L160.85,142.03z"/>
	<path class="st13" d="M135.91,129.11c0,0-3.04,9.19-2.85,10.59c0.19,1.4,0.53,16.81,0.53,16.81l0.6-0.2l-0.13-16.8L135.91,129.11z"
		/>
	
		<linearGradient id="SVGID_5_" gradientUnits="userSpaceOnUse" x1="85.9873" y1="21.2663" x2="85.9873" y2="150.2239" gradientTransform="matrix(1 4.361738e-03 -4.361738e-03 1 6.2943 1.9615)">
		<stop  offset="0" style="stop-color:#808080;stop-opacity:0.25"/>
		<stop  offset="0.54" style="stop-color:#808080;stop-opacity:0.12"/>
		<stop  offset="1" style="stop-color:#808080;stop-opacity:0.1"/>
	</linearGradient>
	<path class="st26" d="M161.56,140.47L93.23,84.91c-0.8-0.81-1.89-1.27-3.03-1.27l-2.91-0.01c12.7-16.13,9.92-39.5-6.21-52.21
		s-39.5-9.92-52.21,6.21s-9.92,39.5,6.21,52.21c13.4,10.55,32.25,10.63,45.74,0.2l-0.01,2.91c-0.01,1.14,0.44,2.24,1.24,3.04
		l68.33,55.56c1.65,1.68,4.36,1.7,6.04,0.05c0.01-0.01,0.02-0.02,0.02-0.02l5.08-5.03C163.2,144.88,163.22,142.16,161.56,140.47z
		 M57.95,83.5C45.31,83.45,35.1,73.15,35.16,60.51c0.06-12.64,10.35-22.85,22.99-22.79C70.79,37.77,81,48.06,80.94,60.71
		c0,0,0,0,0,0c-0.05,12.64-10.33,22.84-22.96,22.8C57.97,83.51,57.96,83.51,57.95,83.5L57.95,83.5z"/>
	<path class="st6" d="M162.06,139.97L93.73,84.41c-0.8-0.81-1.89-1.27-3.03-1.27l-2.91-0.01c12.7-16.13,9.92-39.5-6.21-52.21
		S42.07,21,29.37,37.13s-9.92,39.5,6.21,52.21c13.4,10.55,32.25,10.63,45.74,0.2l-0.01,2.91c-0.01,1.14,0.44,2.24,1.24,3.04
		l68.33,55.56c1.65,1.68,4.36,1.7,6.04,0.05c0.01-0.01,0.02-0.02,0.02-0.02l5.08-5.03C163.71,144.38,163.73,141.66,162.06,139.97z
		 M58.46,83c-12.64-0.06-22.85-10.35-22.79-22.99c0.06-12.64,10.35-22.85,22.99-22.79S81.5,47.56,81.45,60.21v0
		c-0.05,12.64-10.33,22.84-22.96,22.8C58.48,83.01,58.47,83.01,58.46,83L58.46,83z"/>
	<path class="st24" d="M156.99,134.91c0,0-9.96-11.52-8.59-3.64c0.98,5.61,4.76,8.62,6.56,9.23
		C156.76,141.11,156.99,134.91,156.99,134.91z"/>
	<path class="st23" d="M159.44,124.32c0,0,0.17,7.4,1.16,8.41c1,1-0.61,2.2-0.61,2.2l-4-1.02c0,0,0.98,6.61-3.23,5.79
		c0,0,2.79,2.61,5.59,3.03c2.8,0.41,2.6-0.59,2.6-0.59l4.22-4.98L159.44,124.32z"/>
	<polygon class="st23" points="160.47,142.23 164.53,141.36 163.99,139.48 161.49,138.47 158.21,139.96 	"/>
	<path class="st5" d="M42.34,59.83c-0.02,3.69,1.16,7.3,3.37,10.26c0.22,0.3,0.45,0.59,0.7,0.87c0.13,0.15,0.26,0.31,0.4,0.45
		c0.07,0.08,0.14,0.15,0.21,0.23c0.56,0.6,1.17,1.15,1.82,1.66l0.05,0.03c1,0.79,2.08,1.46,3.23,2l0,0c0.59,0.28,1.2,0.53,1.82,0.74
		l0.23,0.07c0.14,0.05,0.29,0.09,0.43,0.13l0.06,0.02c0.07,0.02,0.15,0.04,0.22,0.06c1.46,0.4,2.96,0.61,4.48,0.61
		c0.25,0,0.51,0,0.77-0.01c1.34-0.05,2.67-0.26,3.96-0.63l0.03,0c0.24-0.07,0.48-0.14,0.71-0.22l0.03,0l0.21-0.07
		c0.81-0.28,1.61-0.63,2.37-1.03l0.05-0.02c0.08-0.04,0.17-0.09,0.25-0.14c1.12-0.62,2.16-1.36,3.11-2.22l0.08-0.08
		c0.52-0.47,1.01-0.97,1.47-1.5l0.05-0.06c0.04-0.05,0.08-0.1,0.12-0.15c0.11-0.13,0.22-0.27,0.32-0.4
		c5.82-7.43,4.51-18.16-2.92-23.98s-18.16-4.51-23.98,2.92C43.64,52.36,42.36,56.04,42.34,59.83z"/>
	
		<linearGradient id="SVGID_6_" gradientUnits="userSpaceOnUse" x1="-3819.0215" y1="153.3779" x2="-3819.0215" y2="183.6982" gradientTransform="matrix(-1 -4.361738e-03 4.361738e-03 -1 -3760.605 213.6733)">
		<stop  offset="0" style="stop-color:#808080;stop-opacity:0.25"/>
		<stop  offset="0.54" style="stop-color:#808080;stop-opacity:0.12"/>
		<stop  offset="1" style="stop-color:#808080;stop-opacity:0.1"/>
	</linearGradient>
	<path class="st27" d="M48.23,65.34c0,0,3.71-0.3,5.41-2.65c1.67-2.29,2.79-2.31,2.85-2.31l0,0c0.04-0.31,0.08-0.6,0.1-0.87
		c0,0,0-0.03,0-0.04c-0.07,0.05-0.15,0.09-0.23,0.1c-0.33,0.05-0.62-0.27-0.79-0.6c-0.13-0.35-0.29-0.68-0.5-0.99
		c-0.41-0.47-1.08-0.48-1.56-0.84c-0.43-0.36-0.7-0.88-0.75-1.44c-0.03-0.21-0.03-0.42-0.03-0.63c-0.01-0.45,0.03-0.9,0.11-1.34
		c0.13-0.83,0.33-1.68,0.8-2.34c0.47-0.65,1.38-0.79,1.83-1.41c2.13-2.89,3.64-1.97,5.46-2.93c0.35-0.22,0.75-0.36,1.17-0.42
		c0.73-0.04,1.38,0.49,1.97,0.99c0.37,0.29,0.71,0.63,1,1.01c0.52,0.74,0.81,1.97,0.78,3.05c0.01,0.4-0.03,0.8-0.12,1.19
		c-0.15,0.58-0.54,0.54-0.97,0.41c1.09,2.33,0.33,5.1-1.8,6.54c0,0.09,0,0.18,0,0.26c0,0.02,0,0.04,0,0.06c-0.01,0.4,0,0.8,0.03,1.2
		c0.04,0.02,4.09,2.34,4.55,3.44c0.45,1.09,2.15,1.89,2.15,1.89s1.87,1.01,2.74,4.17l-0.05,0.06c-0.45,0.54-0.94,1.05-1.47,1.53
		l-0.08,0.08c-0.95,0.86-1.99,1.62-3.11,2.25c-0.08,0.05-0.16,0.09-0.25,0.14l-0.05,0.02c-0.76,0.41-1.55,0.76-2.37,1.05l-0.21,0.08
		l-0.03,0c-0.23,0.08-0.47,0.15-0.71,0.22l-0.03,0c-1.29,0.37-2.62,0.59-3.96,0.64c-0.25,0.01-0.5,0.02-0.77,0.01
		c-1.51,0-3.01-0.2-4.46-0.6c-0.08-0.02-0.15-0.04-0.22-0.06l-0.06-0.02c-0.14-0.04-0.29-0.09-0.43-0.13l-0.23-0.07
		c-0.62-0.21-1.23-0.47-1.82-0.75l0,0c-1.15-0.55-2.24-1.24-3.23-2.04l-0.05-0.03c-0.65-0.52-1.25-1.08-1.82-1.69
		c-0.07-0.07-0.14-0.15-0.21-0.23c-0.14-0.15-0.27-0.31-0.4-0.46c-0.25-0.29-0.47-0.58-0.7-0.89
		C47.09,64.82,48.23,65.34,48.23,65.34z"/>
	<path class="st24" d="M61.02,69.61l5.42-4.14c0,0-3.62,0.76-3.49-5.02c0-0.02,0-0.04,0-0.06c0-0.52,0.06-1.09,0.13-1.73
		c0.96-7.71-6.48-0.96-6.48-0.96c0.06,0.68,0.06,1.37-0.01,2.05c0,0.02,0,0.04,0,0.06c-0.15,1.9-0.69,3.75-1.57,5.45
		C53,69.11,61.02,69.61,61.02,69.61z"/>
	<path class="st13" d="M57.29,58.69c0.91,0.9,1.47,2.52,2.84,2.52c1,0.01,1.98-0.28,2.81-0.83c0-0.52,0.06-1.09,0.13-1.73
		c0.96-7.71-6.48-0.96-6.48-0.96S57.39,57.43,57.29,58.69z"/>
	<circle class="st24" cx="60.15" cy="55.86" r="5.09"/>
	<path class="st13" d="M65.07,49.36c-0.29-0.37-0.63-0.7-1-0.99c-0.59-0.49-1.24-1.01-1.97-0.97c-0.41,0.05-0.81,0.19-1.17,0.41
		c-1.83,0.95-3.33,0.04-5.46,2.88c-0.45,0.61-1.36,0.75-1.83,1.39c-0.47,0.64-0.66,1.48-0.8,2.3c-0.11,0.55-0.14,1.12-0.09,1.68
		c0.05,0.55,0.32,1.06,0.75,1.41c0.49,0.36,1.16,0.36,1.56,0.83c0.2,0.3,0.37,0.63,0.5,0.97c0.16,0.33,0.45,0.64,0.79,0.59
		c0.33-0.05,0.53-0.4,0.58-0.75c0.02-0.36,0-0.72-0.06-1.07c-0.06-0.64,0.02-1.33,0.4-1.81c0.25-0.33,0.63-0.52,0.88-0.86
		c0.6-0.8,0.34-2.16,0.99-2.9c0.39-0.4,0.97-0.56,1.51-0.41c0.53,0.15,1.03,0.37,1.5,0.65c0.66,0.34,1.35,0.61,2.06,0.81
		c0.6,0.17,1.29,0.56,1.5-0.24C66.04,52.1,65.75,50.31,65.07,49.36z"/>
	<path class="st25" d="M65.07,49.11c-0.29-0.37-0.63-0.7-1-0.99c-0.59-0.49-1.24-1.01-1.97-0.97c-0.41,0.05-0.81,0.19-1.17,0.41
		c-1.83,0.95-3.33,0.04-5.46,2.88c-0.45,0.61-1.36,0.75-1.83,1.39c-0.47,0.64-0.66,1.48-0.8,2.3c-0.11,0.55-0.14,1.12-0.09,1.68
		c0.05,0.55,0.32,1.06,0.75,1.41c0.49,0.36,1.16,0.36,1.56,0.83c0.2,0.3,0.37,0.63,0.5,0.97c0.16,0.33,0.45,0.64,0.79,0.59
		s0.53-0.4,0.58-0.75c0.02-0.36,0-0.72-0.06-1.07c-0.06-0.64,0.02-1.33,0.4-1.81c0.25-0.33,0.63-0.52,0.88-0.86
		c0.6-0.8,0.34-2.16,0.99-2.9c0.39-0.4,0.97-0.56,1.51-0.41c0.53,0.15,1.03,0.37,1.5,0.65c0.66,0.34,1.35,0.61,2.06,0.81
		c0.6,0.17,1.29,0.56,1.5-0.24C66.04,51.85,65.75,50.06,65.07,49.11z"/>
	<path class="st13" d="M54.99,72.26l-0.12,3.86c1.46,0.4,2.96,0.61,4.48,0.61c0.25,0,0.51,0,0.77-0.01
		c1.34-0.05,2.67-0.26,3.96-0.63l0.03,0c0.24-0.07,0.48-0.14,0.71-0.22l0.03,0l0.21-0.07c0.81-0.28,1.61-0.63,2.37-1.03l0.05-0.02
		c0.08-0.04,0.17-0.09,0.25-0.14l-0.37-5.2l0.64-3.56l-3.39-2.33c-0.19,0.27-0.41,0.53-0.64,0.77c-0.34,0.35-0.73,0.64-1.16,0.85
		c-2.44,1.19-5.21-0.73-6.58-1.92l-0.31-0.28c-0.36-0.33-0.56-0.55-0.56-0.55L53.64,65L54.99,72.26z"/>
	<path class="st18" d="M54.99,72.51l-0.12,3.86c1.46,0.4,2.96,0.61,4.48,0.61c0.25,0,0.51,0,0.77-0.01
		c1.34-0.05,2.67-0.26,3.96-0.63l0.03,0c0.24-0.07,0.48-0.14,0.71-0.22l0.03,0l0.21-0.07c0.81-0.28,1.61-0.63,2.37-1.03l0.05-0.02
		c0.08-0.04,0.17-0.09,0.25-0.14l-0.37-5.2l0.64-3.56l-3.39-2.33c-0.19,0.27-0.41,0.53-0.64,0.77c-0.34,0.35-0.73,0.64-1.16,0.85
		c-2.44,1.19-5.21-0.73-6.58-1.92l-0.31-0.28c-0.36-0.33-0.56-0.55-0.56-0.55l-1.71,2.61L54.99,72.51z"/>
	<path class="st28" d="M45.71,70.08c0.22,0.3,0.45,0.59,0.7,0.87c0.13,0.15,0.26,0.31,0.4,0.45c0.07,0.08,0.14,0.15,0.21,0.23
		c0.56,0.6,1.17,1.15,1.82,1.66l0.05,0.03c1,0.79,2.08,1.46,3.23,2l0,0c0.59,0.28,1.2,0.53,1.82,0.74l0.23,0.07
		c0.14,0.05,0.29,0.09,0.43,0.13l0.06,0.02c0.07,0.02,0.15,0.04,0.22,0.06c1.46,0.4,2.96,0.61,4.48,0.61c0.25,0,0.51,0,0.77-0.01
		c0.21-3.2,0.28-5.78-0.03-6.44c-0.18-0.38-0.39-0.75-0.62-1.11c-1.23-2-3.49-5.01-3.37-5.39c0.05-0.19,0.08-0.37,0.11-0.56
		c0.14-0.99,0.28-2.8,0.28-2.8l0,0c-0.06,0-1.18,0.02-2.85,2.27c-1.71,2.31-5.41,2.6-5.41,2.6S47.09,65.02,45.71,70.08z"/>
	<path class="st28" d="M64.4,72.86c0,0,0.18,1.48,0.42,3.25l0.03,0l0.21-0.07c0.81-0.28,1.61-0.63,2.37-1.03l0.05-0.02
		c0.08-0.04,0.17-0.09,0.25-0.14c1.12-0.62,2.16-1.36,3.11-2.22l0.08-0.08c0.52-0.47,1.01-0.97,1.47-1.5l0.05-0.06
		c-0.88-3.12-2.75-4.1-2.75-4.1s-1.69-0.78-2.15-1.86c-0.46-1.08-4.55-3.38-4.55-3.38l0,0.02c0,0.19-0.07,1.96-0.18,3.74
		c-0.07,1.16-0.15,2.32-0.24,3.06c-0.02,0.24-0.07,0.48-0.13,0.71C62.1,69.92,64.4,72.86,64.4,72.86z"/>
</g>
</svg>
