<?xml version="1.0" encoding="utf-8"?>
<!-- Generator: Adobe Illustrator 24.0.3, SVG Export Plug-In . SVG Version: 6.00 Build 0)  -->
<svg version="1.1" id="圖層_1" xmlns="http://www.w3.org/2000/svg" xmlns:xlink="http://www.w3.org/1999/xlink" x="0px" y="0px"
	 viewBox="0 0 250 250" style="enable-background:new 0 0 250 250;" xml:space="preserve">
<style type="text/css">
	.st0{fill:none;}
	.st1{fill:#434343;}
	.st2{fill:url(#XMLID_41_);}
	.st3{fill:url(#SVGID_1_);}
	.st4{fill:#FFFFFF;}
	.st5{fill:#C0BCCF;}
	.st6{fill:#A5D4DC;}
	.st7{opacity:0.5;fill:#C0BCCF;enable-background:new    ;}
	.st8{opacity:0.5;fill:#A5D4DC;enable-background:new    ;}
	.st9{opacity:0.5;}
	.st10{fill:url(#SVGID_2_);}
	.st11{fill:#493545;}
	.st12{fill:#C77485;}
	.st13{opacity:0.1;enable-background:new    ;}
	.st14{fill:#444176;}
	.st15{fill:url(#SVGID_3_);}
	.st16{fill:#F1D2D7;}
	.st17{fill:url(#SVGID_4_);}
	.st18{fill:url(#SVGID_5_);}
	.st19{fill:#FDC2CC;}
	.st20{fill:#865A61;}
	.st21{fill:#53526B;}
	.st22{fill:#555388;}
</style>
<pattern  y="250" width="28.8" height="28.8" patternUnits="userSpaceOnUse" id="_x31_0_ppp_20_x25__3" viewBox="1.44 -30.24 28.8 28.8" style="overflow:visible;">
	<g id="XMLID_66_">
		<rect id="XMLID_131_" x="1.44" y="-30.24" class="st0" width="28.8" height="28.8"/>
		<g id="XMLID_75_">
			<path id="XMLID_130_" class="st1" d="M30.24,0c0.8,0,1.44-0.64,1.44-1.44c0-0.79-0.64-1.44-1.44-1.44c-0.8,0-1.44,0.64-1.44,1.44
				C28.8-0.64,29.44,0,30.24,0z"/>
			<path id="XMLID_128_" class="st1" d="M15.84,0c0.8,0,1.44-0.64,1.44-1.44c0-0.79-0.65-1.44-1.44-1.44c-0.8,0-1.44,0.64-1.44,1.44
				C14.4-0.64,15.04,0,15.84,0z"/>
			<path id="XMLID_81_" class="st1" d="M30.24-14.4c0.8,0,1.44-0.65,1.44-1.44c0-0.8-0.64-1.44-1.44-1.44
				c-0.8,0-1.44,0.64-1.44,1.44C28.8-15.04,29.44-14.4,30.24-14.4z"/>
			<path id="XMLID_80_" class="st1" d="M15.84-14.4c0.8,0,1.44-0.65,1.44-1.44c0-0.8-0.65-1.44-1.44-1.44
				c-0.8,0-1.44,0.64-1.44,1.44C14.4-15.04,15.04-14.4,15.84-14.4z"/>
			<path id="XMLID_79_" class="st1" d="M8.64-7.2c0.79,0,1.44-0.64,1.44-1.44c0-0.8-0.65-1.44-1.44-1.44c-0.8,0-1.44,0.64-1.44,1.44
				C7.2-7.84,7.84-7.2,8.64-7.2z"/>
			<path id="XMLID_78_" class="st1" d="M23.04-7.2c0.79,0,1.44-0.64,1.44-1.44c0-0.8-0.65-1.44-1.44-1.44
				c-0.8,0-1.44,0.64-1.44,1.44C21.6-7.84,22.24-7.2,23.04-7.2z"/>
			<path id="XMLID_77_" class="st1" d="M8.64-21.6c0.79,0,1.44-0.64,1.44-1.44c0-0.8-0.65-1.44-1.44-1.44
				c-0.8,0-1.44,0.64-1.44,1.44C7.2-22.24,7.84-21.6,8.64-21.6z"/>
			<path id="XMLID_76_" class="st1" d="M23.04-21.6c0.79,0,1.44-0.64,1.44-1.44c0-0.8-0.65-1.44-1.44-1.44
				c-0.8,0-1.44,0.64-1.44,1.44C21.6-22.24,22.24-21.6,23.04-21.6z"/>
		</g>
		<g id="XMLID_72_">
			<path id="XMLID_74_" class="st1" d="M1.44,0c0.79,0,1.44-0.64,1.44-1.44c0-0.79-0.64-1.44-1.44-1.44C0.64-2.88,0-2.23,0-1.44
				C0-0.64,0.64,0,1.44,0z"/>
			<path id="XMLID_73_" class="st1" d="M1.44-14.4c0.79,0,1.44-0.65,1.44-1.44c0-0.8-0.64-1.44-1.44-1.44
				c-0.8,0-1.44,0.64-1.44,1.44C0-15.04,0.64-14.4,1.44-14.4z"/>
		</g>
		<g id="XMLID_69_">
			<path id="XMLID_71_" class="st1" d="M30.24-28.8c0.8,0,1.44-0.64,1.44-1.44c0-0.8-0.64-1.44-1.44-1.44
				c-0.8,0-1.44,0.64-1.44,1.44C28.8-29.45,29.44-28.8,30.24-28.8z"/>
			<path id="XMLID_70_" class="st1" d="M15.84-28.8c0.8,0,1.44-0.64,1.44-1.44c0-0.8-0.65-1.44-1.44-1.44
				c-0.8,0-1.44,0.64-1.44,1.44C14.4-29.45,15.04-28.8,15.84-28.8z"/>
		</g>
		<g id="XMLID_67_">
			<path id="XMLID_68_" class="st1" d="M1.44-28.8c0.79,0,1.44-0.64,1.44-1.44c0-0.8-0.64-1.44-1.44-1.44
				c-0.8,0-1.44,0.64-1.44,1.44C0-29.45,0.64-28.8,1.44-28.8z"/>
		</g>
	</g>
</pattern>
<g>
	
		<pattern  id="XMLID_41_" xlink:href="#_x31_0_ppp_20_x25__3" patternTransform="matrix(-0.552 0.552 -0.552 -0.552 -17136.6816 -8478.2998)">
	</pattern>
	<circle id="XMLID_39_" class="st2" cx="151.47" cy="108.85" r="73.51"/>
	<g>
		<g>
			
				<linearGradient id="SVGID_1_" gradientUnits="userSpaceOnUse" x1="94.4008" y1="40.0014" x2="94.4008" y2="197.0922" gradientTransform="matrix(1 4.361738e-03 4.361738e-03 -1 5.1952 253.9591)">
				<stop  offset="0" style="stop-color:#808080;stop-opacity:0.25"/>
				<stop  offset="0.54" style="stop-color:#808080;stop-opacity:0.12"/>
				<stop  offset="1" style="stop-color:#808080;stop-opacity:0.1"/>
			</linearGradient>
			<polygon class="st3" points="35.36,57 165.55,57.56 164.87,214.65 34.67,214.09 			"/>
			
				<rect x="23.57" y="72.39" transform="matrix(4.361738e-03 -1 1 4.361738e-03 -36.1505 235.346)" class="st4" width="153.08" height="126.87"/>
			
				<rect x="110.56" y="52.27" transform="matrix(4.361738e-03 -1 1 4.361738e-03 33.4674 189.3137)" class="st5" width="2.5" height="51.16"/>
			
				<rect x="110.52" y="60.17" transform="matrix(4.361738e-03 -1 1 4.361738e-03 25.5298 197.1481)" class="st5" width="2.5" height="51.16"/>
			
				<rect x="110.49" y="80.35" transform="matrix(4.361738e-03 -1 1 4.361738e-03 17.5923 204.9825)" class="st6" width="2.5" height="26.62"/>
			
				<rect x="110.34" y="102.39" transform="matrix(4.361738e-03 -1 1 4.361738e-03 -16.8736 239.0003)" class="st7" width="2.5" height="51.16"/>
			
				<rect x="110.3" y="110.3" transform="matrix(4.361738e-03 -1 1 4.361738e-03 -24.8112 246.8347)" class="st7" width="2.5" height="51.16"/>
			
				<rect x="110.27" y="130.47" transform="matrix(4.361738e-03 -1 1 4.361738e-03 -32.7488 254.6691)" class="st8" width="2.5" height="26.62"/>
			
				<rect x="110.12" y="152.52" transform="matrix(4.361738e-03 -1 1 4.361738e-03 -67.2146 288.6869)" class="st7" width="2.5" height="51.16"/>
			
				<rect x="110.08" y="160.42" transform="matrix(4.361738e-03 -1 1 4.361738e-03 -75.1522 296.5212)" class="st7" width="2.5" height="51.16"/>
			
				<rect x="110.05" y="180.59" transform="matrix(4.361738e-03 -1 1 4.361738e-03 -83.0898 304.3557)" class="st8" width="2.5" height="26.62"/>
			<g class="st9">
				<path class="st5" d="M71.83,135.7c-0.01,3.38-1.23,6.64-3.44,9.19c-0.11,0.13-0.22,0.25-0.34,0.37
					c-0.06,0.06-0.12,0.13-0.18,0.19c-0.47,0.49-0.98,0.95-1.52,1.36l-0.04,0.03c-0.83,0.65-1.73,1.19-2.69,1.64l0,0
					c-0.49,0.23-0.99,0.43-1.51,0.6l-0.19,0.06c-0.12,0.04-0.24,0.07-0.36,0.11l-0.05,0.01c-2.56,0.72-5.26,0.71-7.81-0.03l-0.02,0
					c-0.21-0.06-0.42-0.12-0.61-0.19l-0.18-0.06c-0.67-0.24-1.32-0.53-1.95-0.87l-0.04-0.02c-1-0.54-1.92-1.21-2.76-1.97l-0.07-0.06
					c-0.43-0.39-0.83-0.81-1.2-1.25c-0.05-0.06-0.1-0.11-0.14-0.17c-0.09-0.11-0.18-0.22-0.26-0.33
					c-4.76-6.19-3.61-15.07,2.58-19.83c6.19-4.76,15.07-3.61,19.83,2.58C70.81,129.5,71.84,132.56,71.83,135.7z"/>
				
					<linearGradient id="SVGID_2_" gradientUnits="userSpaceOnUse" x1="51.7632" y1="122.4254" x2="51.7632" y2="147.6003" gradientTransform="matrix(1 4.361738e-03 -4.361738e-03 1 6.2943 1.9615)">
					<stop  offset="0" style="stop-color:#808080;stop-opacity:0.25"/>
					<stop  offset="0.54" style="stop-color:#808080;stop-opacity:0.12"/>
					<stop  offset="1" style="stop-color:#808080;stop-opacity:0.1"/>
				</linearGradient>
				<path class="st10" d="M67.94,140.46l-1.07-0.49c0.02-0.16,0.02-0.33,0.02-0.49c0.01-0.14,0.01-0.28,0-0.42
					c-0.1-1.09-0.79-2.05-1.28-3.05c-0.45-0.92-0.73-1.9-0.83-2.92c-0.13-1.25,0.01-2.54-0.44-3.72c-0.37-0.95-1.1-1.74-1.89-2.44
					c-0.88-0.83-1.91-1.49-3.04-1.95c-1.15-0.42-2.47-0.53-3.63-0.11c-1.04,0.38-1.85,1.14-2.62,1.88
					c-0.56,0.49-1.06,1.06-1.48,1.67c-0.48,0.77-0.68,1.66-0.84,2.54c-0.25,1.4-0.43,2.82-0.53,4.24c-0.09,1.19-0.22,2.53-1.24,3.26
					c-0.5,0.35-1.19,0.55-1.42,1.09c-0.06,0.16-0.09,0.34-0.08,0.51c-0.01,0.14,0,0.29,0.03,0.43c0.01,0.08,0.03,0.16,0.05,0.25
					c-0.29,0.72-0.54,1.46-0.74,2.22c-0.15,0.56-0.3,1.11-0.42,1.65l0.34,0l0.18,0l1.94,0.05l0.03,0l2.08,0.06l0.01,0l1.94,0.05
					l0.05,0l0.56,0.04l0.18,0l7.75,0.21l0.04,0l0.52,0.01l0.18,0l1.55,0.04l0,0l2.29,0.06l0.02,0l1.72,0.05l0.18,0l0.35,0
					l-0.08-1.81C68.69,140.63,67.94,140.46,67.94,140.46z M59.23,140.2c-0.01,1.53-1.65,3.4-1.65,3.4l-1.64-2.25l0.06-0.09
					l1.58,2.17c0,0,1.65-1.86,1.65-3.4c0.04-0.08,0.08-0.15,0.13-0.22l0.04,0.12C59.33,140.01,59.28,140.1,59.23,140.2z
					 M61.72,146.22c0-0.08,0-0.16-0.01-0.23s-0.01-0.15-0.02-0.22c-0.01-0.07-0.02-0.15-0.03-0.22c-0.01-0.07-0.02-0.15-0.04-0.22
					c-0.01-0.07-0.03-0.15-0.04-0.22c0-0.02-0.01-0.05-0.02-0.07c-0.02-0.1-0.05-0.2-0.07-0.29c-0.03-0.1-0.04-0.16-0.07-0.24
					c0-0.04-0.02-0.07-0.03-0.1c-0.01-0.03-0.03-0.11-0.05-0.17l-0.04-0.11c-0.02-0.05-0.03-0.1-0.05-0.15
					c-0.03-0.09-0.06-0.17-0.1-0.26c-0.03-0.09-0.07-0.17-0.1-0.26c-0.07-0.18-0.15-0.35-0.22-0.52c-0.3-0.68-0.63-1.34-0.94-2
					c-0.17-0.34-0.31-0.7-0.44-1.06l-0.04,0.05c-0.06,0.09-0.12,0.18-0.17,0.28c-0.01,1.53-1.65,3.4-1.65,3.4l-1.64-2.25l-1.45,2.07
					c-0.21,0.1-0.42,0.46-0.58,0.96c-0.05,0.13-0.09,0.28-0.13,0.44c-0.03,0.11-0.06,0.21-0.08,0.33c-0.01,0.06-0.03,0.11-0.04,0.17
					l-0.04,0.18l0,0.03c-0.03,0.12-0.05,0.25-0.07,0.37c-0.02,0.13-0.05,0.27-0.07,0.42c-0.02,0.09-0.03,0.18-0.04,0.27
					c-0.03,0.17-0.06,0.35-0.08,0.52c-0.02,0.1-0.03,0.21-0.04,0.3l-0.05,0.39c0.1,0.32,0.22,0.62,0.34,0.95
					c0.08,0.17,0.12,0.35,0.13,0.54c2.56,0.69,5.25,0.71,7.81,0.03c0-0.01,0-0.01,0-0.02c-0.04-0.17-0.05-0.35-0.05-0.53l0,0
					c0.04-0.5,0.12-1,0.21-1.49c0.03-0.24,0.05-0.49,0.04-0.73l0-0.09C61.73,146.36,61.72,146.29,61.72,146.22L61.72,146.22z
					 M61.72,146.22c0-0.08,0-0.16-0.01-0.23s-0.01-0.15-0.02-0.22c-0.01-0.07-0.02-0.15-0.03-0.22c-0.01-0.07-0.02-0.15-0.04-0.22
					c-0.01-0.07-0.03-0.15-0.04-0.22c0-0.02-0.01-0.05-0.02-0.07c-0.02-0.1-0.05-0.2-0.07-0.29c-0.03-0.1-0.04-0.16-0.07-0.24
					c0-0.04-0.02-0.07-0.03-0.1c-0.01-0.03-0.03-0.11-0.05-0.17l-0.04-0.11c-0.02-0.05-0.03-0.1-0.05-0.15
					c-0.03-0.09-0.06-0.17-0.1-0.26c-0.03-0.09-0.07-0.17-0.1-0.26c-0.07-0.18-0.15-0.35-0.22-0.52c-0.3-0.68-0.63-1.34-0.94-2
					c-0.17-0.34-0.31-0.7-0.44-1.06l-0.04,0.05c-0.06,0.09-0.12,0.18-0.17,0.28c-0.01,1.53-1.65,3.4-1.65,3.4l-1.64-2.25l-1.45,2.07
					c-0.21,0.1-0.42,0.46-0.58,0.96c-0.05,0.13-0.09,0.28-0.13,0.44c-0.03,0.11-0.06,0.21-0.08,0.33c-0.01,0.06-0.03,0.11-0.04,0.17
					l-0.04,0.18l0,0.03c-0.03,0.12-0.05,0.25-0.07,0.37c-0.02,0.13-0.05,0.27-0.07,0.42c-0.02,0.09-0.03,0.18-0.04,0.27
					c-0.03,0.17-0.06,0.35-0.08,0.52c-0.02,0.1-0.03,0.21-0.04,0.3l-0.05,0.39c0.1,0.32,0.22,0.62,0.34,0.95
					c0.08,0.17,0.12,0.35,0.13,0.54c2.56,0.69,5.25,0.71,7.81,0.03c0-0.01,0-0.01,0-0.02c-0.04-0.17-0.05-0.35-0.05-0.53l0,0
					c0.04-0.5,0.12-1,0.21-1.49c0.03-0.24,0.05-0.49,0.04-0.73l0-0.09C61.73,146.36,61.72,146.29,61.72,146.22L61.72,146.22z
					 M61.72,146.22c0-0.08,0-0.16-0.01-0.23s-0.01-0.15-0.02-0.22c-0.01-0.07-0.02-0.15-0.03-0.22c-0.01-0.07-0.02-0.15-0.04-0.22
					c-0.01-0.07-0.03-0.15-0.04-0.22c0-0.02-0.01-0.05-0.02-0.07c-0.02-0.1-0.05-0.2-0.07-0.29c-0.03-0.1-0.04-0.16-0.07-0.24
					c0-0.04-0.02-0.07-0.03-0.1c-0.01-0.03-0.03-0.11-0.05-0.17l-0.04-0.11c-0.02-0.05-0.03-0.1-0.05-0.15
					c-0.03-0.09-0.06-0.17-0.1-0.26c-0.03-0.09-0.07-0.17-0.1-0.26c-0.07-0.18-0.15-0.35-0.22-0.52c-0.3-0.68-0.63-1.34-0.94-2
					c-0.17-0.34-0.31-0.7-0.44-1.06l-0.04,0.05c-0.06,0.09-0.12,0.18-0.17,0.28c-0.01,1.53-1.65,3.4-1.65,3.4l-1.64-2.25l-1.45,2.07
					c-0.21,0.1-0.42,0.46-0.58,0.96c-0.05,0.13-0.09,0.28-0.13,0.44c-0.03,0.11-0.06,0.21-0.08,0.33c-0.01,0.06-0.03,0.11-0.04,0.17
					l-0.04,0.18l0,0.03c-0.03,0.12-0.05,0.25-0.07,0.37c-0.02,0.13-0.05,0.27-0.07,0.42c-0.02,0.09-0.03,0.18-0.04,0.27
					c-0.03,0.17-0.06,0.35-0.08,0.52c-0.02,0.1-0.03,0.21-0.04,0.3l-0.05,0.39c0.1,0.32,0.22,0.62,0.34,0.95
					c0.08,0.17,0.12,0.35,0.13,0.54c2.56,0.69,5.25,0.71,7.81,0.03c0-0.01,0-0.01,0-0.02c-0.04-0.17-0.05-0.35-0.05-0.53l0,0
					c0.04-0.5,0.12-1,0.21-1.49c0.03-0.24,0.05-0.49,0.04-0.73l0-0.09C61.73,146.36,61.72,146.29,61.72,146.22L61.72,146.22z
					 M61.72,146.22c0-0.08,0-0.16-0.01-0.23s-0.01-0.15-0.02-0.22c-0.01-0.07-0.02-0.15-0.03-0.22c-0.01-0.07-0.02-0.15-0.04-0.22
					c-0.01-0.07-0.03-0.15-0.04-0.22c0-0.02-0.01-0.05-0.02-0.07c-0.02-0.1-0.05-0.2-0.07-0.29c-0.03-0.1-0.04-0.16-0.07-0.24
					c0-0.04-0.02-0.07-0.03-0.1c-0.01-0.03-0.03-0.11-0.05-0.17l-0.04-0.11c-0.02-0.05-0.03-0.1-0.05-0.15
					c-0.03-0.09-0.06-0.17-0.1-0.26c-0.03-0.09-0.07-0.17-0.1-0.26c-0.07-0.18-0.15-0.35-0.22-0.52c-0.3-0.68-0.63-1.34-0.94-2
					c-0.17-0.34-0.31-0.7-0.44-1.06l-0.04,0.05c-0.06,0.09-0.12,0.18-0.17,0.28c-0.01,1.53-1.65,3.4-1.65,3.4l-1.64-2.25l-1.45,2.07
					c-0.21,0.1-0.42,0.46-0.58,0.96c-0.05,0.13-0.09,0.28-0.13,0.44c-0.03,0.11-0.06,0.21-0.08,0.33c-0.01,0.06-0.03,0.11-0.04,0.17
					l-0.04,0.18l0,0.03c-0.03,0.12-0.05,0.25-0.07,0.37c-0.02,0.13-0.05,0.27-0.07,0.42c-0.02,0.09-0.03,0.18-0.04,0.27
					c-0.03,0.17-0.06,0.35-0.08,0.52c-0.02,0.1-0.03,0.21-0.04,0.3l-0.05,0.39c0.1,0.32,0.22,0.62,0.34,0.95
					c0.08,0.17,0.12,0.35,0.13,0.54c2.56,0.69,5.25,0.71,7.81,0.03c0-0.01,0-0.01,0-0.02c-0.04-0.17-0.05-0.35-0.05-0.53l0,0
					c0.04-0.5,0.12-1,0.21-1.49c0.03-0.24,0.05-0.49,0.04-0.73l0-0.09C61.73,146.36,61.72,146.29,61.72,146.22L61.72,146.22z"/>
				
					<rect x="53.84" y="130.13" transform="matrix(4.361738e-03 -1 1 4.361738e-03 -78.0962 191.3855)" class="st11" width="6.45" height="9.57"/>
				<path class="st12" d="M63.42,138.83l-4.03,5.62l-4.18-0.38c0,0-5.46,0.34-1.8-3.83c1.76-2,2.34-3.68,2.47-4.87
					c0.14-1.29-0.25-2.03-0.25-2.03l4.55-0.53c-0.21,0.61-0.24,1.27-0.08,1.9C60.65,137.07,63.42,138.83,63.42,138.83z"/>
				<path class="st13" d="M60.08,134.7c-1.21,0.91-2.79,1.15-4.22,0.66c0.14-1.29-0.25-2.03-0.25-2.03l4.55-0.53
					C59.96,133.42,59.93,134.07,60.08,134.7z"/>
				<circle class="st12" cx="57.36" cy="130.88" r="4.55"/>
				<path class="st13" d="M63.25,139.06l-0.1-0.42l-0.09-0.37l-0.13-0.54l-0.02-0.1l-0.02-0.08c0,0,0.11-0.33-0.6-0.22l-0.13,0.02
					c-0.11,0.02-0.24,0.05-0.39,0.09l-0.14,0.04l-0.18,0.06l0,0c-0.57,0.18-1.08,0.49-1.51,0.9c-0.19,0.18-0.36,0.39-0.51,0.61
					c-0.01,0.02-0.03,0.04-0.04,0.06c-0.05,0.08-0.09,0.16-0.13,0.24c-0.01,1.64-1.65,3.63-1.65,3.63L56,140.67l-0.03-0.05
					l-0.38-0.55l-0.13-0.18l-0.05-0.06l-0.83-1.12l-0.21-0.28l-0.07-0.09l-0.1-0.14l-0.24-0.32l-0.94,0.54l-1.25,0.72l-0.75,4.73
					l0,0.13l0.02,0.39l0.14,2.57l0,0.04l-0.27,1.06l0.04,0.02c0.63,0.34,1.28,0.63,1.95,0.87l0.18,0.06
					c0.21,0.07,0.4,0.13,0.61,0.19c0.01,0.03,0.01,0.06,0.02,0.09c0-0.03,0-0.06,0-0.09c2.55,0.74,5.25,0.75,7.81,0.03l0.05-0.01
					c0.12-0.03,0.24-0.07,0.36-0.11l0.19-0.06c0.51-0.17,1.02-0.37,1.51-0.6l0.19-3.72l0.14-2.68l0-0.15L63.25,139.06z"/>
				<path class="st4" d="M61.72,145.97c0-0.08,0-0.17-0.01-0.25c-0.01-0.08-0.01-0.16-0.02-0.24c-0.01-0.08-0.02-0.16-0.03-0.24
					c-0.01-0.08-0.02-0.16-0.04-0.24c-0.01-0.08-0.03-0.16-0.04-0.24c0-0.03-0.01-0.05-0.02-0.08c-0.02-0.1-0.05-0.21-0.07-0.31
					c-0.03-0.11-0.04-0.17-0.07-0.25c0-0.04-0.02-0.07-0.03-0.11c-0.01-0.04-0.03-0.12-0.05-0.18l-0.04-0.12
					c-0.02-0.05-0.03-0.1-0.05-0.16c-0.03-0.09-0.06-0.19-0.1-0.28c-0.03-0.09-0.07-0.19-0.1-0.28c-0.07-0.19-0.15-0.37-0.22-0.56
					c-0.3-0.72-0.63-1.43-0.94-2.14c-0.17-0.37-0.31-0.75-0.44-1.13l-0.04,0.06c-0.06,0.1-0.12,0.2-0.17,0.3
					c-0.01,1.64-1.65,3.63-1.65,3.63l-1.64-2.41l-1.45,2.21c-0.21,0.11-0.42,0.49-0.58,1.02c-0.05,0.15-0.09,0.3-0.13,0.47
					c-0.03,0.11-0.06,0.23-0.08,0.35c-0.01,0.06-0.03,0.12-0.04,0.18l-0.04,0.19l0,0.03c-0.03,0.13-0.05,0.26-0.07,0.4
					s-0.05,0.29-0.07,0.44c-0.02,0.1-0.03,0.19-0.04,0.29c-0.03,0.18-0.06,0.37-0.08,0.56c-0.02,0.11-0.03,0.21-0.04,0.32
					l-0.05,0.42c0.1,0.34,0.22,0.68,0.34,1.01c0.08,0.18,0.12,0.38,0.13,0.57c2.55,0.74,5.25,0.75,7.81,0.03c0-0.01,0-0.01,0-0.02
					c-0.04-0.19-0.05-0.38-0.05-0.57l0,0c0.04-0.53,0.12-1.06,0.21-1.59c0.03-0.26,0.05-0.52,0.04-0.78l0-0.09
					C61.73,146.12,61.73,146.04,61.72,145.97z M61.72,145.97c0-0.08,0-0.17-0.01-0.25c-0.01-0.08-0.01-0.16-0.02-0.24
					c-0.01-0.08-0.02-0.16-0.03-0.24c-0.01-0.08-0.02-0.16-0.04-0.24c-0.01-0.08-0.03-0.16-0.04-0.24c0-0.03-0.01-0.05-0.02-0.08
					c-0.02-0.1-0.05-0.21-0.07-0.31c-0.03-0.11-0.04-0.17-0.07-0.25c0-0.04-0.02-0.07-0.03-0.11c-0.01-0.04-0.03-0.12-0.05-0.18
					l-0.04-0.12c-0.02-0.05-0.03-0.1-0.05-0.16c-0.03-0.09-0.06-0.19-0.1-0.28c-0.03-0.09-0.07-0.19-0.1-0.28
					c-0.07-0.19-0.15-0.37-0.22-0.56c-0.3-0.72-0.63-1.43-0.94-2.14c-0.17-0.37-0.31-0.75-0.44-1.13l-0.04,0.06
					c-0.06,0.1-0.12,0.2-0.17,0.3c-0.01,1.64-1.65,3.63-1.65,3.63l-1.64-2.41l-1.45,2.21c-0.21,0.11-0.42,0.49-0.58,1.02
					c-0.05,0.15-0.09,0.3-0.13,0.47c-0.03,0.11-0.06,0.23-0.08,0.35c-0.01,0.06-0.03,0.12-0.04,0.18l-0.04,0.19l0,0.03
					c-0.03,0.13-0.05,0.26-0.07,0.4s-0.05,0.29-0.07,0.44c-0.02,0.1-0.03,0.19-0.04,0.29c-0.03,0.18-0.06,0.37-0.08,0.56
					c-0.02,0.11-0.03,0.21-0.04,0.32l-0.05,0.42c0.1,0.34,0.22,0.68,0.34,1.01c0.08,0.18,0.12,0.38,0.13,0.57
					c2.55,0.74,5.25,0.75,7.81,0.03c0-0.01,0-0.01,0-0.02c-0.04-0.19-0.05-0.38-0.05-0.57l0,0c0.04-0.53,0.12-1.06,0.21-1.59
					c0.03-0.26,0.05-0.52,0.04-0.78l0-0.09C61.73,146.12,61.73,146.04,61.72,145.97z M61.72,145.97c0-0.08,0-0.17-0.01-0.25
					c-0.01-0.08-0.01-0.16-0.02-0.24c-0.01-0.08-0.02-0.16-0.03-0.24c-0.01-0.08-0.02-0.16-0.04-0.24
					c-0.01-0.08-0.03-0.16-0.04-0.24c0-0.03-0.01-0.05-0.02-0.08c-0.02-0.1-0.05-0.21-0.07-0.31c-0.03-0.11-0.04-0.17-0.07-0.25
					c0-0.04-0.02-0.07-0.03-0.11c-0.01-0.04-0.03-0.12-0.05-0.18l-0.04-0.12c-0.02-0.05-0.03-0.1-0.05-0.16
					c-0.03-0.09-0.06-0.19-0.1-0.28c-0.03-0.09-0.07-0.19-0.1-0.28c-0.07-0.19-0.15-0.37-0.22-0.56c-0.3-0.72-0.63-1.43-0.94-2.14
					c-0.17-0.37-0.31-0.75-0.44-1.13l-0.04,0.06c-0.06,0.1-0.12,0.2-0.17,0.3c-0.01,1.64-1.65,3.63-1.65,3.63l-1.64-2.41l-1.45,2.21
					c-0.21,0.11-0.42,0.49-0.58,1.02c-0.05,0.15-0.09,0.3-0.13,0.47c-0.03,0.11-0.06,0.23-0.08,0.35c-0.01,0.06-0.03,0.12-0.04,0.18
					l-0.04,0.19l0,0.03c-0.03,0.13-0.05,0.26-0.07,0.4s-0.05,0.29-0.07,0.44c-0.02,0.1-0.03,0.19-0.04,0.29
					c-0.03,0.18-0.06,0.37-0.08,0.56c-0.02,0.11-0.03,0.21-0.04,0.32l-0.05,0.42c0.1,0.34,0.22,0.68,0.34,1.01
					c0.08,0.18,0.12,0.38,0.13,0.57c2.55,0.74,5.25,0.75,7.81,0.03c0-0.01,0-0.01,0-0.02c-0.04-0.19-0.05-0.38-0.05-0.57l0,0
					c0.04-0.53,0.12-1.06,0.21-1.59c0.03-0.26,0.05-0.52,0.04-0.78l0-0.09C61.73,146.12,61.73,146.04,61.72,145.97z M63.95,142.07
					l-0.73-2.97l-0.12-0.51l-0.03-0.14l0,0l-0.18-0.72c0-0.01,0-0.01,0-0.02l0,0c0-0.03,0-0.06-0.01-0.09
					c-0.03-0.05-0.1-0.11-0.26-0.13c-0.06,0-0.12,0-0.18,0l0,0c-0.18,0.02-0.36,0.05-0.53,0.1c-0.09,0.02-0.18,0.05-0.27,0.08
					l-0.18,0.06l-0.02,0c-0.48,0.16-0.93,0.4-1.31,0.72c-0.26,0.21-0.48,0.46-0.67,0.73l-0.04,0.06c-0.06,0.1-0.12,0.2-0.17,0.3
					c-0.01,1.64-1.65,3.63-1.65,3.63l-1.64-2.41l-0.09-0.14l-0.02-0.02l-0.24-0.35l-0.18-0.24l-0.05-0.06l-0.85-1.14l0,0l-0.27-0.37
					l0-0.01l-0.09-0.13l-0.18-0.24l-0.63,0.36l-1.56,0.9L51.04,144l0,0.05l0.02,0.34l0.14,2.61l0,0.15l-0.24,0.94
					c0.63,0.34,1.28,0.63,1.95,0.87l0.18,0.06c0.21,0.07,0.4,0.13,0.61,0.19c0.01,0.03,0.01,0.06,0.02,0.09c0-0.03,0-0.06,0-0.09
					c2.55,0.74,5.25,0.75,7.81,0.03l0.05-0.01c0.12-0.03,0.24-0.07,0.36-0.11l0.19-0.06c0.51-0.17,1.02-0.37,1.51-0.6l0,0l0.19-3.72
					l0.14-2.66L63.95,142.07z M53.69,149.21c0.01,0.03,0.01,0.06,0.02,0.09c0-0.03,0-0.06,0-0.09L53.69,149.21z M61.72,145.97
					c0-0.08,0-0.17-0.01-0.25c-0.01-0.08-0.01-0.16-0.02-0.24c-0.01-0.08-0.02-0.16-0.03-0.24c-0.01-0.08-0.02-0.16-0.04-0.24
					c-0.01-0.08-0.03-0.16-0.04-0.24c0-0.03-0.01-0.05-0.02-0.08c-0.02-0.1-0.05-0.21-0.07-0.31c-0.03-0.11-0.04-0.17-0.07-0.25
					c0-0.04-0.02-0.07-0.03-0.11c-0.01-0.04-0.03-0.12-0.05-0.18l-0.04-0.12c-0.02-0.05-0.03-0.1-0.05-0.16
					c-0.03-0.09-0.06-0.19-0.1-0.28c-0.03-0.09-0.07-0.19-0.1-0.28c-0.07-0.19-0.15-0.37-0.22-0.56c-0.3-0.72-0.63-1.43-0.94-2.14
					c-0.17-0.37-0.31-0.75-0.44-1.13l-0.04,0.06c-0.06,0.1-0.12,0.2-0.17,0.3c-0.01,1.64-1.65,3.63-1.65,3.63l-1.64-2.41l-1.45,2.21
					c-0.21,0.11-0.42,0.49-0.58,1.02c-0.05,0.15-0.09,0.3-0.13,0.47c-0.03,0.11-0.06,0.23-0.08,0.35c-0.01,0.06-0.03,0.12-0.04,0.18
					l-0.04,0.19l0,0.03c-0.03,0.13-0.05,0.26-0.07,0.4s-0.05,0.29-0.07,0.44c-0.02,0.1-0.03,0.19-0.04,0.29
					c-0.03,0.18-0.06,0.37-0.08,0.56c-0.02,0.11-0.03,0.21-0.04,0.32l-0.05,0.42c0.1,0.34,0.22,0.68,0.34,1.01
					c0.08,0.18,0.12,0.38,0.13,0.57c2.55,0.74,5.25,0.75,7.81,0.03c0-0.01,0-0.01,0-0.02c-0.04-0.19-0.05-0.38-0.05-0.57l0,0
					c0.04-0.53,0.12-1.06,0.21-1.59c0.03-0.26,0.05-0.52,0.04-0.78l0-0.09C61.73,146.12,61.73,146.04,61.72,145.97z M61.72,145.97
					c0-0.08,0-0.17-0.01-0.25c-0.01-0.08-0.01-0.16-0.02-0.24c-0.01-0.08-0.02-0.16-0.03-0.24c-0.01-0.08-0.02-0.16-0.04-0.24
					c-0.01-0.08-0.03-0.16-0.04-0.24c0-0.03-0.01-0.05-0.02-0.08c-0.02-0.1-0.05-0.21-0.07-0.31c-0.03-0.11-0.04-0.17-0.07-0.25
					c0-0.04-0.02-0.07-0.03-0.11c-0.01-0.04-0.03-0.12-0.05-0.18l-0.04-0.12c-0.02-0.05-0.03-0.1-0.05-0.16
					c-0.03-0.09-0.06-0.19-0.1-0.28c-0.03-0.09-0.07-0.19-0.1-0.28c-0.07-0.19-0.15-0.37-0.22-0.56c-0.3-0.72-0.63-1.43-0.94-2.14
					c-0.17-0.37-0.31-0.75-0.44-1.13l-0.04,0.06c-0.06,0.1-0.12,0.2-0.17,0.3c-0.01,1.64-1.65,3.63-1.65,3.63l-1.64-2.41l-1.45,2.21
					c-0.21,0.11-0.42,0.49-0.58,1.02c-0.05,0.15-0.09,0.3-0.13,0.47c-0.03,0.11-0.06,0.23-0.08,0.35c-0.01,0.06-0.03,0.12-0.04,0.18
					l-0.04,0.19l0,0.03c-0.03,0.13-0.05,0.26-0.07,0.4s-0.05,0.29-0.07,0.44c-0.02,0.1-0.03,0.19-0.04,0.29
					c-0.03,0.18-0.06,0.37-0.08,0.56c-0.02,0.11-0.03,0.21-0.04,0.32l-0.05,0.42c0.1,0.34,0.22,0.68,0.34,1.01
					c0.08,0.18,0.12,0.38,0.13,0.57c2.55,0.74,5.25,0.75,7.81,0.03c0-0.01,0-0.01,0-0.02c-0.04-0.19-0.05-0.38-0.05-0.57l0,0
					c0.04-0.53,0.12-1.06,0.21-1.59c0.03-0.26,0.05-0.52,0.04-0.78l0-0.09C61.73,146.12,61.73,146.04,61.72,145.97z M61.72,145.97
					c0-0.08,0-0.17-0.01-0.25c-0.01-0.08-0.01-0.16-0.02-0.24c-0.01-0.08-0.02-0.16-0.03-0.24c-0.01-0.08-0.02-0.16-0.04-0.24
					c-0.01-0.08-0.03-0.16-0.04-0.24c0-0.03-0.01-0.05-0.02-0.08c-0.02-0.1-0.05-0.21-0.07-0.31c-0.03-0.11-0.04-0.17-0.07-0.25
					c0-0.04-0.02-0.07-0.03-0.11c-0.01-0.04-0.03-0.12-0.05-0.18l-0.04-0.12c-0.02-0.05-0.03-0.1-0.05-0.16
					c-0.03-0.09-0.06-0.19-0.1-0.28c-0.03-0.09-0.07-0.19-0.1-0.28c-0.07-0.19-0.15-0.37-0.22-0.56c-0.3-0.72-0.63-1.43-0.94-2.14
					c-0.17-0.37-0.31-0.75-0.44-1.13l-0.04,0.06c-0.06,0.1-0.12,0.2-0.17,0.3c-0.01,1.64-1.65,3.63-1.65,3.63l-1.64-2.41l-1.45,2.21
					c-0.21,0.11-0.42,0.49-0.58,1.02c-0.05,0.15-0.09,0.3-0.13,0.47c-0.03,0.11-0.06,0.23-0.08,0.35c-0.01,0.06-0.03,0.12-0.04,0.18
					l-0.04,0.19l0,0.03c-0.03,0.13-0.05,0.26-0.07,0.4s-0.05,0.29-0.07,0.44c-0.02,0.1-0.03,0.19-0.04,0.29
					c-0.03,0.18-0.06,0.37-0.08,0.56c-0.02,0.11-0.03,0.21-0.04,0.32l-0.05,0.42c0.1,0.34,0.22,0.68,0.34,1.01
					c0.08,0.18,0.12,0.38,0.13,0.57c2.55,0.74,5.25,0.75,7.81,0.03c0-0.01,0-0.01,0-0.02c-0.04-0.19-0.05-0.38-0.05-0.57l0,0
					c0.04-0.53,0.12-1.06,0.21-1.59c0.03-0.26,0.05-0.52,0.04-0.78l0-0.09C61.73,146.12,61.73,146.04,61.72,145.97z M61.72,145.97
					c0-0.08,0-0.17-0.01-0.25c-0.01-0.08-0.01-0.16-0.02-0.24c-0.01-0.08-0.02-0.16-0.03-0.24c-0.01-0.08-0.02-0.16-0.04-0.24
					c-0.01-0.08-0.03-0.16-0.04-0.24c0-0.03-0.01-0.05-0.02-0.08c-0.02-0.1-0.05-0.21-0.07-0.31c-0.03-0.11-0.04-0.17-0.07-0.25
					c0-0.04-0.02-0.07-0.03-0.11c-0.01-0.04-0.03-0.12-0.05-0.18l-0.04-0.12c-0.02-0.05-0.03-0.1-0.05-0.16
					c-0.03-0.09-0.06-0.19-0.1-0.28c-0.03-0.09-0.07-0.19-0.1-0.28c-0.07-0.19-0.15-0.37-0.22-0.56c-0.3-0.72-0.63-1.43-0.94-2.14
					c-0.17-0.37-0.31-0.75-0.44-1.13l-0.04,0.06c-0.06,0.1-0.12,0.2-0.17,0.3c-0.01,1.64-1.65,3.63-1.65,3.63l-1.64-2.41l-1.45,2.21
					c-0.21,0.11-0.42,0.49-0.58,1.02c-0.05,0.15-0.09,0.3-0.13,0.47c-0.03,0.11-0.06,0.23-0.08,0.35c-0.01,0.06-0.03,0.12-0.04,0.18
					l-0.04,0.19l0,0.03c-0.03,0.13-0.05,0.26-0.07,0.4s-0.05,0.29-0.07,0.44c-0.02,0.1-0.03,0.19-0.04,0.29
					c-0.03,0.18-0.06,0.37-0.08,0.56c-0.02,0.11-0.03,0.21-0.04,0.32l-0.05,0.42c0.1,0.34,0.22,0.68,0.34,1.01
					c0.08,0.18,0.12,0.38,0.13,0.57c2.55,0.74,5.25,0.75,7.81,0.03c0-0.01,0-0.01,0-0.02c-0.04-0.19-0.05-0.38-0.05-0.57l0,0
					c0.04-0.53,0.12-1.06,0.21-1.59c0.03-0.26,0.05-0.52,0.04-0.78l0-0.09C61.73,146.12,61.73,146.04,61.72,145.97z M61.72,145.97
					c0-0.08,0-0.17-0.01-0.25c-0.01-0.08-0.01-0.16-0.02-0.24c-0.01-0.08-0.02-0.16-0.03-0.24c-0.01-0.08-0.02-0.16-0.04-0.24
					c-0.01-0.08-0.03-0.16-0.04-0.24c0-0.03-0.01-0.05-0.02-0.08c-0.02-0.1-0.05-0.21-0.07-0.31c-0.03-0.11-0.04-0.17-0.07-0.25
					c0-0.04-0.02-0.07-0.03-0.11c-0.01-0.04-0.03-0.12-0.05-0.18l-0.04-0.12c-0.02-0.05-0.03-0.1-0.05-0.16
					c-0.03-0.09-0.06-0.19-0.1-0.28c-0.03-0.09-0.07-0.19-0.1-0.28c-0.07-0.19-0.15-0.37-0.22-0.56c-0.3-0.72-0.63-1.43-0.94-2.14
					c-0.17-0.37-0.31-0.75-0.44-1.13l-0.04,0.06c-0.06,0.1-0.12,0.2-0.17,0.3c-0.01,1.64-1.65,3.63-1.65,3.63l-1.64-2.41l-1.45,2.21
					c-0.21,0.11-0.42,0.49-0.58,1.02c-0.05,0.15-0.09,0.3-0.13,0.47c-0.03,0.11-0.06,0.23-0.08,0.35c-0.01,0.06-0.03,0.12-0.04,0.18
					l-0.04,0.19l0,0.03c-0.03,0.13-0.05,0.26-0.07,0.4s-0.05,0.29-0.07,0.44c-0.02,0.1-0.03,0.19-0.04,0.29
					c-0.03,0.18-0.06,0.37-0.08,0.56c-0.02,0.11-0.03,0.21-0.04,0.32l-0.05,0.42c0.1,0.34,0.22,0.68,0.34,1.01
					c0.08,0.18,0.12,0.38,0.13,0.57c2.55,0.74,5.25,0.75,7.81,0.03c0-0.01,0-0.01,0-0.02c-0.04-0.19-0.05-0.38-0.05-0.57l0,0
					c0.04-0.53,0.12-1.06,0.21-1.59c0.03-0.26,0.05-0.52,0.04-0.78l0-0.09C61.73,146.12,61.73,146.04,61.72,145.97z M61.72,145.97
					c0-0.08,0-0.17-0.01-0.25c-0.01-0.08-0.01-0.16-0.02-0.24c-0.01-0.08-0.02-0.16-0.03-0.24c-0.01-0.08-0.02-0.16-0.04-0.24
					c-0.01-0.08-0.03-0.16-0.04-0.24c0-0.03-0.01-0.05-0.02-0.08c-0.02-0.1-0.05-0.21-0.07-0.31c-0.03-0.11-0.04-0.17-0.07-0.25
					c0-0.04-0.02-0.07-0.03-0.11c-0.01-0.04-0.03-0.12-0.05-0.18l-0.04-0.12c-0.02-0.05-0.03-0.1-0.05-0.16
					c-0.03-0.09-0.06-0.19-0.1-0.28c-0.03-0.09-0.07-0.19-0.1-0.28c-0.07-0.19-0.15-0.37-0.22-0.56c-0.3-0.72-0.63-1.43-0.94-2.14
					c-0.17-0.37-0.31-0.75-0.44-1.13l-0.04,0.06c-0.06,0.1-0.12,0.2-0.17,0.3c-0.01,1.64-1.65,3.63-1.65,3.63l-1.64-2.41l-1.45,2.21
					c-0.21,0.11-0.42,0.49-0.58,1.02c-0.05,0.15-0.09,0.3-0.13,0.47c-0.03,0.11-0.06,0.23-0.08,0.35c-0.01,0.06-0.03,0.12-0.04,0.18
					l-0.04,0.19l0,0.03c-0.03,0.13-0.05,0.26-0.07,0.4s-0.05,0.29-0.07,0.44c-0.02,0.1-0.03,0.19-0.04,0.29
					c-0.03,0.18-0.06,0.37-0.08,0.56c-0.02,0.11-0.03,0.21-0.04,0.32l-0.05,0.42c0.1,0.34,0.22,0.68,0.34,1.01
					c0.08,0.18,0.12,0.38,0.13,0.57c2.55,0.74,5.25,0.75,7.81,0.03c0-0.01,0-0.01,0-0.02c-0.04-0.19-0.05-0.38-0.05-0.57l0,0
					c0.04-0.53,0.12-1.06,0.21-1.59c0.03-0.26,0.05-0.52,0.04-0.78l0-0.09C61.73,146.12,61.73,146.04,61.72,145.97z M61.72,145.97
					c0-0.08,0-0.17-0.01-0.25c-0.01-0.08-0.01-0.16-0.02-0.24c-0.01-0.08-0.02-0.16-0.03-0.24c-0.01-0.08-0.02-0.16-0.04-0.24
					c-0.01-0.08-0.03-0.16-0.04-0.24c0-0.03-0.01-0.05-0.02-0.08c-0.02-0.1-0.05-0.21-0.07-0.31c-0.03-0.11-0.04-0.17-0.07-0.25
					c0-0.04-0.02-0.07-0.03-0.11c-0.01-0.04-0.03-0.12-0.05-0.18l-0.04-0.12c-0.02-0.05-0.03-0.1-0.05-0.16
					c-0.03-0.09-0.06-0.19-0.1-0.28c-0.03-0.09-0.07-0.19-0.1-0.28c-0.07-0.19-0.15-0.37-0.22-0.56c-0.3-0.72-0.63-1.43-0.94-2.14
					c-0.17-0.37-0.31-0.75-0.44-1.13l-0.04,0.06c-0.06,0.1-0.12,0.2-0.17,0.3c-0.01,1.64-1.65,3.63-1.65,3.63l-1.64-2.41l-1.45,2.21
					c-0.21,0.11-0.42,0.49-0.58,1.02c-0.05,0.15-0.09,0.3-0.13,0.47c-0.03,0.11-0.06,0.23-0.08,0.35c-0.01,0.06-0.03,0.12-0.04,0.18
					l-0.04,0.19l0,0.03c-0.03,0.13-0.05,0.26-0.07,0.4s-0.05,0.29-0.07,0.44c-0.02,0.1-0.03,0.19-0.04,0.29
					c-0.03,0.18-0.06,0.37-0.08,0.56c-0.02,0.11-0.03,0.21-0.04,0.32l-0.05,0.42c0.1,0.34,0.22,0.68,0.34,1.01
					c0.08,0.18,0.12,0.38,0.13,0.57c2.55,0.74,5.25,0.75,7.81,0.03c0-0.01,0-0.01,0-0.02c-0.04-0.19-0.05-0.38-0.05-0.57l0,0
					c0.04-0.53,0.12-1.06,0.21-1.59c0.03-0.26,0.05-0.52,0.04-0.78l0-0.09C61.73,146.12,61.73,146.04,61.72,145.97z M61.72,145.97
					c0-0.08,0-0.17-0.01-0.25c-0.01-0.08-0.01-0.16-0.02-0.24c-0.01-0.08-0.02-0.16-0.03-0.24c-0.01-0.08-0.02-0.16-0.04-0.24
					c-0.01-0.08-0.03-0.16-0.04-0.24c0-0.03-0.01-0.05-0.02-0.08c-0.02-0.1-0.05-0.21-0.07-0.31c-0.03-0.11-0.04-0.17-0.07-0.25
					c0-0.04-0.02-0.07-0.03-0.11c-0.01-0.04-0.03-0.12-0.05-0.18l-0.04-0.12c-0.02-0.05-0.03-0.1-0.05-0.16
					c-0.03-0.09-0.06-0.19-0.1-0.28c-0.03-0.09-0.07-0.19-0.1-0.28c-0.07-0.19-0.15-0.37-0.22-0.56c-0.3-0.72-0.63-1.43-0.94-2.14
					c-0.17-0.37-0.31-0.75-0.44-1.13l-0.04,0.06c-0.06,0.1-0.12,0.2-0.17,0.3c-0.01,1.64-1.65,3.63-1.65,3.63l-1.64-2.41l-1.45,2.21
					c-0.21,0.11-0.42,0.49-0.58,1.02c-0.05,0.15-0.09,0.3-0.13,0.47c-0.03,0.11-0.06,0.23-0.08,0.35c-0.01,0.06-0.03,0.12-0.04,0.18
					l-0.04,0.19l0,0.03c-0.03,0.13-0.05,0.26-0.07,0.4s-0.05,0.29-0.07,0.44c-0.02,0.1-0.03,0.19-0.04,0.29
					c-0.03,0.18-0.06,0.37-0.08,0.56c-0.02,0.11-0.03,0.21-0.04,0.32l-0.05,0.42c0.1,0.34,0.22,0.68,0.34,1.01
					c0.08,0.18,0.12,0.38,0.13,0.57c2.55,0.74,5.25,0.75,7.81,0.03c0-0.01,0-0.01,0-0.02c-0.04-0.19-0.05-0.38-0.05-0.57l0,0
					c0.04-0.53,0.12-1.06,0.21-1.59c0.03-0.26,0.05-0.52,0.04-0.78l0-0.09C61.73,146.12,61.73,146.04,61.72,145.97z"/>
				<path class="st13" d="M55.97,140.62l-0.14-0.02c-0.21-0.03-0.42-0.07-0.62-0.13l-0.08-0.02c-0.51-0.15-1.06-0.41-1.18-0.86
					c-0.04-0.15-0.03-0.3,0.01-0.44c0.07-0.25,0.17-0.49,0.29-0.71l0-0.01c0.02-0.03,0.03-0.06,0.05-0.09
					c0.17-0.33,0.43-0.62,0.75-0.81l-0.25,0.04l0,0l-2.11,0.33l-3.28,0.51c0,0-0.58-0.12-1.38,2.06c0,0.03-0.02,0.05-0.03,0.08
					c-0.19,0.53-0.4,1.2-0.61,2.03c-0.15,0.58-0.28,1.14-0.4,1.7c-0.04,0.17-0.07,0.33-0.11,0.49c0.37,0.44,0.77,0.86,1.2,1.25
					l0.07,0.06c0.84,0.77,1.77,1.43,2.76,1.97l0.04,0.02c0.63,0.34,1.28,0.63,1.95,0.87l0.18,0.06c0.04-0.38,0.08-0.81,0.13-1.25
					c0-0.04,0-0.09,0.02-0.13l0.05-0.42c0.01-0.11,0.03-0.21,0.04-0.32c0.03-0.18,0.05-0.37,0.08-0.56c0.01-0.1,0.03-0.19,0.04-0.29
					c0.02-0.15,0.05-0.3,0.07-0.44c0.03-0.14,0.05-0.27,0.07-0.4l0-0.03l0.04-0.19c0.01-0.06,0.03-0.12,0.04-0.18
					c0.03-0.12,0.05-0.24,0.08-0.35c0.04-0.17,0.09-0.33,0.13-0.47c0.17-0.54,0.36-0.92,0.58-1.02l1.45-2.21l0.06-0.09l0.03-0.04
					L55.97,140.62z"/>
				<path class="st14" d="M55.84,140.62l-1.54,2.35c-0.21,0.11-0.41,0.47-0.57,0.99c-0.05,0.15-0.1,0.32-0.14,0.5
					c-0.21,0.9-0.37,1.81-0.48,2.72c0,0.04,0,0.08-0.02,0.12c-0.07,0.58-0.13,1.15-0.18,1.65c-0.67-0.24-1.32-0.53-1.95-0.87
					l-0.04-0.02c-1-0.54-1.92-1.21-2.76-1.97l-0.07-0.06c-0.43-0.39-0.83-0.81-1.2-1.25c-0.05-0.06-0.1-0.11-0.14-0.17
					c0.02-0.11,0.05-0.21,0.07-0.32c0.12-0.55,0.25-1.12,0.4-1.69c0.19-0.79,0.43-1.57,0.72-2.33c0.01-0.02,0.02-0.04,0.03-0.07
					c0.74-1.89,1.27-1.78,1.27-1.78l3.46-0.54l2.19-0.34l-0.07,0.04l0,0c-0.24,0.17-0.45,0.39-0.6,0.64l-0.06,0.1
					c-0.03,0.04-0.05,0.08-0.07,0.13c-0.12,0.23-0.22,0.47-0.29,0.73c-0.07,0.2-0.05,0.41,0.05,0.6c0.21,0.4,0.8,0.63,1.28,0.75
					l0.08,0.02C55.4,140.56,55.62,140.6,55.84,140.62z"/>
				<path class="st13" d="M67.85,144.88l-0.08-1.85c0.38-2.91-0.35-3.09-0.35-3.09l-0.86-0.42l-0.02,0l-3.47-1.7l-0.13-0.07
					l-0.04-0.02l0,0l-0.45-0.22l0,0l-0.29-0.14l-0.54-0.26l-0.18-0.09c0,0,0,0.03,0,0.1s0,0.24,0,0.44c0,0.06,0,0.12,0,0.18
					c0,0.21,0.02,0.45,0.03,0.73c0.03,0.71,0.1,1.66,0.22,2.79c0.07,0.65,0.15,1.36,0.25,2.13c0.06,0.45,0.11,0.9,0.13,1.34
					c0.09,1.48,0.03,2.96-0.16,4.43l0.19-0.06c0.51-0.17,1.02-0.37,1.51-0.6l0,0c0.96-0.44,1.86-0.99,2.69-1.64l0.04-0.03
					c0.54-0.42,1.04-0.87,1.52-1.36L67.85,144.88z"/>
				<path class="st14" d="M68.03,144.88l-0.08-1.85c0.38-2.91-0.35-3.09-0.35-3.09l-1.04-0.51l-0.02,0l-3.48-1.71l-0.16-0.08
					l-0.03-0.01l-0.26-0.13l-0.34-0.17L61.61,137l0,0.09c0,0.05,0,0.12,0,0.21l0,0c0,0.05,0,0.12,0,0.19c0,0.07,0,0.12,0,0.18
					c0,0.21,0.02,0.48,0.03,0.79c0.03,0.66,0.09,1.53,0.2,2.57c0.07,0.71,0.16,1.5,0.28,2.35c0.06,0.45,0.11,0.9,0.13,1.35
					c0.09,1.46,0.04,2.92-0.15,4.37c0.51-0.17,1.02-0.37,1.51-0.6l0,0c0.96-0.44,1.86-0.99,2.69-1.64l0.04-0.03
					c0.54-0.42,1.04-0.87,1.52-1.36c0.06-0.06,0.12-0.12,0.18-0.19L68.03,144.88z"/>
				<path class="st13" d="M53.4,125.88c-0.21,0.29-0.19,0.68-0.29,1.04c-0.23,0.81-1.11,1.32-1.32,2.14
					c-0.12,0.48,0.01,0.99-0.07,1.47c-0.15,0.9-0.97,1.5-1.43,2.28c-0.47,0.82-0.55,1.8-0.2,2.68c0.11,0.22,0.19,0.45,0.26,0.68
					c0.05,0.35,0.03,0.7-0.07,1.04c-0.16,0.74-0.32,1.55,0.03,2.22c0.3,0.56,0.92,0.9,1.55,1.01c0.64,0.07,1.28,0.05,1.91-0.08
					c0.69-0.1,1.39-0.22,2-0.57l-2.23-5.45c-0.22-0.55-0.45-1.12-0.45-1.71c0.02-0.44,0.12-0.87,0.29-1.28
					c0.44-1.17,1.08-2.27,1.89-3.23c0.32,0.38,0.3,0.96,0.57,1.38c0.24,0.31,0.56,0.55,0.92,0.7c1.06,0.53,2.16,0.99,3.28,1.39
					c0.24,0.03,0.4,0.25,0.37,0.48c-0.01,0.06-0.03,0.11-0.05,0.16l-0.86,3.5c-0.19,0.77-0.36,1.66,0.12,2.29
					c0.48,0.63,1.56,0.93,1.56,1.73c-0.01,0.13-0.01,0.26,0,0.38c0.05,0.38,0.5,0.56,0.88,0.58c1.29,0.03,2.41-0.88,2.65-2.15
					c0.21-1.38-0.69-2.65-1.07-3.99c-0.63-2.26,0.23-4.9-1.02-6.89c-1.01-1.61-2.87-2.06-4.63-2.26
					C56.75,125.26,54.28,124.73,53.4,125.88z"/>
				<path class="st11" d="M53.41,125.67c-0.21,0.29-0.19,0.68-0.29,1.04c-0.23,0.81-1.11,1.32-1.32,2.14
					c-0.12,0.48,0.01,0.99-0.07,1.47c-0.15,0.9-0.97,1.5-1.43,2.28c-0.47,0.82-0.55,1.8-0.2,2.68c0.11,0.22,0.19,0.45,0.26,0.68
					c0.05,0.35,0.03,0.7-0.07,1.04c-0.16,0.74-0.32,1.55,0.03,2.22c0.3,0.56,0.92,0.9,1.55,1.01c0.64,0.07,1.28,0.05,1.91-0.08
					c0.69-0.1,1.39-0.22,2-0.57l-2.23-5.45c-0.22-0.55-0.45-1.12-0.45-1.71c0.02-0.44,0.12-0.87,0.29-1.28
					c0.44-1.17,1.08-2.27,1.89-3.23c0.32,0.38,0.3,0.96,0.57,1.38c0.24,0.31,0.56,0.55,0.92,0.7c1.06,0.53,2.16,0.99,3.28,1.39
					c0.24,0.03,0.4,0.25,0.37,0.48c-0.01,0.06-0.03,0.11-0.05,0.16l-0.86,3.5c-0.19,0.77-0.36,1.66,0.12,2.29s1.56,0.93,1.56,1.73
					c-0.01,0.13-0.01,0.26,0,0.38c0.05,0.38,0.5,0.56,0.88,0.58c1.29,0.03,2.41-0.88,2.65-2.15c0.21-1.38-0.69-2.65-1.07-3.99
					c-0.63-2.26,0.23-4.9-1.02-6.89c-1.01-1.61-2.87-2.06-4.63-2.26C56.75,125.05,54.28,124.52,53.41,125.67z"/>
			</g>
			<g class="st9">
				<path class="st5" d="M71.61,185.83c-0.01,3.38-1.23,6.64-3.44,9.19c-0.11,0.13-0.22,0.25-0.34,0.37
					c-0.06,0.06-0.12,0.13-0.18,0.19c-0.47,0.49-0.98,0.95-1.52,1.36l-0.04,0.03c-0.83,0.65-1.73,1.19-2.69,1.64l0,0
					c-0.49,0.23-0.99,0.43-1.51,0.6l-0.19,0.06c-0.12,0.04-0.24,0.07-0.36,0.11l-0.05,0.01c-2.56,0.72-5.26,0.71-7.81-0.03l-0.02,0
					c-0.21-0.06-0.42-0.12-0.61-0.19l-0.18-0.06c-0.67-0.24-1.32-0.53-1.95-0.87l-0.04-0.02c-1-0.54-1.92-1.21-2.76-1.97l-0.07-0.06
					c-0.43-0.39-0.83-0.81-1.2-1.25c-0.05-0.06-0.1-0.11-0.14-0.17c-0.09-0.11-0.18-0.22-0.26-0.33
					c-4.76-6.19-3.61-15.07,2.58-19.83c6.19-4.76,15.07-3.61,19.83,2.58C70.59,179.63,71.62,182.68,71.61,185.83z"/>
				
					<linearGradient id="SVGID_3_" gradientUnits="userSpaceOnUse" x1="84.2569" y1="43.205" x2="105.5733" y2="43.205" gradientTransform="matrix(1 4.361738e-03 4.361738e-03 -1 -37.9003 229.9109)">
					<stop  offset="0" style="stop-color:#808080;stop-opacity:0.25"/>
					<stop  offset="0.54" style="stop-color:#808080;stop-opacity:0.12"/>
					<stop  offset="1" style="stop-color:#808080;stop-opacity:0.1"/>
				</linearGradient>
				<path class="st15" d="M67.81,194.92l-0.08-1.87c0.38-2.96-0.35-3.15-0.35-3.15l-1.04-0.52l-0.02-0.01l-3.48-1.74l-0.16-0.08
					l-0.02-0.09c0,0,0.07-0.21-0.28-0.24c-0.07-0.17-0.09-0.35-0.09-0.53c0.04-0.4,0.34-0.71,0.58-1.04c0.6-0.89,0.85-1.97,0.7-3.03
					c-0.16-1.05-0.55-2.05-1.15-2.93l-0.07-0.1c0.08-0.3,0.13-0.61,0.13-0.92c0.01-2.39-2.4-4.34-5.39-4.36
					c-2.7-0.01-4.96,1.58-5.36,3.66c-0.06,0.08-0.12,0.17-0.17,0.26c-0.55,1.03,0.29,1.8,0.31,2.82c0.02,0.71-0.46,1.31-0.84,1.91
					c-0.38,0.6-0.66,1.39-0.28,1.99c0.13,0.2,0.32,0.34,0.43,0.55c0.4,0.71-0.27,1.52-0.52,2.3c-0.03,0.09-0.05,0.18-0.07,0.28
					L49,188.34c0,0-0.53-0.11-1.27,1.81c-0.01,0.02-0.02,0.05-0.03,0.07c-0.29,0.77-0.52,1.56-0.72,2.37
					c-0.15,0.59-0.28,1.16-0.4,1.72c-0.03,0.11-0.05,0.22-0.07,0.33c0.05,0.06,0.1,0.12,0.14,0.18c0.37,0.45,0.77,0.88,1.2,1.28
					l0.07,0.07c0.84,0.78,1.76,1.45,2.76,2.01l0.04,0.02c0.63,0.35,1.28,0.64,1.95,0.89l0.18,0.06c0.21,0.07,0.4,0.13,0.61,0.2
					c0.01,0.03,0.01,0.06,0.02,0.1c0-0.03,0-0.06,0-0.09c2.55,0.75,5.26,0.76,7.81,0.03l0.05-0.01c0.12-0.03,0.24-0.07,0.36-0.11
					l0.19-0.06c0.51-0.17,1.02-0.38,1.51-0.61l0,0c0.96-0.45,1.86-1.01,2.69-1.66l0.04-0.03c0.54-0.42,1.05-0.89,1.52-1.39
					c0.06-0.06,0.12-0.12,0.18-0.19L67.81,194.92z"/>
				<path class="st14" d="M51.88,181.37c0.02,0.7-0.46,1.29-0.84,1.87s-0.66,1.37-0.28,1.95c0.13,0.19,0.32,0.34,0.43,0.54
					c0.4,0.7-0.27,1.5-0.52,2.26c-0.28,0.88,0.04,1.87,0.63,2.59c0.59,0.72,1.4,1.21,2.22,1.64c1.73,0.93,3.58,1.6,5.51,1.99
					c1.01,0.19,2.08,0.28,3.02-0.12c1.35-0.61,2.11-2.07,1.83-3.53c-0.23-1.1-1.03-1.98-1.44-3.01c-0.1-0.2-0.14-0.43-0.13-0.65
					c0.04-0.39,0.34-0.7,0.58-1.02c0.59-0.86,0.84-1.92,0.69-2.96c-0.16-1.04-0.55-2.02-1.15-2.89c-0.21-0.36-0.49-0.67-0.83-0.92
					c-0.45-0.31-1.01-0.4-1.55-0.48c-2.26-0.33-4.6-0.68-6.87-0.81c-0.72-0.04-1.25,0.1-1.61,0.77
					C51.02,179.6,51.86,180.36,51.88,181.37z"/>
				<path class="st12" d="M63.48,188.49l-4.31,6.08l-4.18-0.38c0,0-0.14,1.46-1.8-3.83c-0.93-2.96,0.98-1.92,1.36-2.74
					c0.38-0.82,1.05-1.53,1.11-2.14c0.14-1.29-0.25-2.03-0.25-2.03l4.55-0.53c-0.21,0.61-0.24,1.27-0.08,1.9
					C60.43,187.2,63.48,188.49,63.48,188.49z"/>
				
					<ellipse transform="matrix(4.361738e-03 -1 1 4.361738e-03 -122.1735 235.302)" class="st14" cx="57.08" cy="179" rx="4.26" ry="5.41"/>
				<path class="st13" d="M59.87,184.83c-1.21,0.91-2.79,1.15-4.22,0.66c0.14-1.29-0.25-2.03-0.25-2.03l4.55-0.53
					C59.74,183.54,59.71,184.2,59.87,184.83z"/>
				<circle class="st12" cx="57.14" cy="181.01" r="4.55"/>
				<path class="st13" d="M63.03,189.18l-0.1-0.42l-0.09-0.37l-0.13-0.54l-0.02-0.1l-0.02-0.08c0,0,0.11-0.33-0.6-0.22l-0.13,0.02
					c-0.11,0.02-0.24,0.05-0.39,0.09l-0.14,0.04l-0.18,0.06l0,0c-0.57,0.18-1.08,0.49-1.51,0.9c-0.19,0.18-0.36,0.39-0.51,0.61
					c-0.01,0.02-0.03,0.04-0.04,0.06c-0.05,0.08-0.09,0.16-0.13,0.24c-0.01,1.64-1.65,3.63-1.65,3.63l-1.59-2.32l-0.03-0.05
					l-0.38-0.55l-0.13-0.18l-0.05-0.06l-0.83-1.12l-0.21-0.28l-0.07-0.09l-0.1-0.14L53.75,188l-0.94,0.54l-1.25,0.72l-0.75,4.73
					l0,0.13l0.02,0.39l0.14,2.57l0,0.04l-0.27,1.06l0.04,0.02c0.63,0.34,1.28,0.63,1.95,0.87l0.18,0.06
					c0.21,0.07,0.4,0.13,0.61,0.19c0.01,0.03,0.01,0.06,0.02,0.09c0-0.03,0-0.06,0-0.09c2.55,0.74,5.25,0.75,7.81,0.03l0.05-0.01
					c0.12-0.03,0.24-0.07,0.36-0.11l0.19-0.06c0.51-0.17,1.02-0.37,1.51-0.6l0.19-3.72l0.14-2.68l0-0.15L63.03,189.18z"/>
				<path class="st14" d="M61.5,196.09c0-0.08,0-0.17-0.01-0.25c-0.01-0.08-0.01-0.16-0.02-0.24c-0.01-0.08-0.02-0.16-0.03-0.24
					c-0.01-0.08-0.02-0.16-0.04-0.24c-0.01-0.08-0.03-0.16-0.04-0.24c0-0.03-0.01-0.05-0.02-0.08c-0.02-0.1-0.05-0.21-0.07-0.31
					c-0.03-0.11-0.04-0.17-0.07-0.25c0-0.04-0.02-0.07-0.03-0.11c-0.01-0.04-0.03-0.12-0.05-0.18l-0.04-0.12
					c-0.02-0.05-0.03-0.1-0.05-0.16c-0.03-0.09-0.06-0.19-0.1-0.28c-0.03-0.09-0.07-0.19-0.1-0.28c-0.07-0.19-0.15-0.37-0.22-0.56
					c-0.3-0.72-0.63-1.43-0.94-2.14c-0.17-0.37-0.31-0.75-0.44-1.13l-0.04,0.06c-0.06,0.1-0.12,0.2-0.17,0.3
					c-0.01,1.64-1.65,3.63-1.65,3.63l-1.64-2.41l-1.45,2.21c-0.21,0.11-0.42,0.49-0.58,1.02c-0.05,0.15-0.09,0.3-0.13,0.47
					c-0.03,0.11-0.06,0.23-0.08,0.35c-0.01,0.06-0.03,0.12-0.04,0.18l-0.04,0.19l0,0.03c-0.03,0.13-0.05,0.26-0.07,0.4
					c-0.02,0.14-0.05,0.29-0.07,0.44c-0.02,0.1-0.03,0.19-0.04,0.29c-0.03,0.18-0.06,0.37-0.08,0.56c-0.02,0.11-0.03,0.21-0.04,0.32
					l-0.05,0.42c0.1,0.34,0.22,0.68,0.34,1.01c0.08,0.18,0.12,0.38,0.13,0.57c2.55,0.74,5.25,0.75,7.81,0.03c0-0.01,0-0.01,0-0.02
					c-0.04-0.19-0.05-0.38-0.05-0.57l0,0c0.04-0.53,0.12-1.06,0.21-1.59c0.03-0.26,0.05-0.52,0.04-0.78l0-0.09
					C61.51,196.24,61.51,196.17,61.5,196.09z M61.5,196.09c0-0.08,0-0.17-0.01-0.25c-0.01-0.08-0.01-0.16-0.02-0.24
					c-0.01-0.08-0.02-0.16-0.03-0.24c-0.01-0.08-0.02-0.16-0.04-0.24c-0.01-0.08-0.03-0.16-0.04-0.24c0-0.03-0.01-0.05-0.02-0.08
					c-0.02-0.1-0.05-0.21-0.07-0.31c-0.03-0.11-0.04-0.17-0.07-0.25c0-0.04-0.02-0.07-0.03-0.11c-0.01-0.04-0.03-0.12-0.05-0.18
					l-0.04-0.12c-0.02-0.05-0.03-0.1-0.05-0.16c-0.03-0.09-0.06-0.19-0.1-0.28c-0.03-0.09-0.07-0.19-0.1-0.28
					c-0.07-0.19-0.15-0.37-0.22-0.56c-0.3-0.72-0.63-1.43-0.94-2.14c-0.17-0.37-0.31-0.75-0.44-1.13l-0.04,0.06
					c-0.06,0.1-0.12,0.2-0.17,0.3c-0.01,1.64-1.65,3.63-1.65,3.63l-1.64-2.41l-1.45,2.21c-0.21,0.11-0.42,0.49-0.58,1.02
					c-0.05,0.15-0.09,0.3-0.13,0.47c-0.03,0.11-0.06,0.23-0.08,0.35c-0.01,0.06-0.03,0.12-0.04,0.18l-0.04,0.19l0,0.03
					c-0.03,0.13-0.05,0.26-0.07,0.4c-0.02,0.14-0.05,0.29-0.07,0.44c-0.02,0.1-0.03,0.19-0.04,0.29c-0.03,0.18-0.06,0.37-0.08,0.56
					c-0.02,0.11-0.03,0.21-0.04,0.32l-0.05,0.42c0.1,0.34,0.22,0.68,0.34,1.01c0.08,0.18,0.12,0.38,0.13,0.57
					c2.55,0.74,5.25,0.75,7.81,0.03c0-0.01,0-0.01,0-0.02c-0.04-0.19-0.05-0.38-0.05-0.57l0,0c0.04-0.53,0.12-1.06,0.21-1.59
					c0.03-0.26,0.05-0.52,0.04-0.78l0-0.09C61.51,196.24,61.51,196.17,61.5,196.09z M61.5,196.09c0-0.08,0-0.17-0.01-0.25
					c-0.01-0.08-0.01-0.16-0.02-0.24c-0.01-0.08-0.02-0.16-0.03-0.24c-0.01-0.08-0.02-0.16-0.04-0.24
					c-0.01-0.08-0.03-0.16-0.04-0.24c0-0.03-0.01-0.05-0.02-0.08c-0.02-0.1-0.05-0.21-0.07-0.31c-0.03-0.11-0.04-0.17-0.07-0.25
					c0-0.04-0.02-0.07-0.03-0.11c-0.01-0.04-0.03-0.12-0.05-0.18l-0.04-0.12c-0.02-0.05-0.03-0.1-0.05-0.16
					c-0.03-0.09-0.06-0.19-0.1-0.28c-0.03-0.09-0.07-0.19-0.1-0.28c-0.07-0.19-0.15-0.37-0.22-0.56c-0.3-0.72-0.63-1.43-0.94-2.14
					c-0.17-0.37-0.31-0.75-0.44-1.13l-0.04,0.06c-0.06,0.1-0.12,0.2-0.17,0.3c-0.01,1.64-1.65,3.63-1.65,3.63l-1.64-2.41l-1.45,2.21
					c-0.21,0.11-0.42,0.49-0.58,1.02c-0.05,0.15-0.09,0.3-0.13,0.47c-0.03,0.11-0.06,0.23-0.08,0.35c-0.01,0.06-0.03,0.12-0.04,0.18
					l-0.04,0.19l0,0.03c-0.03,0.13-0.05,0.26-0.07,0.4c-0.02,0.14-0.05,0.29-0.07,0.44c-0.02,0.1-0.03,0.19-0.04,0.29
					c-0.03,0.18-0.06,0.37-0.08,0.56c-0.02,0.11-0.03,0.21-0.04,0.32l-0.05,0.42c0.1,0.34,0.22,0.68,0.34,1.01
					c0.08,0.18,0.12,0.38,0.13,0.57c2.55,0.74,5.25,0.75,7.81,0.03c0-0.01,0-0.01,0-0.02c-0.04-0.19-0.05-0.38-0.05-0.57l0,0
					c0.04-0.53,0.12-1.06,0.21-1.59c0.03-0.26,0.05-0.52,0.04-0.78l0-0.09C61.51,196.24,61.51,196.17,61.5,196.09z M63.73,192.2
					L63,189.23l-0.12-0.51l-0.03-0.14l0,0l-0.18-0.72c0-0.01,0-0.01,0-0.02l0,0c0-0.03,0-0.06-0.01-0.09
					c-0.03-0.05-0.1-0.11-0.26-0.13c-0.06,0-0.12,0-0.18,0l0,0c-0.18,0.02-0.36,0.05-0.53,0.1c-0.09,0.02-0.18,0.05-0.27,0.08
					l-0.18,0.06l-0.02,0c-0.48,0.16-0.93,0.4-1.31,0.72c-0.26,0.21-0.48,0.46-0.67,0.73l-0.04,0.06c-0.06,0.1-0.12,0.2-0.17,0.3
					c-0.01,1.64-1.65,3.63-1.65,3.63l-1.64-2.41l-0.09-0.14l-0.02-0.02l-0.24-0.35l-0.18-0.24l-0.05-0.06l-0.85-1.14l0,0l-0.27-0.37
					l0-0.01l-0.09-0.13l-0.18-0.24l-0.63,0.36l-1.56,0.9l-0.74,4.68l0,0.05l0.02,0.34l0.14,2.61l0,0.15l-0.24,0.94
					c0.63,0.34,1.28,0.63,1.95,0.87l0.18,0.06c0.21,0.07,0.4,0.13,0.61,0.19c0.01,0.03,0.01,0.06,0.02,0.09c0-0.03,0-0.06,0-0.09
					c2.55,0.74,5.25,0.75,7.81,0.03l0.05-0.01c0.12-0.03,0.24-0.07,0.36-0.11l0.19-0.06c0.51-0.17,1.02-0.37,1.51-0.6l0,0l0.19-3.72
					l0.14-2.66L63.73,192.2z M53.47,199.33c0.01,0.03,0.01,0.06,0.02,0.09c0-0.03,0-0.06,0-0.09L53.47,199.33z M61.5,196.09
					c0-0.08,0-0.17-0.01-0.25c-0.01-0.08-0.01-0.16-0.02-0.24c-0.01-0.08-0.02-0.16-0.03-0.24c-0.01-0.08-0.02-0.16-0.04-0.24
					c-0.01-0.08-0.03-0.16-0.04-0.24c0-0.03-0.01-0.05-0.02-0.08c-0.02-0.1-0.05-0.21-0.07-0.31c-0.03-0.11-0.04-0.17-0.07-0.25
					c0-0.04-0.02-0.07-0.03-0.11c-0.01-0.04-0.03-0.12-0.05-0.18l-0.04-0.12c-0.02-0.05-0.03-0.1-0.05-0.16
					c-0.03-0.09-0.06-0.19-0.1-0.28c-0.03-0.09-0.07-0.19-0.1-0.28c-0.07-0.19-0.15-0.37-0.22-0.56c-0.3-0.72-0.63-1.43-0.94-2.14
					c-0.17-0.37-0.31-0.75-0.44-1.13l-0.04,0.06c-0.06,0.1-0.12,0.2-0.17,0.3c-0.01,1.64-1.65,3.63-1.65,3.63l-1.64-2.41l-1.45,2.21
					c-0.21,0.11-0.42,0.49-0.58,1.02c-0.05,0.15-0.09,0.3-0.13,0.47c-0.03,0.11-0.06,0.23-0.08,0.35c-0.01,0.06-0.03,0.12-0.04,0.18
					l-0.04,0.19l0,0.03c-0.03,0.13-0.05,0.26-0.07,0.4c-0.02,0.14-0.05,0.29-0.07,0.44c-0.02,0.1-0.03,0.19-0.04,0.29
					c-0.03,0.18-0.06,0.37-0.08,0.56c-0.02,0.11-0.03,0.21-0.04,0.32l-0.05,0.42c0.1,0.34,0.22,0.68,0.34,1.01
					c0.08,0.18,0.12,0.38,0.13,0.57c2.55,0.74,5.25,0.75,7.81,0.03c0-0.01,0-0.01,0-0.02c-0.04-0.19-0.05-0.38-0.05-0.57l0,0
					c0.04-0.53,0.12-1.06,0.21-1.59c0.03-0.26,0.05-0.52,0.04-0.78l0-0.09C61.51,196.24,61.51,196.17,61.5,196.09z M61.5,196.09
					c0-0.08,0-0.17-0.01-0.25c-0.01-0.08-0.01-0.16-0.02-0.24c-0.01-0.08-0.02-0.16-0.03-0.24c-0.01-0.08-0.02-0.16-0.04-0.24
					c-0.01-0.08-0.03-0.16-0.04-0.24c0-0.03-0.01-0.05-0.02-0.08c-0.02-0.1-0.05-0.21-0.07-0.31c-0.03-0.11-0.04-0.17-0.07-0.25
					c0-0.04-0.02-0.07-0.03-0.11c-0.01-0.04-0.03-0.12-0.05-0.18l-0.04-0.12c-0.02-0.05-0.03-0.1-0.05-0.16
					c-0.03-0.09-0.06-0.19-0.1-0.28c-0.03-0.09-0.07-0.19-0.1-0.28c-0.07-0.19-0.15-0.37-0.22-0.56c-0.3-0.72-0.63-1.43-0.94-2.14
					c-0.17-0.37-0.31-0.75-0.44-1.13l-0.04,0.06c-0.06,0.1-0.12,0.2-0.17,0.3c-0.01,1.64-1.65,3.63-1.65,3.63l-1.64-2.41l-1.45,2.21
					c-0.21,0.11-0.42,0.49-0.58,1.02c-0.05,0.15-0.09,0.3-0.13,0.47c-0.03,0.11-0.06,0.23-0.08,0.35c-0.01,0.06-0.03,0.12-0.04,0.18
					l-0.04,0.19l0,0.03c-0.03,0.13-0.05,0.26-0.07,0.4c-0.02,0.14-0.05,0.29-0.07,0.44c-0.02,0.1-0.03,0.19-0.04,0.29
					c-0.03,0.18-0.06,0.37-0.08,0.56c-0.02,0.11-0.03,0.21-0.04,0.32l-0.05,0.42c0.1,0.34,0.22,0.68,0.34,1.01
					c0.08,0.18,0.12,0.38,0.13,0.57c2.55,0.74,5.25,0.75,7.81,0.03c0-0.01,0-0.01,0-0.02c-0.04-0.19-0.05-0.38-0.05-0.57l0,0
					c0.04-0.53,0.12-1.06,0.21-1.59c0.03-0.26,0.05-0.52,0.04-0.78l0-0.09C61.51,196.24,61.51,196.17,61.5,196.09z M61.5,196.09
					c0-0.08,0-0.17-0.01-0.25c-0.01-0.08-0.01-0.16-0.02-0.24c-0.01-0.08-0.02-0.16-0.03-0.24c-0.01-0.08-0.02-0.16-0.04-0.24
					c-0.01-0.08-0.03-0.16-0.04-0.24c0-0.03-0.01-0.05-0.02-0.08c-0.02-0.1-0.05-0.21-0.07-0.31c-0.03-0.11-0.04-0.17-0.07-0.25
					c0-0.04-0.02-0.07-0.03-0.11c-0.01-0.04-0.03-0.12-0.05-0.18l-0.04-0.12c-0.02-0.05-0.03-0.1-0.05-0.16
					c-0.03-0.09-0.06-0.19-0.1-0.28c-0.03-0.09-0.07-0.19-0.1-0.28c-0.07-0.19-0.15-0.37-0.22-0.56c-0.3-0.72-0.63-1.43-0.94-2.14
					c-0.17-0.37-0.31-0.75-0.44-1.13l-0.04,0.06c-0.06,0.1-0.12,0.2-0.17,0.3c-0.01,1.64-1.65,3.63-1.65,3.63l-1.64-2.41l-1.45,2.21
					c-0.21,0.11-0.42,0.49-0.58,1.02c-0.05,0.15-0.09,0.3-0.13,0.47c-0.03,0.11-0.06,0.23-0.08,0.35c-0.01,0.06-0.03,0.12-0.04,0.18
					l-0.04,0.19l0,0.03c-0.03,0.13-0.05,0.26-0.07,0.4c-0.02,0.14-0.05,0.29-0.07,0.44c-0.02,0.1-0.03,0.19-0.04,0.29
					c-0.03,0.18-0.06,0.37-0.08,0.56c-0.02,0.11-0.03,0.21-0.04,0.32l-0.05,0.42c0.1,0.34,0.22,0.68,0.34,1.01
					c0.08,0.18,0.12,0.38,0.13,0.57c2.55,0.74,5.25,0.75,7.81,0.03c0-0.01,0-0.01,0-0.02c-0.04-0.19-0.05-0.38-0.05-0.57l0,0
					c0.04-0.53,0.12-1.06,0.21-1.59c0.03-0.26,0.05-0.52,0.04-0.78l0-0.09C61.51,196.24,61.51,196.17,61.5,196.09z M61.5,196.09
					c0-0.08,0-0.17-0.01-0.25c-0.01-0.08-0.01-0.16-0.02-0.24c-0.01-0.08-0.02-0.16-0.03-0.24c-0.01-0.08-0.02-0.16-0.04-0.24
					c-0.01-0.08-0.03-0.16-0.04-0.24c0-0.03-0.01-0.05-0.02-0.08c-0.02-0.1-0.05-0.21-0.07-0.31c-0.03-0.11-0.04-0.17-0.07-0.25
					c0-0.04-0.02-0.07-0.03-0.11c-0.01-0.04-0.03-0.12-0.05-0.18l-0.04-0.12c-0.02-0.05-0.03-0.1-0.05-0.16
					c-0.03-0.09-0.06-0.19-0.1-0.28c-0.03-0.09-0.07-0.19-0.1-0.28c-0.07-0.19-0.15-0.37-0.22-0.56c-0.3-0.72-0.63-1.43-0.94-2.14
					c-0.17-0.37-0.31-0.75-0.44-1.13l-0.04,0.06c-0.06,0.1-0.12,0.2-0.17,0.3c-0.01,1.64-1.65,3.63-1.65,3.63l-1.64-2.41l-1.45,2.21
					c-0.21,0.11-0.42,0.49-0.58,1.02c-0.05,0.15-0.09,0.3-0.13,0.47c-0.03,0.11-0.06,0.23-0.08,0.35c-0.01,0.06-0.03,0.12-0.04,0.18
					l-0.04,0.19l0,0.03c-0.03,0.13-0.05,0.26-0.07,0.4c-0.02,0.14-0.05,0.29-0.07,0.44c-0.02,0.1-0.03,0.19-0.04,0.29
					c-0.03,0.18-0.06,0.37-0.08,0.56c-0.02,0.11-0.03,0.21-0.04,0.32l-0.05,0.42c0.1,0.34,0.22,0.68,0.34,1.01
					c0.08,0.18,0.12,0.38,0.13,0.57c2.55,0.74,5.25,0.75,7.81,0.03c0-0.01,0-0.01,0-0.02c-0.04-0.19-0.05-0.38-0.05-0.57l0,0
					c0.04-0.53,0.12-1.06,0.21-1.59c0.03-0.26,0.05-0.52,0.04-0.78l0-0.09C61.51,196.24,61.51,196.17,61.5,196.09z M61.5,196.09
					c0-0.08,0-0.17-0.01-0.25c-0.01-0.08-0.01-0.16-0.02-0.24c-0.01-0.08-0.02-0.16-0.03-0.24c-0.01-0.08-0.02-0.16-0.04-0.24
					c-0.01-0.08-0.03-0.16-0.04-0.24c0-0.03-0.01-0.05-0.02-0.08c-0.02-0.1-0.05-0.21-0.07-0.31c-0.03-0.11-0.04-0.17-0.07-0.25
					c0-0.04-0.02-0.07-0.03-0.11c-0.01-0.04-0.03-0.12-0.05-0.18l-0.04-0.12c-0.02-0.05-0.03-0.1-0.05-0.16
					c-0.03-0.09-0.06-0.19-0.1-0.28c-0.03-0.09-0.07-0.19-0.1-0.28c-0.07-0.19-0.15-0.37-0.22-0.56c-0.3-0.72-0.63-1.43-0.94-2.14
					c-0.17-0.37-0.31-0.75-0.44-1.13l-0.04,0.06c-0.06,0.1-0.12,0.2-0.17,0.3c-0.01,1.64-1.65,3.63-1.65,3.63l-1.64-2.41l-1.45,2.21
					c-0.21,0.11-0.42,0.49-0.58,1.02c-0.05,0.15-0.09,0.3-0.13,0.47c-0.03,0.11-0.06,0.23-0.08,0.35c-0.01,0.06-0.03,0.12-0.04,0.18
					l-0.04,0.19l0,0.03c-0.03,0.13-0.05,0.26-0.07,0.4c-0.02,0.14-0.05,0.29-0.07,0.44c-0.02,0.1-0.03,0.19-0.04,0.29
					c-0.03,0.18-0.06,0.37-0.08,0.56c-0.02,0.11-0.03,0.21-0.04,0.32l-0.05,0.42c0.1,0.34,0.22,0.68,0.34,1.01
					c0.08,0.18,0.12,0.38,0.13,0.57c2.55,0.74,5.25,0.75,7.81,0.03c0-0.01,0-0.01,0-0.02c-0.04-0.19-0.05-0.38-0.05-0.57l0,0
					c0.04-0.53,0.12-1.06,0.21-1.59c0.03-0.26,0.05-0.52,0.04-0.78l0-0.09C61.51,196.24,61.51,196.17,61.5,196.09z M61.5,196.09
					c0-0.08,0-0.17-0.01-0.25c-0.01-0.08-0.01-0.16-0.02-0.24c-0.01-0.08-0.02-0.16-0.03-0.24c-0.01-0.08-0.02-0.16-0.04-0.24
					c-0.01-0.08-0.03-0.16-0.04-0.24c0-0.03-0.01-0.05-0.02-0.08c-0.02-0.1-0.05-0.21-0.07-0.31c-0.03-0.11-0.04-0.17-0.07-0.25
					c0-0.04-0.02-0.07-0.03-0.11c-0.01-0.04-0.03-0.12-0.05-0.18l-0.04-0.12c-0.02-0.05-0.03-0.1-0.05-0.16
					c-0.03-0.09-0.06-0.19-0.1-0.28c-0.03-0.09-0.07-0.19-0.1-0.28c-0.07-0.19-0.15-0.37-0.22-0.56c-0.3-0.72-0.63-1.43-0.94-2.14
					c-0.17-0.37-0.31-0.75-0.44-1.13l-0.04,0.06c-0.06,0.1-0.12,0.2-0.17,0.3c-0.01,1.64-1.65,3.63-1.65,3.63l-1.64-2.41l-1.45,2.21
					c-0.21,0.11-0.42,0.49-0.58,1.02c-0.05,0.15-0.09,0.3-0.13,0.47c-0.03,0.11-0.06,0.23-0.08,0.35c-0.01,0.06-0.03,0.12-0.04,0.18
					l-0.04,0.19l0,0.03c-0.03,0.13-0.05,0.26-0.07,0.4c-0.02,0.14-0.05,0.29-0.07,0.44c-0.02,0.1-0.03,0.19-0.04,0.29
					c-0.03,0.18-0.06,0.37-0.08,0.56c-0.02,0.11-0.03,0.21-0.04,0.32l-0.05,0.42c0.1,0.34,0.22,0.68,0.34,1.01
					c0.08,0.18,0.12,0.38,0.13,0.57c2.55,0.74,5.25,0.75,7.81,0.03c0-0.01,0-0.01,0-0.02c-0.04-0.19-0.05-0.38-0.05-0.57l0,0
					c0.04-0.53,0.12-1.06,0.21-1.59c0.03-0.26,0.05-0.52,0.04-0.78l0-0.09C61.51,196.24,61.51,196.17,61.5,196.09z M61.5,196.09
					c0-0.08,0-0.17-0.01-0.25c-0.01-0.08-0.01-0.16-0.02-0.24c-0.01-0.08-0.02-0.16-0.03-0.24c-0.01-0.08-0.02-0.16-0.04-0.24
					c-0.01-0.08-0.03-0.16-0.04-0.24c0-0.03-0.01-0.05-0.02-0.08c-0.02-0.1-0.05-0.21-0.07-0.31c-0.03-0.11-0.04-0.17-0.07-0.25
					c0-0.04-0.02-0.07-0.03-0.11c-0.01-0.04-0.03-0.12-0.05-0.18l-0.04-0.12c-0.02-0.05-0.03-0.1-0.05-0.16
					c-0.03-0.09-0.06-0.19-0.1-0.28c-0.03-0.09-0.07-0.19-0.1-0.28c-0.07-0.19-0.15-0.37-0.22-0.56c-0.3-0.72-0.63-1.43-0.94-2.14
					c-0.17-0.37-0.31-0.75-0.44-1.13l-0.04,0.06c-0.06,0.1-0.12,0.2-0.17,0.3c-0.01,1.64-1.65,3.63-1.65,3.63l-1.64-2.41l-1.45,2.21
					c-0.21,0.11-0.42,0.49-0.58,1.02c-0.05,0.15-0.09,0.3-0.13,0.47c-0.03,0.11-0.06,0.23-0.08,0.35c-0.01,0.06-0.03,0.12-0.04,0.18
					l-0.04,0.19l0,0.03c-0.03,0.13-0.05,0.26-0.07,0.4c-0.02,0.14-0.05,0.29-0.07,0.44c-0.02,0.1-0.03,0.19-0.04,0.29
					c-0.03,0.18-0.06,0.37-0.08,0.56c-0.02,0.11-0.03,0.21-0.04,0.32l-0.05,0.42c0.1,0.34,0.22,0.68,0.34,1.01
					c0.08,0.18,0.12,0.38,0.13,0.57c2.55,0.74,5.25,0.75,7.81,0.03c0-0.01,0-0.01,0-0.02c-0.04-0.19-0.05-0.38-0.05-0.57l0,0
					c0.04-0.53,0.12-1.06,0.21-1.59c0.03-0.26,0.05-0.52,0.04-0.78l0-0.09C61.51,196.24,61.51,196.17,61.5,196.09z M61.5,196.09
					c0-0.08,0-0.17-0.01-0.25c-0.01-0.08-0.01-0.16-0.02-0.24c-0.01-0.08-0.02-0.16-0.03-0.24c-0.01-0.08-0.02-0.16-0.04-0.24
					c-0.01-0.08-0.03-0.16-0.04-0.24c0-0.03-0.01-0.05-0.02-0.08c-0.02-0.1-0.05-0.21-0.07-0.31c-0.03-0.11-0.04-0.17-0.07-0.25
					c0-0.04-0.02-0.07-0.03-0.11c-0.01-0.04-0.03-0.12-0.05-0.18l-0.04-0.12c-0.02-0.05-0.03-0.1-0.05-0.16
					c-0.03-0.09-0.06-0.19-0.1-0.28c-0.03-0.09-0.07-0.19-0.1-0.28c-0.07-0.19-0.15-0.37-0.22-0.56c-0.3-0.72-0.63-1.43-0.94-2.14
					c-0.17-0.37-0.31-0.75-0.44-1.13l-0.04,0.06c-0.06,0.1-0.12,0.2-0.17,0.3c-0.01,1.64-1.65,3.63-1.65,3.63l-1.64-2.41l-1.45,2.21
					c-0.21,0.11-0.42,0.49-0.58,1.02c-0.05,0.15-0.09,0.3-0.13,0.47c-0.03,0.11-0.06,0.23-0.08,0.35c-0.01,0.06-0.03,0.12-0.04,0.18
					l-0.04,0.19l0,0.03c-0.03,0.13-0.05,0.26-0.07,0.4c-0.02,0.14-0.05,0.29-0.07,0.44c-0.02,0.1-0.03,0.19-0.04,0.29
					c-0.03,0.18-0.06,0.37-0.08,0.56c-0.02,0.11-0.03,0.21-0.04,0.32l-0.05,0.42c0.1,0.34,0.22,0.68,0.34,1.01
					c0.08,0.18,0.12,0.38,0.13,0.57c2.55,0.74,5.25,0.75,7.81,0.03c0-0.01,0-0.01,0-0.02c-0.04-0.19-0.05-0.38-0.05-0.57l0,0
					c0.04-0.53,0.12-1.06,0.21-1.59c0.03-0.26,0.05-0.52,0.04-0.78l0-0.09C61.51,196.24,61.51,196.17,61.5,196.09z"/>
				<path class="st13" d="M55.75,190.74l-0.14-0.02c-0.21-0.03-0.42-0.07-0.62-0.13l-0.08-0.02c-0.51-0.15-1.06-0.41-1.18-0.86
					c-0.04-0.15-0.03-0.3,0.01-0.44c0.07-0.25,0.17-0.49,0.29-0.71l0-0.01c0.02-0.03,0.03-0.06,0.05-0.09
					c0.17-0.33,0.43-0.62,0.75-0.81l-0.25,0.04l0,0l-2.11,0.33l-3.28,0.51c0,0-0.58-0.12-1.38,2.06c0,0.03-0.02,0.05-0.03,0.08
					c-0.19,0.53-0.4,1.2-0.61,2.03c-0.15,0.58-0.28,1.14-0.4,1.7c-0.04,0.17-0.07,0.33-0.11,0.49c0.37,0.44,0.77,0.86,1.2,1.25
					l0.07,0.06c0.84,0.77,1.77,1.43,2.76,1.97l0.04,0.02c0.63,0.34,1.28,0.63,1.95,0.87l0.18,0.06c0.04-0.38,0.08-0.81,0.13-1.25
					c0-0.04,0-0.09,0.02-0.13l0.05-0.42c0.01-0.11,0.03-0.21,0.04-0.32c0.03-0.18,0.05-0.37,0.08-0.56c0.01-0.1,0.03-0.19,0.04-0.29
					c0.02-0.15,0.05-0.3,0.07-0.44c0.03-0.14,0.05-0.27,0.07-0.4l0-0.03l0.04-0.19c0.01-0.06,0.03-0.12,0.04-0.18
					c0.03-0.12,0.05-0.24,0.08-0.35c0.04-0.17,0.09-0.33,0.13-0.47c0.17-0.54,0.36-0.92,0.58-1.02l1.45-2.21l0.06-0.09l0.03-0.04
					L55.75,190.74z"/>
				<path class="st16" d="M55.63,190.75l-1.54,2.35c-0.21,0.11-0.41,0.47-0.57,0.99c-0.05,0.15-0.1,0.32-0.14,0.5
					c-0.21,0.9-0.37,1.81-0.48,2.72c0,0.04,0,0.08-0.02,0.12c-0.07,0.58-0.13,1.15-0.18,1.65c-0.67-0.24-1.32-0.53-1.95-0.87
					l-0.04-0.02c-1-0.54-1.92-1.21-2.76-1.97l-0.07-0.06c-0.43-0.39-0.83-0.81-1.2-1.25c-0.05-0.06-0.1-0.11-0.14-0.17
					c0.02-0.11,0.05-0.21,0.07-0.32c0.12-0.55,0.25-1.12,0.4-1.69c0.19-0.79,0.43-1.57,0.72-2.33c0.01-0.02,0.02-0.04,0.03-0.07
					c0.74-1.89,1.27-1.78,1.27-1.78l3.46-0.54l2.19-0.34l-0.07,0.04l0,0c-0.24,0.17-0.45,0.39-0.6,0.64l-0.06,0.1
					c-0.03,0.04-0.05,0.08-0.07,0.13c-0.12,0.23-0.22,0.47-0.29,0.73c-0.07,0.2-0.05,0.41,0.05,0.6c0.21,0.4,0.8,0.63,1.28,0.75
					l0.08,0.02C55.18,190.69,55.4,190.72,55.63,190.75z"/>
				<path class="st13" d="M67.63,195l-0.08-1.85c0.38-2.91-0.35-3.09-0.35-3.09l-0.86-0.42l-0.02,0l-3.47-1.7l-0.13-0.07l-0.04-0.02
					l0,0l-0.45-0.22l0,0l-0.29-0.14l-0.54-0.26l-0.18-0.09c0,0,0,0.03,0,0.1c0,0.06,0,0.24,0,0.44c0,0.06,0,0.12,0,0.18
					c0,0.21,0.02,0.45,0.03,0.73c0.03,0.71,0.1,1.66,0.22,2.79c0.07,0.65,0.15,1.36,0.25,2.13c0.06,0.45,0.11,0.9,0.13,1.34
					c0.09,1.48,0.03,2.96-0.16,4.43l0.19-0.06c0.51-0.17,1.02-0.37,1.51-0.6l0,0c0.96-0.44,1.86-0.99,2.69-1.64l0.04-0.03
					c0.54-0.42,1.04-0.87,1.52-1.36L67.63,195z"/>
				<path class="st16" d="M67.81,195l-0.08-1.85c0.38-2.91-0.35-3.09-0.35-3.09l-1.04-0.51l-0.02,0l-3.48-1.71l-0.16-0.08
					l-0.03-0.01l-0.26-0.13l-0.34-0.17l-0.67-0.33l0,0.09c0,0.05,0,0.12,0,0.21l0,0c0,0.05,0,0.12,0,0.19c0,0.07,0,0.12,0,0.18
					c0,0.21,0.02,0.48,0.03,0.79c0.03,0.66,0.09,1.53,0.2,2.57c0.07,0.71,0.16,1.5,0.28,2.35c0.06,0.45,0.11,0.9,0.13,1.35
					c0.09,1.46,0.04,2.92-0.15,4.37c0.51-0.17,1.02-0.37,1.51-0.6l0,0c0.96-0.44,1.86-0.99,2.69-1.64l0.04-0.03
					c0.54-0.42,1.04-0.87,1.52-1.36c0.06-0.06,0.12-0.12,0.18-0.19L67.81,195z"/>
				<path class="st13" d="M56.14,179.67c0.65-0.11,1.3-0.34,1.95-0.2c0.54,0.11,0.99,0.48,1.48,0.73c0.48,0.24,1,0.38,1.53,0.41
					c0.19,0.03,0.39-0.01,0.56-0.11c0.26-0.18,0.3-0.54,0.26-0.86c-0.12-0.89-0.67-1.65-1.24-2.34c-0.23-0.3-0.49-0.56-0.78-0.8
					c-0.74-0.55-1.73-0.65-2.66-0.61c-1.06,0.04-2.13,0.24-3.05,0.77c-0.63,0.35-2.06,1.48-1.57,2.29
					C53.15,179.81,55.33,179.81,56.14,179.67z"/>
				<path class="st14" d="M56.14,179.46c0.65-0.11,1.3-0.34,1.95-0.2c0.54,0.11,0.99,0.48,1.48,0.73c0.48,0.24,1,0.38,1.53,0.41
					c0.19,0.03,0.39-0.01,0.56-0.11c0.26-0.18,0.3-0.54,0.26-0.86c-0.12-0.89-0.67-1.65-1.24-2.34c-0.23-0.3-0.49-0.56-0.78-0.8
					c-0.74-0.55-1.73-0.65-2.66-0.61c-1.06,0.04-2.13,0.24-3.05,0.77c-0.63,0.36-2.06,1.48-1.57,2.29
					C53.16,179.6,55.33,179.6,56.14,179.46z"/>
			</g>
			<path class="st13" d="M140.91,153.52c0,0-4.81,0.31-6.13-0.69c1.74,1.34,3.8,2.2,5.97,2.51L140.91,153.52z"/>
			
				<linearGradient id="SVGID_4_" gradientUnits="userSpaceOnUse" x1="77.9947" y1="53.1554" x2="77.9947" y2="159.9356" gradientTransform="matrix(1 4.361738e-03 -4.361738e-03 1 6.2943 1.9615)">
				<stop  offset="0" style="stop-color:#808080;stop-opacity:0.25"/>
				<stop  offset="0.54" style="stop-color:#808080;stop-opacity:0.12"/>
				<stop  offset="1" style="stop-color:#808080;stop-opacity:0.1"/>
			</linearGradient>
			<path class="st17" d="M141.5,152.22l-56.58-46c-0.66-0.67-1.57-1.05-2.51-1.05l-2.41-0.01c10.52-13.36,8.21-32.71-5.14-43.23
				s-32.71-8.21-43.23,5.14s-8.21,32.71,5.14,43.23c11.09,8.73,26.7,8.8,37.87,0.17l-0.01,2.41c-0.01,0.94,0.36,1.85,1.03,2.52
				l56.58,46c1.37,1.39,3.61,1.41,5,0.04c0.01-0.01,0.01-0.01,0.02-0.02l4.2-4.16C142.86,155.88,142.87,153.63,141.5,152.22z
				 M55.71,105.05c-10.47-0.05-18.92-8.57-18.87-19.04S45.4,67.1,55.87,67.14s18.92,8.57,18.87,19.04l0,0
				c-0.04,10.46-8.55,18.91-19.01,18.88C55.72,105.06,55.72,105.06,55.71,105.05L55.71,105.05z"/>
			<path class="st6" d="M141.92,151.81l-56.58-46c-0.66-0.67-1.57-1.05-2.51-1.05l-2.41-0.01c10.52-13.36,8.21-32.71-5.14-43.23
				s-32.71-8.21-43.23,5.14s-8.21,32.71,5.14,43.23c11.09,8.73,26.7,8.8,37.87,0.17l-0.01,2.41c-0.01,0.94,0.36,1.85,1.03,2.52
				l56.58,46c1.37,1.39,3.61,1.41,5,0.04c0.01-0.01,0.01-0.01,0.02-0.02l4.2-4.16C143.28,155.46,143.29,153.21,141.92,151.81z
				 M56.13,104.64c-10.47-0.05-18.92-8.57-18.87-19.04c0.05-10.47,8.57-18.92,19.04-18.87s18.92,8.57,18.87,19.04v0
				c-0.04,10.46-8.55,18.91-19.01,18.88C56.14,104.64,56.13,104.64,56.13,104.64L56.13,104.64z"/>
			<path class="st5" d="M42.78,85.45c-0.02,3.06,0.96,6.04,2.79,8.49c0.18,0.25,0.38,0.49,0.58,0.72c0.11,0.13,0.22,0.25,0.33,0.38
				c0.06,0.06,0.11,0.13,0.17,0.19c0.47,0.5,0.97,0.96,1.5,1.38l0.04,0.03c0.83,0.65,1.72,1.21,2.68,1.66l0,0
				c0.49,0.23,0.99,0.44,1.5,0.61l0.19,0.06c0.12,0.04,0.24,0.08,0.36,0.11l0.05,0.01c0.06,0.02,0.12,0.04,0.18,0.05
				c1.21,0.33,2.45,0.5,3.71,0.51c0.21,0,0.43,0,0.64-0.01c1.11-0.04,2.21-0.22,3.28-0.52l0.02,0c0.2-0.06,0.39-0.12,0.59-0.18
				l0.02,0l0.18-0.06c0.67-0.23,1.33-0.52,1.96-0.86L63.58,98c0.07-0.04,0.14-0.07,0.21-0.11c0.92-0.51,1.79-1.13,2.57-1.84
				l0.07-0.06c0.43-0.39,0.84-0.8,1.21-1.24l0.04-0.05c0.04-0.04,0.07-0.08,0.1-0.12c0.09-0.11,0.18-0.22,0.27-0.33
				c4.82-6.15,3.73-15.04-2.42-19.85s-15.04-3.73-19.85,2.42C43.85,79.27,42.8,82.31,42.78,85.45z"/>
			
				<linearGradient id="SVGID_5_" gradientUnits="userSpaceOnUse" x1="-3816.688" y1="130.6887" x2="-3816.688" y2="155.7947" gradientTransform="matrix(-1 -4.361738e-03 4.361738e-03 -1 -3760.605 213.6733)">
				<stop  offset="0" style="stop-color:#808080;stop-opacity:0.25"/>
				<stop  offset="0.54" style="stop-color:#808080;stop-opacity:0.12"/>
				<stop  offset="1" style="stop-color:#808080;stop-opacity:0.1"/>
			</linearGradient>
			<path class="st18" d="M47.66,90.02c0,0,3.07-0.25,4.48-2.19c1.38-1.89,2.31-1.91,2.36-1.91l0,0c0.04-0.25,0.06-0.49,0.08-0.72
				c0,0,0-0.02,0-0.03c-0.06,0.04-0.12,0.07-0.19,0.08c-0.27,0.04-0.51-0.22-0.65-0.5c-0.1-0.29-0.24-0.56-0.41-0.82
				c-0.34-0.39-0.89-0.4-1.29-0.7c-0.35-0.3-0.58-0.73-0.62-1.19c-0.02-0.17-0.03-0.35-0.02-0.52c-0.01-0.37,0.03-0.74,0.09-1.11
				c0.11-0.69,0.27-1.39,0.66-1.93c0.39-0.54,1.14-0.65,1.52-1.17c1.76-2.4,3.01-1.63,4.52-2.43c0.29-0.18,0.62-0.3,0.97-0.35
				c0.61-0.03,1.14,0.4,1.63,0.82c0.31,0.24,0.59,0.52,0.83,0.84c0.43,0.61,0.67,1.63,0.65,2.53c0.01,0.33-0.02,0.66-0.1,0.99
				c-0.12,0.48-0.45,0.45-0.81,0.34c0.9,1.93,0.27,4.23-1.49,5.42c0,0.07,0,0.15,0,0.22c0,0.02,0,0.03,0,0.05
				c-0.01,0.33,0,0.66,0.03,0.99c0.04,0.02,3.39,1.94,3.77,2.85c0.38,0.91,1.78,1.57,1.78,1.57s1.55,0.84,2.27,3.45l-0.04,0.05
				c-0.38,0.45-0.78,0.87-1.21,1.27l-0.07,0.07c-0.79,0.72-1.65,1.34-2.57,1.86c-0.07,0.04-0.14,0.08-0.21,0.12l-0.04,0.02
				c-0.63,0.34-1.28,0.63-1.96,0.87l-0.18,0.06l-0.02,0c-0.19,0.07-0.39,0.13-0.59,0.18l-0.02,0c-1.07,0.31-2.17,0.49-3.28,0.53
				c-0.21,0.01-0.42,0.01-0.64,0.01c-1.25,0-2.49-0.17-3.7-0.5c-0.06-0.01-0.12-0.03-0.18-0.05l-0.05-0.01
				c-0.12-0.03-0.24-0.07-0.36-0.11l-0.19-0.06c-0.51-0.18-1.02-0.39-1.51-0.62l0,0c-0.95-0.46-1.85-1.02-2.68-1.69l-0.04-0.03
				c-0.53-0.43-1.04-0.9-1.5-1.4c-0.06-0.06-0.12-0.13-0.17-0.19c-0.11-0.13-0.23-0.25-0.33-0.38c-0.21-0.24-0.39-0.48-0.58-0.74
				C46.71,89.59,47.66,90.02,47.66,90.02z"/>
			<path class="st19" d="M58.25,93.55l4.49-3.43c0,0-3,0.63-2.89-4.16c0-0.02,0-0.03,0-0.05c0-0.43,0.05-0.91,0.11-1.43
				c0.8-6.39-5.36-0.79-5.36-0.79c0.05,0.57,0.05,1.14-0.01,1.7c0,0.01,0,0.03,0,0.05c-0.13,1.57-0.57,3.11-1.3,4.51
				C51.6,93.13,58.25,93.55,58.25,93.55z"/>
			<path class="st13" d="M55.16,84.51c0.76,0.74,1.21,2.09,2.36,2.09c0.83,0.01,1.64-0.23,2.33-0.69c0-0.43,0.05-0.91,0.11-1.43
				c0.8-6.39-5.36-0.79-5.36-0.79S55.24,83.47,55.16,84.51z"/>
			<circle class="st19" cx="57.53" cy="82.17" r="4.22"/>
			<path class="st13" d="M61.6,76.79c-0.24-0.31-0.52-0.58-0.83-0.82c-0.48-0.41-1.02-0.84-1.63-0.8c-0.34,0.04-0.67,0.16-0.97,0.34
				c-1.51,0.79-2.76,0.03-4.52,2.39c-0.38,0.5-1.13,0.62-1.52,1.15c-0.39,0.53-0.55,1.22-0.66,1.9c-0.09,0.46-0.12,0.93-0.07,1.39
				c0.04,0.46,0.27,0.88,0.62,1.17c0.4,0.3,0.96,0.3,1.29,0.69c0.17,0.25,0.31,0.52,0.41,0.81c0.14,0.27,0.38,0.53,0.65,0.49
				c0.27-0.04,0.44-0.34,0.48-0.62c0.02-0.3,0-0.6-0.05-0.89c-0.05-0.53,0.02-1.1,0.33-1.5c0.21-0.27,0.52-0.43,0.73-0.71
				c0.5-0.67,0.28-1.79,0.82-2.4c0.32-0.33,0.8-0.46,1.25-0.34c0.44,0.13,0.86,0.31,1.25,0.54c0.54,0.28,1.12,0.5,1.7,0.67
				c0.49,0.14,1.07,0.46,1.24-0.2C62.41,79.06,62.17,77.57,61.6,76.79z"/>
			<path class="st20" d="M61.6,76.58c-0.24-0.31-0.52-0.58-0.83-0.82c-0.48-0.41-1.02-0.84-1.63-0.8c-0.34,0.04-0.67,0.16-0.97,0.34
				c-1.51,0.79-2.76,0.03-4.52,2.39c-0.38,0.5-1.13,0.62-1.52,1.15c-0.39,0.53-0.55,1.22-0.66,1.9c-0.09,0.46-0.12,0.93-0.07,1.39
				c0.04,0.46,0.27,0.88,0.62,1.17c0.4,0.3,0.96,0.3,1.29,0.69c0.17,0.25,0.31,0.52,0.41,0.81c0.14,0.27,0.38,0.53,0.65,0.49
				c0.27-0.04,0.44-0.34,0.48-0.62c0.02-0.3,0-0.6-0.05-0.89c-0.05-0.53,0.02-1.1,0.33-1.5c0.21-0.27,0.52-0.43,0.73-0.71
				c0.5-0.67,0.28-1.79,0.82-2.4c0.32-0.33,0.8-0.46,1.25-0.34c0.44,0.13,0.86,0.31,1.25,0.54c0.54,0.28,1.12,0.5,1.7,0.67
				c0.49,0.14,1.07,0.46,1.24-0.2C62.41,78.85,62.17,77.37,61.6,76.58z"/>
			<path class="st13" d="M53.25,95.75l-0.1,3.19c1.21,0.33,2.45,0.5,3.71,0.51c0.21,0,0.43,0,0.64-0.01
				c1.11-0.04,2.21-0.22,3.28-0.52l0.02,0c0.2-0.06,0.39-0.12,0.59-0.18l0.02,0l0.18-0.06c0.67-0.23,1.33-0.52,1.96-0.86l0.04-0.02
				c0.07-0.04,0.14-0.07,0.21-0.11l-0.3-4.3l0.53-2.95l-2.8-1.93c-0.16,0.23-0.34,0.44-0.53,0.64c-0.28,0.29-0.6,0.53-0.96,0.71
				c-2.02,0.99-4.31-0.61-5.45-1.59l-0.26-0.23c-0.29-0.27-0.46-0.45-0.46-0.45l-1.42,2.17L53.25,95.75z"/>
			<path class="st21" d="M53.25,95.95l-0.1,3.19c1.21,0.33,2.45,0.5,3.71,0.51c0.21,0,0.43,0,0.64-0.01
				c1.11-0.04,2.21-0.22,3.28-0.52l0.02,0c0.2-0.06,0.39-0.12,0.59-0.18l0.02,0l0.18-0.06c0.67-0.23,1.33-0.52,1.96-0.86L63.59,98
				c0.07-0.04,0.14-0.07,0.21-0.11l-0.3-4.3l0.53-2.95l-2.8-1.93c-0.16,0.23-0.34,0.44-0.53,0.64c-0.28,0.29-0.6,0.53-0.96,0.71
				c-2.02,0.99-4.31-0.61-5.45-1.59l-0.26-0.23c-0.29-0.27-0.46-0.45-0.46-0.45l-1.42,2.17L53.25,95.95z"/>
			<path class="st22" d="M45.57,93.94c0.18,0.25,0.38,0.49,0.58,0.72c0.11,0.13,0.22,0.25,0.33,0.38c0.06,0.06,0.11,0.13,0.17,0.19
				c0.47,0.5,0.97,0.96,1.5,1.38l0.04,0.03c0.83,0.65,1.72,1.21,2.68,1.66l0,0c0.49,0.23,0.99,0.44,1.5,0.61l0.19,0.06
				c0.12,0.04,0.24,0.08,0.36,0.11l0.05,0.01c0.06,0.02,0.12,0.04,0.18,0.05c1.21,0.33,2.45,0.5,3.71,0.51c0.21,0,0.43,0,0.64-0.01
				c0.17-2.65,0.23-4.78-0.02-5.33c-0.15-0.32-0.32-0.63-0.51-0.92c-1.02-1.66-2.89-4.15-2.79-4.46c0.04-0.15,0.07-0.31,0.09-0.47
				c0.11-0.82,0.23-2.32,0.23-2.32l0,0c-0.05,0-0.98,0.02-2.36,1.88c-1.41,1.91-4.48,2.15-4.48,2.15S46.71,89.75,45.57,93.94z"/>
			<path class="st22" d="M61.05,96.24c0,0,0.15,1.23,0.34,2.69l0.02,0l0.18-0.06c0.67-0.23,1.33-0.52,1.96-0.86L63.59,98
				c0.07-0.04,0.14-0.07,0.21-0.11c0.92-0.51,1.79-1.13,2.57-1.84l0.07-0.06c0.43-0.39,0.84-0.8,1.21-1.24l0.04-0.05
				c-0.73-2.58-2.27-3.4-2.27-3.4s-1.4-0.65-1.78-1.54c-0.38-0.9-3.77-2.8-3.77-2.8l0,0.01c0,0.16-0.06,1.63-0.15,3.1
				c-0.06,0.96-0.12,1.92-0.2,2.53c-0.02,0.2-0.05,0.39-0.11,0.59C59.14,93.81,61.05,96.24,61.05,96.24z"/>
		</g>
	</g>
</g>
</svg>
