<?xml version="1.0" encoding="utf-8"?>
<!-- Generator: Adobe Illustrator 24.0.3, SVG Export Plug-In . SVG Version: 6.00 Build 0)  -->
<svg version="1.1" id="圖層_1" xmlns="http://www.w3.org/2000/svg" xmlns:xlink="http://www.w3.org/1999/xlink" x="0px" y="0px"
	 viewBox="0 0 60 60" style="enable-background:new 0 0 60 60;" xml:space="preserve">
<style type="text/css">
	.st0{fill:#A5D4DC;}
</style>
<g>
	<path class="st0" d="M41.51,56.5H18.49c-0.55,0-1-0.45-1-1v-5.57c0-0.55,0.45-1,1-1h23.01c0.55,0,1,0.45,1,1v5.57
		C42.51,56.05,42.06,56.5,41.51,56.5z"/>
	<path class="st0" d="M49.6,12.59H10.4c-0.55,0-1-0.45-1-1V4.5c0-0.55,0.45-1,1-1h39.2c0.55,0,1,0.45,1,1v7.09
		C50.6,12.14,50.15,12.59,49.6,12.59z"/>
	<path class="st0" d="M49.09,31.38h-1.51c-0.83,0-1.51,0.68-1.51,1.51v2.4H10.91c-0.83,0-1.51,0.68-1.51,1.51v6.06
		c0,0.83,0.68,1.51,1.51,1.51h38.17c0.83,0,1.51-0.68,1.51-1.51v-0.89v-5.17V32.9C50.6,32.06,49.92,31.38,49.09,31.38z"/>
	<path class="st0" d="M49.09,20.16H13.94v-3.57c0-0.83-0.68-1.51-1.51-1.51h-1.51c-0.83,0-1.51,0.68-1.51,1.51v5.09v4v2.06
		c0,0.83,0.68,1.51,1.51,1.51h38.17c0.83,0,1.51-0.68,1.51-1.51v-6.06C50.6,20.84,49.92,20.16,49.09,20.16z"/>
</g>
</svg>
