<?xml version="1.0" encoding="utf-8"?>
<!-- Generator: Adobe Illustrator 24.0.3, SVG Export Plug-In . SVG Version: 6.00 Build 0)  -->
<svg version="1.1" id="圖層_1" xmlns="http://www.w3.org/2000/svg" xmlns:xlink="http://www.w3.org/1999/xlink" x="0px" y="0px"
	 viewBox="0 0 250 250" style="enable-background:new 0 0 250 250;" xml:space="preserve">
<style type="text/css">
	.st0{fill:none;}
	.st1{fill:#434343;}
	.st2{fill:url(#XMLID_2_);}
	.st3{fill:#E6E6E6;}
	.st4{fill:#FFFFFF;}
	.st5{fill:#3F3D56;}
	.st6{fill:#A5D4DC;}
	.st7{fill:#9F616A;}
	.st8{fill:#2F2E41;}
	.st9{fill:#CBCBCB;}
	.st10{opacity:0.1;enable-background:new    ;}
</style>
<pattern  x="-835" y="-415" width="28.8" height="28.8" patternUnits="userSpaceOnUse" id="_x31_0_ppp_20_x25__2" viewBox="1.44 -30.24 28.8 28.8" style="overflow:visible;">
	<g id="XMLID_66_">
		<rect id="XMLID_131_" x="1.44" y="-30.24" class="st0" width="28.8" height="28.8"/>
		<g id="XMLID_75_">
			<path id="XMLID_130_" class="st1" d="M30.24,0c0.8,0,1.44-0.64,1.44-1.44c0-0.79-0.64-1.44-1.44-1.44c-0.8,0-1.44,0.64-1.44,1.44
				C28.8-0.64,29.44,0,30.24,0z"/>
			<path id="XMLID_128_" class="st1" d="M15.84,0c0.8,0,1.44-0.64,1.44-1.44c0-0.79-0.65-1.44-1.44-1.44c-0.8,0-1.44,0.64-1.44,1.44
				C14.4-0.64,15.04,0,15.84,0z"/>
			<path id="XMLID_81_" class="st1" d="M30.24-14.4c0.8,0,1.44-0.65,1.44-1.44c0-0.8-0.64-1.44-1.44-1.44
				c-0.8,0-1.44,0.64-1.44,1.44C28.8-15.04,29.44-14.4,30.24-14.4z"/>
			<path id="XMLID_80_" class="st1" d="M15.84-14.4c0.8,0,1.44-0.65,1.44-1.44c0-0.8-0.65-1.44-1.44-1.44
				c-0.8,0-1.44,0.64-1.44,1.44C14.4-15.04,15.04-14.4,15.84-14.4z"/>
			<path id="XMLID_79_" class="st1" d="M8.64-7.2c0.79,0,1.44-0.64,1.44-1.44c0-0.8-0.65-1.44-1.44-1.44c-0.8,0-1.44,0.64-1.44,1.44
				C7.2-7.84,7.84-7.2,8.64-7.2z"/>
			<path id="XMLID_78_" class="st1" d="M23.04-7.2c0.79,0,1.44-0.64,1.44-1.44c0-0.8-0.65-1.44-1.44-1.44
				c-0.8,0-1.44,0.64-1.44,1.44C21.6-7.84,22.24-7.2,23.04-7.2z"/>
			<path id="XMLID_77_" class="st1" d="M8.64-21.6c0.79,0,1.44-0.64,1.44-1.44c0-0.8-0.65-1.44-1.44-1.44
				c-0.8,0-1.44,0.64-1.44,1.44C7.2-22.24,7.84-21.6,8.64-21.6z"/>
			<path id="XMLID_76_" class="st1" d="M23.04-21.6c0.79,0,1.44-0.64,1.44-1.44c0-0.8-0.65-1.44-1.44-1.44
				c-0.8,0-1.44,0.64-1.44,1.44C21.6-22.24,22.24-21.6,23.04-21.6z"/>
		</g>
		<g id="XMLID_72_">
			<path id="XMLID_74_" class="st1" d="M1.44,0c0.79,0,1.44-0.64,1.44-1.44c0-0.79-0.64-1.44-1.44-1.44C0.64-2.88,0-2.23,0-1.44
				C0-0.64,0.64,0,1.44,0z"/>
			<path id="XMLID_73_" class="st1" d="M1.44-14.4c0.79,0,1.44-0.65,1.44-1.44c0-0.8-0.64-1.44-1.44-1.44
				c-0.8,0-1.44,0.64-1.44,1.44C0-15.04,0.64-14.4,1.44-14.4z"/>
		</g>
		<g id="XMLID_69_">
			<path id="XMLID_71_" class="st1" d="M30.24-28.8c0.8,0,1.44-0.64,1.44-1.44c0-0.8-0.64-1.44-1.44-1.44
				c-0.8,0-1.44,0.64-1.44,1.44C28.8-29.45,29.44-28.8,30.24-28.8z"/>
			<path id="XMLID_70_" class="st1" d="M15.84-28.8c0.8,0,1.44-0.64,1.44-1.44c0-0.8-0.65-1.44-1.44-1.44
				c-0.8,0-1.44,0.64-1.44,1.44C14.4-29.45,15.04-28.8,15.84-28.8z"/>
		</g>
		<g id="XMLID_67_">
			<path id="XMLID_68_" class="st1" d="M1.44-28.8c0.79,0,1.44-0.64,1.44-1.44c0-0.8-0.64-1.44-1.44-1.44
				c-0.8,0-1.44,0.64-1.44,1.44C0-29.45,0.64-28.8,1.44-28.8z"/>
		</g>
	</g>
</pattern>
<g>
	
		<pattern  id="XMLID_2_" xlink:href="#_x31_0_ppp_20_x25__2" patternTransform="matrix(-0.552 0.552 -0.552 -0.552 -13832.5664 -7303.3608)">
	</pattern>
	<circle id="XMLID_5_" class="st2" cx="156.34" cy="101.05" r="73.51"/>
	<g>
		<path class="st3" d="M184.35,185.97l-87.84-0.05c-4.33-0.01-7.85-3.52-7.85-7.86l0.08-127.38c0.01-4.33,3.52-7.85,7.86-7.85
			l87.84,0.05c4.33,0.01,7.85,3.52,7.85,7.86l-0.08,127.38C192.2,182.46,188.69,185.97,184.35,185.97z"/>
		<path class="st4" d="M184.51,180.96l-88.15-0.05c-1.34,0-2.42-1.09-2.42-2.42l0.08-128.23c0-1.34,1.09-2.42,2.42-2.42l88.15,0.05
			c1.34,0,2.42,1.09,2.42,2.42l-0.08,128.23C186.93,179.88,185.84,180.96,184.51,180.96z"/>
		<circle class="st4" cx="140.18" cy="45.26" r="0.67"/>
		<path class="st5" d="M175.99,132.32l-71.06-0.04c-0.12,0-0.22-0.1-0.22-0.22L104.73,98c0-0.12,0.1-0.22,0.22-0.22
			c0.12,0,0.22,0.1,0.22,0.22l-0.02,33.84l70.83,0.04c0.12,0,0.22,0.1,0.22,0.22C176.21,132.22,176.12,132.32,175.99,132.32z"/>
		<path class="st6" d="M120.12,129.84l-6.46,0c-0.36,0-0.66-0.3-0.66-0.66l0.01-8.91c0-0.36,0.3-0.66,0.66-0.66l6.46,0
			c0.36,0,0.66,0.3,0.66,0.66l-0.01,8.91C120.78,129.55,120.48,129.84,120.12,129.84z"/>
		<path class="st6" d="M131.91,129.85l-6.46,0c-0.36,0-0.66-0.3-0.66-0.66l0.01-17.36c0-0.36,0.3-0.66,0.66-0.66l6.46,0
			c0.36,0,0.66,0.3,0.66,0.66l-0.01,17.36C132.57,129.55,132.27,129.85,131.91,129.85z"/>
		<path class="st6" d="M143.69,129.85l-6.46,0c-0.36,0-0.66-0.3-0.66-0.66l0.01-8.91c0-0.36,0.3-0.66,0.66-0.66l6.46,0
			c0.36,0,0.66,0.3,0.66,0.66l-0.01,8.91C144.35,129.56,144.06,129.85,143.69,129.85z"/>
		<path class="st6" d="M155.48,129.86l-6.46,0c-0.36,0.01-0.65-0.27-0.66-0.63l0.01-20.75c0.01-0.36,0.3-0.64,0.66-0.63l6.46,0
			c0.36-0.01,0.65,0.27,0.66,0.63l-0.01,20.75C156.13,129.59,155.83,129.87,155.48,129.86z"/>
		<path class="st6" d="M167.26,129.87l-6.46,0c-0.36,0-0.66-0.3-0.66-0.66l0.02-26.7c0-0.36,0.3-0.66,0.66-0.66l6.46,0
			c0.36,0,0.66,0.3,0.66,0.66l-0.02,26.7C167.92,129.57,167.63,129.87,167.26,129.87z"/>
		<circle class="st5" cx="116.9" cy="115.61" r="1.33"/>
		<circle class="st5" cx="128.69" cy="106.94" r="1.33"/>
		<circle class="st5" cx="140.47" cy="115.62" r="1.33"/>
		<circle class="st5" cx="152.26" cy="102.73" r="1.33"/>
		<circle class="st5" cx="164.05" cy="97.84" r="1.33"/>
		<polygon class="st5" points="140.5,115.92 128.69,107.06 117.03,115.78 116.76,115.43 128.69,106.51 140.44,115.32 152.13,102.54 
			152.18,102.52 163.97,97.78 164.13,98.19 152.39,102.92 		"/>
		<path class="st7" d="M62.02,122.4c-0.91,0-1.78,0.4-2.36,1.1l-13.82-0.44l-0.54-2.33l-7.15,3.49l0.92,6.38l21.06-2.68
			c1.34,1.05,3.28,0.8,4.33-0.54c1.05-1.34,0.8-3.28-0.54-4.33C63.37,122.63,62.7,122.4,62.02,122.4L62.02,122.4z"/>
		<polygon class="st7" points="36.36,218.78 40.15,218.78 41.95,204.2 36.37,204.2 		"/>
		<path class="st8" d="M35.4,217.55l7.45,0h0c2.62,0,4.74,2.13,4.74,4.75l0,0.15l-12.19-0.01L35.4,217.55z"/>
		<polygon class="st7" points="22.1,215.77 25.73,216.82 31.52,203.31 26.16,201.76 		"/>
		<path class="st8" d="M21.52,214.31l7.15,2.07l0,0c2.52,0.73,3.97,3.36,3.24,5.88l-0.04,0.15l-11.71-3.39L21.52,214.31z"/>
		<path class="st8" d="M31.76,155.46c0,0-1.35,3.75,0.77,8.87l1.62,21.08l0.47,29.98l6.89,0l4.19-30.56l2.52-27.71L31.76,155.46z"/>
		<path class="st8" d="M27.88,155.46c0,0-1.35,3.75,0.77,8.87l1.62,21.08l-8.17,28.55l6.89,0l12.82-29.13l2.52-27.71L27.88,155.46z"
			/>
		<circle class="st7" cx="48.14" cy="99.54" r="7.57"/>
		<path class="st9" d="M49.14,117.96l-1.53-7.13l-7.81-4.44l-1.59,2.22c0,0-11.18,2.93-9.84,15.77s0.72,19.01,0.72,19.01L26,157.57
			c0,0,0.95,0.16,22.73,3.98l0.94-30.84L49.14,117.96z"/>
		<polygon class="st10" points="41.51,187.36 34.41,201.69 34.41,205.8 		"/>
		<path class="st8" d="M39.97,101.93c0.72,1.93,3.45,2.2,4.42,0.38c0.08-0.14,0.14-0.29,0.18-0.44c0.26-0.88,0.1-1.84,0.59-2.68
			c0.12-0.21,0.29-0.39,0.5-0.51c1.62-0.96,3.22,2.08,4.72,1.23c0.92-0.52,0.73-2.03,1.55-2.7c1.09-0.88,2.65,0.43,4.05,0.28
			c1.55-0.17,2.28-2.13,1.95-3.65c-0.41-1.85-1.86-3.36-3.56-4.2s-3.64-1.1-5.54-1.15c-2.16-0.05-4.42,0.17-6.24,1.32
			c-2.22,1.4-3.47,4.01-3.75,6.62C38.66,98.02,39.38,100.35,39.97,101.93z"/>
		<path class="st5" d="M77.05,153.94c0.01,0,0.02,0,0.03,0c12.4-0.64,21.93-11.21,21.29-23.61c-0.58-11.3-9.47-20.4-20.76-21.25
			c-0.14-0.01-0.28,0.04-0.39,0.13c-0.1,0.1-0.16,0.23-0.17,0.37l-0.52,43.83C76.54,153.7,76.77,153.93,77.05,153.94L77.05,153.94z"
			/>
		<path class="st3" d="M59.45,116.32c0.17,0,0.34,0.07,0.46,0.2l15.08,15.44c0.12,0.12,0.19,0.29,0.19,0.47l-0.25,20.97
			c0,0.18-0.08,0.36-0.21,0.48c-0.13,0.12-0.32,0.19-0.5,0.17c-12.46-0.94-21.8-11.8-20.86-24.26c0.37-4.91,2.33-9.56,5.58-13.25
			c0.12-0.14,0.29-0.22,0.48-0.22C59.43,116.32,59.44,116.32,59.45,116.32z"/>
		<path class="st6" d="M74.8,108.9c0.17,0,0.33,0.07,0.45,0.18c0.13,0.13,0.21,0.3,0.2,0.48l-0.22,18.92c0,0.36-0.3,0.66-0.67,0.65
			c-0.17,0-0.34-0.07-0.46-0.2l-13.16-13.47c-0.25-0.26-0.25-0.68,0.01-0.93l0,0c0.01-0.01,0.02-0.02,0.02-0.02
			c3.83-3.37,8.69-5.35,13.78-5.61C74.77,108.9,74.78,108.9,74.8,108.9z"/>
		<path class="st7" d="M54.3,131.03c-0.91,0-1.78,0.4-2.36,1.1l-13.82-0.44l-0.54-2.33l-7.15,3.49l0.92,6.38l21.06-2.68
			c1.34,1.05,3.28,0.8,4.33-0.54c1.05-1.34,0.8-3.28-0.54-4.33C55.66,131.26,54.99,131.03,54.3,131.03L54.3,131.03z"/>
		<path class="st9" d="M29.26,135.47l-0.37-19.01c-0.05-2.78,2.15-5.08,4.93-5.13c2.78-0.05,5.08,2.15,5.13,4.93
			c0,0.03,0,0.07,0,0.1l-0.01,13.89L29.26,135.47z"/>
	</g>
</g>
</svg>
