<?xml version="1.0" encoding="utf-8"?>
<!-- Generator: Adobe Illustrator 24.0.3, SVG Export Plug-In . SVG Version: 6.00 Build 0)  -->
<svg version="1.1" id="圖層_1" xmlns="http://www.w3.org/2000/svg" xmlns:xlink="http://www.w3.org/1999/xlink" x="0px" y="0px"
	 viewBox="0 0 250 250" style="enable-background:new 0 0 250 250;" xml:space="preserve">
<style type="text/css">
	.st0{fill:none;}
	.st1{fill:#434343;}
	.st2{fill:url(#XMLID_41_);}
	.st3{fill:#E6E6E6;}
	.st4{fill:#FFFFFF;}
	.st5{fill:#3F3D56;}
	.st6{fill:#A5D4DC;}
</style>
<pattern  y="250" width="28.8" height="28.8" patternUnits="userSpaceOnUse" id="_x31_0_ppp_20_x25__3" viewBox="1.44 -30.24 28.8 28.8" style="overflow:visible;">
	<g id="XMLID_66_">
		<rect id="XMLID_131_" x="1.44" y="-30.24" class="st0" width="28.8" height="28.8"/>
		<g id="XMLID_75_">
			<path id="XMLID_130_" class="st1" d="M30.24,0c0.8,0,1.44-0.64,1.44-1.44c0-0.79-0.64-1.44-1.44-1.44c-0.8,0-1.44,0.64-1.44,1.44
				C28.8-0.64,29.44,0,30.24,0z"/>
			<path id="XMLID_128_" class="st1" d="M15.84,0c0.8,0,1.44-0.64,1.44-1.44c0-0.79-0.65-1.44-1.44-1.44c-0.8,0-1.44,0.64-1.44,1.44
				C14.4-0.64,15.04,0,15.84,0z"/>
			<path id="XMLID_81_" class="st1" d="M30.24-14.4c0.8,0,1.44-0.65,1.44-1.44c0-0.8-0.64-1.44-1.44-1.44
				c-0.8,0-1.44,0.64-1.44,1.44C28.8-15.04,29.44-14.4,30.24-14.4z"/>
			<path id="XMLID_80_" class="st1" d="M15.84-14.4c0.8,0,1.44-0.65,1.44-1.44c0-0.8-0.65-1.44-1.44-1.44
				c-0.8,0-1.44,0.64-1.44,1.44C14.4-15.04,15.04-14.4,15.84-14.4z"/>
			<path id="XMLID_79_" class="st1" d="M8.64-7.2c0.79,0,1.44-0.64,1.44-1.44c0-0.8-0.65-1.44-1.44-1.44c-0.8,0-1.44,0.64-1.44,1.44
				C7.2-7.84,7.84-7.2,8.64-7.2z"/>
			<path id="XMLID_78_" class="st1" d="M23.04-7.2c0.79,0,1.44-0.64,1.44-1.44c0-0.8-0.65-1.44-1.44-1.44
				c-0.8,0-1.44,0.64-1.44,1.44C21.6-7.84,22.24-7.2,23.04-7.2z"/>
			<path id="XMLID_77_" class="st1" d="M8.64-21.6c0.79,0,1.44-0.64,1.44-1.44c0-0.8-0.65-1.44-1.44-1.44
				c-0.8,0-1.44,0.64-1.44,1.44C7.2-22.24,7.84-21.6,8.64-21.6z"/>
			<path id="XMLID_76_" class="st1" d="M23.04-21.6c0.79,0,1.44-0.64,1.44-1.44c0-0.8-0.65-1.44-1.44-1.44
				c-0.8,0-1.44,0.64-1.44,1.44C21.6-22.24,22.24-21.6,23.04-21.6z"/>
		</g>
		<g id="XMLID_72_">
			<path id="XMLID_74_" class="st1" d="M1.44,0c0.79,0,1.44-0.64,1.44-1.44c0-0.79-0.64-1.44-1.44-1.44C0.64-2.88,0-2.23,0-1.44
				C0-0.64,0.64,0,1.44,0z"/>
			<path id="XMLID_73_" class="st1" d="M1.44-14.4c0.79,0,1.44-0.65,1.44-1.44c0-0.8-0.64-1.44-1.44-1.44
				c-0.8,0-1.44,0.64-1.44,1.44C0-15.04,0.64-14.4,1.44-14.4z"/>
		</g>
		<g id="XMLID_69_">
			<path id="XMLID_71_" class="st1" d="M30.24-28.8c0.8,0,1.44-0.64,1.44-1.44c0-0.8-0.64-1.44-1.44-1.44
				c-0.8,0-1.44,0.64-1.44,1.44C28.8-29.45,29.44-28.8,30.24-28.8z"/>
			<path id="XMLID_70_" class="st1" d="M15.84-28.8c0.8,0,1.44-0.64,1.44-1.44c0-0.8-0.65-1.44-1.44-1.44
				c-0.8,0-1.44,0.64-1.44,1.44C14.4-29.45,15.04-28.8,15.84-28.8z"/>
		</g>
		<g id="XMLID_67_">
			<path id="XMLID_68_" class="st1" d="M1.44-28.8c0.79,0,1.44-0.64,1.44-1.44c0-0.8-0.64-1.44-1.44-1.44
				c-0.8,0-1.44,0.64-1.44,1.44C0-29.45,0.64-28.8,1.44-28.8z"/>
		</g>
	</g>
</pattern>
<pattern  id="XMLID_41_" xlink:href="#_x31_0_ppp_20_x25__3" patternTransform="matrix(-0.552 0.552 -0.552 -0.552 -17147.3867 -8471.2363)">
</pattern>
<circle id="XMLID_39_" class="st2" cx="135.18" cy="125" r="73.51"/>
<g>
	<path class="st3" d="M166.72,184.68L51.6,184.61c-5.68-0.01-10.28-2.81-10.29-6.27l0.06-101.53c0.01-3.46,4.61-6.25,10.3-6.25
		l115.12,0.07c5.68,0.01,10.28,2.81,10.29,6.27l-0.06,101.53C177.01,181.88,172.4,184.68,166.72,184.68z"/>
	<path class="st4" d="M166.92,180.69L51.4,180.62c-1.75,0-3.17-0.87-3.17-1.93l0.06-102.21c0-1.07,1.42-1.93,3.17-1.93l115.52,0.07
		c1.75,0,3.17,0.87,3.17,1.93l-0.06,102.21C170.1,179.82,168.68,180.69,166.92,180.69z"/>
	<path class="st5" d="M155.72,152.46l-93.13-0.06c-0.16,0-0.29-0.13-0.29-0.29l0.03-44.64c0-0.16,0.13-0.29,0.29-0.29
		c0.16,0,0.29,0.13,0.29,0.29l-0.03,44.34l92.84,0.06c0.16,0,0.29,0.13,0.29,0.29C156.01,152.33,155.88,152.46,155.72,152.46z"/>
	<path class="st6" d="M82.49,149.21l-8.47-0.01c-0.48,0-0.86-0.39-0.86-0.87l0.01-11.68c0-0.48,0.39-0.86,0.87-0.86l8.47,0.01
		c0.48,0,0.86,0.39,0.86,0.87l-0.01,11.68C83.36,148.82,82.97,149.21,82.49,149.21z"/>
	<path class="st6" d="M97.94,149.22l-8.47-0.01c-0.48,0-0.86-0.39-0.86-0.87l0.01-22.75c0-0.48,0.39-0.86,0.87-0.86l8.47,0.01
		c0.48,0,0.86,0.39,0.86,0.87l-0.01,22.75C98.8,148.83,98.42,149.22,97.94,149.22z"/>
	<path class="st6" d="M113.39,149.23l-8.47-0.01c-0.48,0-0.86-0.39-0.86-0.87l0.01-11.68c0-0.48,0.39-0.86,0.87-0.86l8.47,0.01
		c0.48,0,0.86,0.39,0.86,0.87l-0.01,11.68C114.25,148.84,113.86,149.23,113.39,149.23z"/>
	<path class="st6" d="M128.83,149.24l-8.47-0.01c-0.47,0.01-0.85-0.36-0.86-0.83l0.02-27.2c0.01-0.47,0.4-0.84,0.87-0.83l8.47,0.01
		c0.47-0.01,0.85,0.36,0.86,0.83l-0.02,27.2C129.69,148.88,129.3,149.25,128.83,149.24z"/>
	<path class="st6" d="M144.28,149.25l-8.47-0.01c-0.48,0-0.86-0.39-0.86-0.87l0.02-34.99c0-0.48,0.39-0.86,0.87-0.86l8.47,0.01
		c0.48,0,0.86,0.39,0.86,0.87l-0.02,34.99C145.14,148.86,144.76,149.25,144.28,149.25z"/>
	<circle class="st5" cx="78.27" cy="130.56" r="1.75"/>
	<circle class="st5" cx="93.72" cy="119.2" r="1.75"/>
	<circle class="st5" cx="109.16" cy="130.57" r="1.75"/>
	<circle class="st5" cx="124.62" cy="113.68" r="1.75"/>
	<circle class="st5" cx="140.07" cy="107.28" r="1.75"/>
	<polygon class="st5" points="109.2,130.97 93.72,119.36 78.44,130.79 78.09,130.32 93.72,118.63 109.13,130.18 124.45,113.43 
		124.51,113.41 139.96,107.2 140.18,107.74 124.79,113.93 	"/>
</g>
</svg>
