<?xml version="1.0" encoding="utf-8"?>
<!-- Generator: Adobe Illustrator 24.0.3, SVG Export Plug-In . SVG Version: 6.00 Build 0)  -->
<svg version="1.1" id="圖層_1" xmlns="http://www.w3.org/2000/svg" xmlns:xlink="http://www.w3.org/1999/xlink" x="0px" y="0px"
	 viewBox="0 0 60 60" style="enable-background:new 0 0 60 60;" xml:space="preserve">
<style type="text/css">
	.st0{fill:#FFFFFF;}
</style>
<path class="st0" d="M46.51,27.73C46.51,27.73,46.51,27.73,46.51,27.73L32.27,13.49c-0.61-0.61-1.41-0.94-2.27-0.94
	c-0.86,0-1.66,0.33-2.27,0.94L13.5,27.72c0,0-0.01,0.01-0.01,0.01c-1.25,1.25-1.24,3.29,0.01,4.54c0.57,0.57,1.33,0.9,2.13,0.94
	c0.03,0,0.07,0,0.1,0h0.57v10.48c0,2.07,1.69,3.76,3.76,3.76h5.57c0.56,0,1.02-0.46,1.02-1.02v-8.21c0-0.95,0.77-1.72,1.72-1.72
	h3.28c0.95,0,1.72,0.77,1.72,1.72v8.21c0,0.56,0.46,1.02,1.02,1.02h5.57c2.07,0,3.76-1.69,3.76-3.76V33.21h0.53
	c0.86,0,1.66-0.33,2.27-0.94C47.76,31.02,47.76,28.98,46.51,27.73z M45.06,30.83c-0.22,0.22-0.51,0.34-0.83,0.34h-1.55
	c-0.56,0-1.02,0.46-1.02,1.02v11.5c0,0.95-0.77,1.72-1.72,1.72H35.4v-7.19c0-2.07-1.69-3.76-3.76-3.76h-3.28
	c-2.07,0-3.76,1.69-3.76,3.76v7.19h-4.55c-0.95,0-1.72-0.77-1.72-1.72v-11.5c0-0.56-0.46-1.02-1.02-1.02h-1.52
	c-0.02,0-0.03,0-0.05,0c-0.3-0.01-0.59-0.13-0.8-0.34c-0.46-0.46-0.46-1.2,0-1.65c0,0,0,0,0,0l0,0l14.23-14.23
	c0.22-0.22,0.51-0.34,0.83-0.34c0.31,0,0.6,0.12,0.83,0.34l14.23,14.23c0,0,0,0,0.01,0.01C45.52,29.63,45.52,30.37,45.06,30.83z"/>
</svg>
