<?xml version="1.0" encoding="utf-8"?>
<!-- Generator: Adobe Illustrator 24.0.3, SVG Export Plug-In . SVG Version: 6.00 Build 0)  -->
<svg version="1.1" id="圖層_1" xmlns="http://www.w3.org/2000/svg" xmlns:xlink="http://www.w3.org/1999/xlink" x="0px" y="0px"
	 viewBox="0 0 80 70" style="enable-background:new 0 0 80 70;" xml:space="preserve">
<style type="text/css">
	.st0{fill:none;}
	.st1{fill:#A5D4DC;}
	.st2{fill:#5073B3;}
</style>
<path class="st0" d="M41.3,40.5H40v-5.34c0-0.02,0-0.04,0-0.05h1.3c1.81,0,3.35-1.53,3.35-3.35c0-1.81-1.53-3.35-3.35-3.35H18.74
	c-1.81,0-3.35,1.53-3.35,3.35c0,1.81,1.53,3.35,3.35,3.35h11.81c1.26-3.27,4.45-5.61,8.15-5.61H40v5.34c0,0.02,0,0.04,0,0.05h-1.3
	c-1.81,0-3.35,1.53-3.35,3.35s1.53,3.35,3.35,3.35h22.56c1.81,0,3.35-1.53,3.35-3.35c0-1.81-1.53-3.35-3.35-3.35H49.45
	C48.19,38.17,45,40.5,41.3,40.5z"/>
<path class="st1" d="M61.26,29.5H49.73c0.2,0.72,0.3,1.48,0.3,2.27l0,0c0,1.1-0.21,2.16-0.59,3.13h11.81c1.81,0,3.35,1.53,3.35,3.35
	c0,1.81-1.53,3.35-3.35,3.35H38.7c-1.81,0-3.35-1.53-3.35-3.35c0-1.81,1.53-3.35,3.35-3.35H40c0-0.02,0-0.04,0-0.05V29.5h-1.3
	c-3.7,0-6.89,2.34-8.15,5.61c-0.38,0.97-0.59,2.03-0.59,3.13l0,0c0,0.79,0.11,1.54,0.3,2.27c1.01,3.72,4.41,6.47,8.44,6.47h22.56
	c4.81,0,8.74-3.94,8.74-8.74l0,0C70,33.43,66.07,29.5,61.26,29.5z"/>
<path class="st2" d="M49.73,29.5c-1.01-3.72-4.41-6.47-8.44-6.47H18.74c-4.81,0-8.74,3.94-8.74,8.74l0,0c0,4.81,3.94,8.74,8.74,8.74
	h11.53c-0.2-0.72-0.3-1.48-0.3-2.27l0,0c0-1.1,0.21-2.16,0.59-3.13H18.74c-1.81,0-3.35-1.53-3.35-3.35s1.53-3.35,3.35-3.35H41.3
	c1.81,0,3.35,1.53,3.35,3.35s-1.53,3.35-3.35,3.35H40c0,0.02,0,0.04,0,0.05v5.34h1.3c3.7,0,6.89-2.34,8.15-5.61
	c0.38-0.97,0.59-2.03,0.59-3.13l0,0C50.04,30.98,49.93,30.22,49.73,29.5z"/>
</svg>
