<?xml version="1.0" encoding="utf-8"?>
<!-- Generator: Adobe Illustrator 25.2.3, SVG Export Plug-In . SVG Version: 6.00 Build 0)  -->
<svg version="1.1" id="圖層_1" xmlns="http://www.w3.org/2000/svg" xmlns:xlink="http://www.w3.org/1999/xlink" x="0px" y="0px"
	 viewBox="0 0 585.7 264.7" style="enable-background:new 0 0 585.7 264.7;" xml:space="preserve">
<style type="text/css">
	.st0{fill:#FFFFFF;}
</style>
<g>
	<g>
		<g>
			<rect x="120.3" y="129.9" class="st0" width="12.4" height="53.3"/>
			<rect x="105.8" y="142" class="st0" width="12.4" height="41.3"/>
			<rect x="134.8" y="156.3" class="st0" width="12.4" height="27"/>
			<rect x="105.8" y="184.7" class="st0" width="44" height="3.2"/>
		</g>
		<g>
			<path class="st0" d="M136.1,244.3c-1.1,0-2,0.9-2,2v1h-25.2c-2.1,0-3.8,1.7-3.8,3.8c0,2.1,1.7,3.8,3.8,3.8h25.5
				c2.1,0,3.8-1.7,3.8-3.8c0,0,0,0,0,0c0,0,0,0,0,0v-4.7C138.1,245.2,137.2,244.3,136.1,244.3z"/>
			<path class="st0" d="M108.9,229.4h25.5c2.1,0,3.8-1.7,3.8-3.8s-1.7-3.8-3.8-3.8h-25.5c-2.1,0-3.8,1.7-3.8,3.8
				S106.8,229.4,108.9,229.4z"/>
			<path class="st0" d="M128.3,258h-13.4c-1.8,0-3.3,1.5-3.3,3.3c0,1.8,1.5,3.3,3.3,3.3h13.4c1.8,0,3.3-1.5,3.3-3.3
				C131.6,259.5,130.1,258,128.3,258z"/>
			<path class="st0" d="M134.3,234.6h-25.2v-1.4c0-1.1-0.9-2-2-2s-2,0.9-2,2v4.7c0,0.1,0,0.1,0,0.1c0,0.1,0,0.2,0,0.3
				c0,2.1,1.7,3.8,3.8,3.8h25.5c2.1,0,3.8-1.7,3.8-3.8C138.1,236.3,136.4,234.6,134.3,234.6z"/>
		</g>
		<path class="st0" d="M89.9,221.8h-6.5v0c0,0-0.1,0-0.1,0c-2.6,0-4.8,2.1-4.8,4.8v4v6.7v7.7h-1.4h-5.9v-7.7v-7v-3.7
			c0-2.6-2.1-4.8-4.8-4.8c-2.6,0-4.8,2.1-4.8,4.8v3.7v7v12.1h0c0,0.2,0,0.3,0,0.4v0c0,2.6,2.1,4.8,4.8,4.8h1.3h9.4h2.1H88h1.9
			c2.4,0,4.4-1.8,4.7-4.2h0.1v-0.6v0v-0.2v-10.7v-1.6v-7.2v-3.5C94.7,224,92.5,221.8,89.9,221.8z"/>
		<path class="st0" d="M176.8,221.8h-2.2h-8.5H164h-8.5h-2.2c-2.6,0-4.8,2.1-4.8,4.8c0,2.6,2.1,4.8,4.8,4.8h2.2h1.4v8v6.7v4
			c0,2.6,2.1,4.8,4.8,4.8c0,0,0.1,0,0.1,0v0h6.5c2.6,0,4.8-2.1,4.8-4.8v-3.5v-7.2v-1.6v-6.4h1.4h2.2c2.6,0,4.8-2.1,4.8-4.8
			C181.6,224,179.5,221.8,176.8,221.8z"/>
		<path class="st0" d="M46.4,221.8h-6.5v0c0,0-0.1,0-0.1,0c-2.6,0-4.8,2.1-4.8,4.8v4v6.7v8h-1.4h-8.8h-1.9c-2.6,0-4.8,2.1-4.8,4.8
			c0,2.6,2.1,4.8,4.8,4.8h1.9h8.8h2.1h9.4h1.3c2.5,0,4.6-2,4.7-4.4h0v-0.8v-10.7v-1.6v-7.2v-3.5C51.2,224,49.1,221.8,46.4,221.8z"/>
		<path class="st0" d="M129.5,214.3l-31.8,0c-3.9,0-7.3-2.5-8.5-6.2L55.9,102.4h-1L21.6,208.1c-1.5,4.7-6.5,7.3-11.2,5.8
			c-4.7-1.5-7.3-6.5-5.8-11.2L39,93.5c1.7-7.6,8.6-13.1,16.4-13.1c6,0,11.4,3.2,14.4,8.1L71,91c0.3,0.7,0.5,1.5,0.7,2.3l32.5,103.2
			h25.2c27.1,0,49.1-22,49.1-49.1c0-27.1-22-49.1-49.1-49.1l-6.7,0c-5.2,0-10.4,0.8-15.4,2.5c-2.3,0.8-4.8,0.6-6.9-0.5
			c-2-1-3.6-2.8-4.3-4.9l-0.1-0.4c-1.4-4.6,1.1-9.6,5.7-11.1c4.7-1.6,9.5-2.6,14.5-3.1l5.2-0.3l6.8,0l7.5,0.3
			c33.9,3.2,60.7,32.1,60.7,66.7C196.5,184.3,166.4,214.3,129.5,214.3z M97.3,214.3C97.3,214.3,97.3,214.3,97.3,214.3L97.3,214.3z
			 M54.5,97.9C54.5,97.9,54.5,97.9,54.5,97.9L54.5,97.9z"/>
		<g>
			<path class="st0" d="M22.7,42.6c-0.6-1.2-2.1-1.9-2.8-1.2l-4.1,4.2c-0.5,0.5-1.6,0.3-2.3-0.5L2.6,33.7c-1.5-1.5-3.3-0.6-2.3,1.2
				L16.8,63c0.9,1.5,2.9,1.7,2.9,0.3l0.1-4.3c0-1.2,1.6-1.3,2.6-0.1l11.1,12.6c1.4,1.6,3.3,0.8,2.5-0.9L22.7,42.6z"/>
			<path class="st0" d="M106.6,1.2c-0.6-2-2.7-1.3-2.6,0.8l0.7,15.8c0,1.1-0.6,2-1.3,2l-6.2,0.1c-1,0-1.6,1.6-1.1,2.8l11.4,29
				c0.7,1.8,2.7,0.9,2.5-1.1l-1.5-16.7c-0.1-1.6,1.1-2.7,2-1.8l3.3,2.9c1.1,1,2.4-0.6,1.9-2.3L106.6,1.2z"/>
			<path class="st0" d="M210.9,32.8c1.1-1.8-0.1-3.3-1.5-1.8l-22.6,23.2c-1.2,1.3-1,3.2,0.3,2.8L191,56c1.1-0.3,1.5,1.1,0.6,2.5
				l-9.5,13.9c-1.2,1.7-0.1,3.3,1.3,2.1l23.1-20.2c1-0.9,1.3-2.5,0.5-2.9l-4.6-2.7c-0.6-0.3-0.6-1.4,0-2.3L210.9,32.8z"/>
		</g>
	</g>
	<g>
		<path class="st0" d="M226.1,237.6v8.5c0,0.7,0,1.4-0.1,1.9c-0.1,0.5-0.2,1-0.4,1.6c-0.3,0.9-0.8,1.6-1.5,2.1
			c-0.7,0.5-1.6,0.7-2.6,0.7c-0.9,0-1.7-0.2-2.3-0.5c-0.6-0.3-1.1-0.9-1.5-1.7c-0.2-0.4-0.4-0.9-0.5-1.4c-0.1-0.5-0.2-1.1-0.2-1.5
			c0-0.5,0.1-0.9,0.4-1.2c0.2-0.3,0.5-0.4,0.9-0.4c0.4,0,0.6,0.1,0.8,0.4c0.2,0.3,0.3,0.6,0.4,1.2c0.1,0.6,0.2,1,0.3,1.4
			c0.1,0.3,0.3,0.6,0.5,0.9c0.2,0.2,0.6,0.4,1,0.4c1.2,0,1.8-1.1,1.8-3.2v-9c0-0.7,0.1-1.2,0.4-1.5c0.2-0.3,0.6-0.5,1-0.5
			c0.4,0,0.8,0.2,1,0.5C226,236.5,226.1,237,226.1,237.6z"/>
		<path class="st0" d="M243.1,245.5v-7.8c0-0.7,0.1-1.2,0.4-1.5c0.2-0.3,0.6-0.5,1-0.5c0.4,0,0.8,0.2,1,0.5c0.2,0.3,0.4,0.8,0.4,1.5
			v8c0,0.9,0.1,1.7,0.3,2.3c0.2,0.6,0.5,1.1,0.9,1.4c0.4,0.3,1,0.5,1.8,0.5c1.1,0,1.8-0.3,2.2-1c0.4-0.7,0.7-1.7,0.7-3.1v-8.1
			c0-0.7,0.1-1.2,0.4-1.5c0.2-0.3,0.6-0.5,1-0.5c0.4,0,0.7,0.2,1,0.5c0.3,0.3,0.4,0.8,0.4,1.5v7.8c0,1.3-0.1,2.3-0.3,3.2
			c-0.2,0.8-0.6,1.6-1.2,2.2c-0.5,0.5-1.1,0.9-1.7,1.2c-0.6,0.3-1.4,0.4-2.3,0.4c-1,0-1.9-0.1-2.7-0.4c-0.7-0.3-1.4-0.7-1.8-1.3
			c-0.5-0.6-0.8-1.3-1-2.2C243.2,247.7,243.1,246.7,243.1,245.5z"/>
		<path class="st0" d="M281.5,247.3c0,1-0.2,1.9-0.6,2.6c-0.4,0.8-1,1.4-1.8,1.8c-0.8,0.4-1.8,0.7-2.9,0.7c-1.3,0-2.4-0.3-3.3-0.9
			c-0.6-0.4-1.1-1-1.5-1.7c-0.4-0.7-0.6-1.4-0.6-2.1c0-0.4,0.1-0.7,0.3-1c0.2-0.3,0.5-0.4,0.9-0.4c0.3,0,0.5,0.1,0.7,0.3
			c0.2,0.2,0.4,0.5,0.5,1c0.2,0.5,0.4,0.9,0.6,1.3c0.2,0.3,0.5,0.6,0.8,0.9c0.4,0.2,0.8,0.3,1.4,0.3c0.8,0,1.5-0.2,2-0.7
			c0.5-0.5,0.8-1,0.8-1.7c0-0.5-0.1-1-0.4-1.3c-0.3-0.3-0.6-0.6-1.1-0.8c-0.4-0.2-1-0.4-1.7-0.6c-1-0.3-1.8-0.6-2.4-1
			c-0.6-0.4-1.2-0.9-1.5-1.5s-0.6-1.4-0.6-2.4c0-0.9,0.2-1.7,0.6-2.4c0.4-0.7,1-1.2,1.7-1.6c0.8-0.4,1.7-0.6,2.7-0.6
			c0.8,0,1.5,0.1,2.1,0.4c0.6,0.2,1.1,0.6,1.5,1c0.4,0.4,0.7,0.8,0.9,1.3c0.2,0.5,0.3,0.9,0.3,1.3c0,0.4-0.1,0.7-0.3,1.1
			c-0.2,0.3-0.5,0.5-0.9,0.5c-0.3,0-0.5-0.1-0.7-0.3c-0.2-0.2-0.3-0.5-0.5-0.9c-0.2-0.6-0.5-1.1-0.9-1.4c-0.3-0.3-0.9-0.5-1.6-0.5
			c-0.7,0-1.3,0.2-1.7,0.6c-0.4,0.4-0.6,0.8-0.6,1.3c0,0.3,0.1,0.6,0.2,0.8c0.1,0.2,0.3,0.4,0.6,0.6c0.3,0.2,0.5,0.3,0.8,0.4
			c0.3,0.1,0.7,0.2,1.3,0.4c0.8,0.2,1.4,0.5,2.1,0.7c0.6,0.3,1.1,0.6,1.6,0.9c0.4,0.4,0.8,0.8,1,1.4
			C281.4,245.8,281.5,246.5,281.5,247.3z"/>
		<path class="st0" d="M306.6,238.6h-3v11.8c0,0.7-0.1,1.2-0.4,1.5c-0.2,0.3-0.6,0.5-1,0.5c-0.4,0-0.7-0.2-1-0.5
			c-0.3-0.3-0.4-0.8-0.4-1.5v-11.8h-3c-0.5,0-0.8-0.1-1-0.4c-0.2-0.2-0.3-0.6-0.3-1c0-0.4,0.1-0.8,0.4-1c0.2-0.2,0.6-0.4,1-0.4h8.6
			c0.5,0,0.8,0.1,1,0.4c0.2,0.3,0.3,0.6,0.3,1c0,0.4-0.1,0.7-0.3,1C307.4,238.5,307.1,238.6,306.6,238.6z"/>
		<path class="st0" d="M350.9,250.3l-0.6-2h-5.5l-0.6,2.1c-0.3,0.8-0.5,1.4-0.6,1.6c-0.2,0.3-0.5,0.4-0.9,0.4
			c-0.3,0-0.6-0.2-0.9-0.5c-0.3-0.3-0.4-0.6-0.4-1c0-0.2,0-0.5,0.1-0.7c0.1-0.2,0.2-0.6,0.3-1l3.4-10.5c0.1-0.3,0.2-0.7,0.4-1.1
			c0.1-0.4,0.3-0.8,0.4-1.1c0.2-0.3,0.4-0.5,0.6-0.7s0.6-0.3,0.9-0.3c0.4,0,0.7,0.1,0.9,0.3s0.5,0.4,0.6,0.7
			c0.2,0.3,0.3,0.6,0.4,0.9c0.1,0.3,0.2,0.7,0.4,1.3l3.5,10.5c0.3,0.8,0.4,1.4,0.4,1.7c0,0.4-0.1,0.7-0.4,1
			c-0.3,0.3-0.6,0.5-0.9,0.5c-0.2,0-0.4,0-0.5-0.1c-0.2-0.1-0.3-0.2-0.4-0.4c-0.1-0.2-0.2-0.4-0.3-0.7
			C351.1,250.9,351,250.6,350.9,250.3z M345.6,245.8h4l-2-6.7L345.6,245.8z"/>
		<path class="st0" d="M376.6,250.7v-0.3c-0.3,0.5-0.7,0.8-1,1.1c-0.3,0.3-0.7,0.5-1.1,0.7c-0.4,0.2-0.8,0.2-1.2,0.2
			c-0.6,0-1.2-0.2-1.7-0.5c-0.5-0.3-0.9-0.7-1.3-1.3c-0.4-0.6-0.7-1.2-0.8-2c-0.2-0.8-0.3-1.6-0.3-2.5c0-1.9,0.4-3.4,1.1-4.4
			c0.8-1.1,1.8-1.6,3-1.6c0.7,0,1.3,0.1,1.8,0.4c0.5,0.3,1,0.8,1.4,1.4v-4.5c0-0.6,0.1-1.1,0.3-1.4c0.2-0.3,0.5-0.5,0.9-0.5
			c0.4,0,0.7,0.1,0.9,0.4c0.2,0.3,0.3,0.7,0.3,1.3v13.3c0,0.6-0.1,1-0.3,1.3c-0.2,0.3-0.5,0.4-0.9,0.4c-0.3,0-0.6-0.1-0.8-0.4
			C376.7,251.7,376.6,251.3,376.6,250.7z M371.6,246.3c0,0.8,0.1,1.5,0.3,2.1c0.2,0.6,0.5,1,0.9,1.3c0.4,0.3,0.8,0.4,1.2,0.4
			c0.4,0,0.8-0.1,1.2-0.4c0.4-0.3,0.7-0.7,0.9-1.3c0.2-0.6,0.3-1.3,0.3-2.1c0-0.8-0.1-1.5-0.3-2.1c-0.2-0.6-0.5-1-0.9-1.3
			c-0.4-0.3-0.8-0.5-1.2-0.5c-0.5,0-0.9,0.2-1.2,0.5c-0.4,0.3-0.6,0.8-0.8,1.4C371.7,244.8,371.6,245.5,371.6,246.3z"/>
		<path class="st0" d="M397,242l2,6.9l2.2-7.2c0.2-0.6,0.3-1,0.5-1.2c0.2-0.2,0.4-0.4,0.8-0.4c0.3,0,0.6,0.1,0.8,0.4
			c0.2,0.3,0.3,0.6,0.3,0.9c0,0.1,0,0.3-0.1,0.5c0,0.2-0.1,0.3-0.1,0.5c-0.1,0.2-0.1,0.3-0.2,0.5l-2.4,7.2c-0.1,0.2-0.2,0.5-0.3,0.8
			c-0.1,0.3-0.2,0.6-0.4,0.8c-0.1,0.2-0.3,0.4-0.5,0.5c-0.2,0.1-0.4,0.2-0.7,0.2c-0.4,0-0.6-0.1-0.8-0.3c-0.2-0.2-0.4-0.4-0.5-0.6
			c-0.1-0.2-0.3-0.7-0.5-1.4l-2.4-7.1c-0.1-0.2-0.1-0.4-0.2-0.5c-0.1-0.2-0.1-0.4-0.1-0.5c0-0.2-0.1-0.3-0.1-0.5
			c0-0.2,0.1-0.4,0.2-0.6c0.1-0.2,0.2-0.4,0.4-0.5c0.2-0.1,0.4-0.2,0.6-0.2c0.4,0,0.7,0.1,0.9,0.4C396.6,240.9,396.8,241.4,397,242z
			"/>
		<path class="st0" d="M426.1,247h-4.9c0,0.7,0.1,1.3,0.3,1.8c0.2,0.5,0.5,0.9,0.9,1.2c0.4,0.3,0.8,0.4,1.2,0.4c0.3,0,0.6,0,0.8-0.1
			c0.2-0.1,0.5-0.2,0.7-0.4c0.2-0.2,0.4-0.4,0.6-0.6c0.2-0.2,0.4-0.5,0.8-0.8c0.1-0.1,0.3-0.2,0.5-0.2c0.3,0,0.5,0.1,0.6,0.3
			c0.2,0.2,0.2,0.4,0.2,0.7c0,0.3-0.1,0.6-0.3,1c-0.2,0.4-0.4,0.7-0.8,1.1c-0.4,0.3-0.8,0.6-1.3,0.8c-0.5,0.2-1.2,0.3-1.9,0.3
			c-1.6,0-2.9-0.6-3.7-1.7c-0.9-1.1-1.3-2.6-1.3-4.5c0-0.9,0.1-1.7,0.3-2.5c0.2-0.8,0.5-1.4,1-2c0.4-0.5,0.9-1,1.6-1.3
			c0.6-0.3,1.3-0.4,2-0.4c1,0,1.8,0.2,2.5,0.7c0.7,0.5,1.2,1.1,1.6,1.9c0.3,0.8,0.5,1.6,0.5,2.4c0,0.8-0.2,1.3-0.5,1.5
			C427.3,246.9,426.8,247,426.1,247z M421.3,245.3h4.5c-0.1-1-0.3-1.8-0.7-2.3c-0.4-0.5-0.9-0.8-1.6-0.8c-0.6,0-1.1,0.3-1.5,0.8
			C421.6,243.5,421.3,244.3,421.3,245.3z"/>
		<path class="st0" d="M446.8,248.1v2.5c0,0.6-0.1,1.1-0.4,1.4c-0.2,0.3-0.5,0.5-0.9,0.5c-0.4,0-0.7-0.2-0.9-0.5
			c-0.2-0.3-0.3-0.8-0.3-1.4v-8.4c0-1.4,0.4-2,1.2-2c0.4,0,0.7,0.2,0.9,0.5c0.2,0.3,0.3,0.8,0.3,1.4c0.3-0.6,0.6-1.1,0.9-1.4
			c0.3-0.3,0.7-0.5,1.3-0.5c0.5,0,1,0.2,1.5,0.5c0.5,0.3,0.7,0.7,0.7,1.3c0,0.4-0.1,0.7-0.3,0.9c-0.2,0.2-0.4,0.4-0.7,0.4
			c-0.1,0-0.3-0.1-0.7-0.2c-0.4-0.1-0.7-0.2-0.9-0.2c-0.4,0-0.7,0.1-0.9,0.3c-0.2,0.2-0.4,0.6-0.5,1c-0.1,0.5-0.2,1-0.3,1.6
			C446.8,246.4,446.8,247.2,446.8,248.1z"/>
		<path class="st0" d="M467,240.4h0.3v-1.8c0-0.5,0-0.9,0-1.1c0-0.3,0.1-0.5,0.2-0.7c0.1-0.2,0.2-0.4,0.4-0.5
			c0.2-0.1,0.4-0.2,0.6-0.2c0.3,0,0.6,0.1,0.9,0.4c0.2,0.2,0.3,0.4,0.3,0.7c0,0.3,0.1,0.7,0.1,1.2v2.1h0.9c0.4,0,0.6,0.1,0.8,0.3
			c0.2,0.2,0.3,0.5,0.3,0.8c0,0.4-0.1,0.7-0.4,0.9c-0.3,0.2-0.6,0.2-1.1,0.2h-0.5v5.6c0,0.5,0,0.8,0,1.1c0,0.3,0.1,0.5,0.2,0.6
			s0.3,0.2,0.6,0.2c0.1,0,0.3,0,0.6-0.1c0.2-0.1,0.4-0.1,0.6-0.1c0.2,0,0.4,0.1,0.5,0.3c0.2,0.2,0.2,0.4,0.2,0.7
			c0,0.5-0.2,0.9-0.7,1.1c-0.4,0.3-1.1,0.4-1.9,0.4c-0.8,0-1.4-0.2-1.8-0.5c-0.4-0.3-0.7-0.8-0.8-1.3c-0.1-0.6-0.2-1.3-0.2-2.2v-5.8
			h-0.3c-0.4,0-0.6-0.1-0.8-0.3c-0.2-0.2-0.3-0.5-0.3-0.8s0.1-0.6,0.3-0.8C466.3,240.5,466.6,240.4,467,240.4z"/>
		<path class="st0" d="M488.8,238.7c-0.3,0-0.6-0.1-0.9-0.4c-0.2-0.3-0.4-0.6-0.4-1.1c0-0.4,0.1-0.8,0.4-1.1
			c0.3-0.3,0.5-0.4,0.9-0.4c0.3,0,0.6,0.1,0.9,0.4c0.2,0.3,0.4,0.6,0.4,1.1c0,0.5-0.1,0.8-0.4,1.1
			C489.4,238.6,489.1,238.7,488.8,238.7z M490,241.9v8.7c0,0.6-0.1,1.1-0.4,1.4c-0.2,0.3-0.5,0.5-0.9,0.5c-0.4,0-0.7-0.2-0.9-0.5
			c-0.2-0.3-0.3-0.8-0.3-1.4V242c0-0.6,0.1-1,0.3-1.4c0.2-0.3,0.5-0.5,0.9-0.5c0.4,0,0.7,0.2,0.9,0.5
			C489.9,240.9,490,241.3,490,241.9z"/>
		<path class="st0" d="M514.7,248.5c0,0.8-0.2,1.5-0.5,2.1c-0.3,0.6-0.8,1-1.5,1.4c-0.7,0.3-1.5,0.5-2.4,0.5c-0.9,0-1.7-0.2-2.3-0.5
			c-0.6-0.3-1.1-0.7-1.4-1.2c-0.3-0.5-0.5-1-0.5-1.5c0-0.3,0.1-0.6,0.3-0.9c0.2-0.2,0.4-0.4,0.7-0.4c0.3,0,0.5,0.1,0.6,0.2
			c0.1,0.2,0.3,0.4,0.4,0.7c0.3,0.5,0.6,0.9,0.9,1.2c0.4,0.3,0.8,0.4,1.5,0.4c0.5,0,0.9-0.1,1.2-0.4c0.3-0.3,0.5-0.6,0.5-0.9
			c0-0.5-0.2-0.9-0.5-1.2c-0.3-0.2-0.9-0.5-1.6-0.7c-0.9-0.3-1.6-0.5-2.1-0.8c-0.5-0.3-1-0.7-1.3-1.1c-0.3-0.5-0.5-1-0.5-1.7
			c0-0.6,0.1-1.2,0.4-1.7c0.3-0.5,0.7-1,1.3-1.3c0.6-0.3,1.3-0.5,2.1-0.5c0.6,0,1.2,0.1,1.7,0.2c0.5,0.2,0.9,0.4,1.3,0.7
			c0.3,0.3,0.6,0.6,0.8,0.9c0.2,0.3,0.3,0.7,0.3,1c0,0.3-0.1,0.6-0.3,0.9c-0.2,0.2-0.5,0.3-0.8,0.3c-0.3,0-0.5-0.1-0.7-0.3
			c-0.2-0.2-0.4-0.4-0.6-0.8c-0.2-0.3-0.4-0.5-0.7-0.7c-0.3-0.2-0.6-0.3-1-0.3c-0.5,0-0.8,0.1-1.1,0.3c-0.3,0.2-0.4,0.5-0.4,0.9
			c0,0.3,0.1,0.6,0.3,0.8c0.2,0.2,0.5,0.4,0.9,0.5c0.4,0.1,0.9,0.3,1.5,0.5c0.8,0.2,1.4,0.5,1.9,0.8c0.5,0.3,0.9,0.7,1.1,1.1
			C514.5,247.4,514.7,247.9,514.7,248.5z"/>
		<path class="st0" d="M532.1,238.7c-0.3,0-0.6-0.1-0.9-0.4c-0.2-0.3-0.4-0.6-0.4-1.1c0-0.4,0.1-0.8,0.4-1.1
			c0.3-0.3,0.5-0.4,0.9-0.4c0.3,0,0.6,0.1,0.9,0.4c0.2,0.3,0.4,0.6,0.4,1.1c0,0.5-0.1,0.8-0.4,1.1
			C532.7,238.6,532.4,238.7,532.1,238.7z M533.3,241.9v8.7c0,0.6-0.1,1.1-0.4,1.4c-0.2,0.3-0.5,0.5-0.9,0.5c-0.4,0-0.7-0.2-0.9-0.5
			c-0.2-0.3-0.3-0.8-0.3-1.4V242c0-0.6,0.1-1,0.3-1.4c0.2-0.3,0.5-0.5,0.9-0.5c0.4,0,0.7,0.2,0.9,0.5
			C533.2,240.9,533.3,241.3,533.3,241.9z"/>
		<path class="st0" d="M552.2,241.8v0.4c0.4-0.7,0.9-1.2,1.4-1.5c0.5-0.3,1.1-0.5,1.8-0.5c0.7,0,1.2,0.2,1.8,0.5
			c0.5,0.3,0.9,0.8,1.2,1.5c0.2,0.4,0.3,0.8,0.3,1.2c0,0.4,0.1,1,0.1,1.6v5.6c0,0.6-0.1,1.1-0.3,1.4c-0.2,0.3-0.5,0.5-0.9,0.5
			c-0.4,0-0.7-0.2-0.9-0.5c-0.2-0.3-0.3-0.8-0.3-1.4v-5c0-1-0.1-1.8-0.3-2.3c-0.2-0.5-0.7-0.8-1.4-0.8c-0.4,0-0.9,0.2-1.2,0.5
			c-0.4,0.3-0.6,0.8-0.8,1.3c-0.1,0.5-0.2,1.3-0.2,2.5v3.8c0,0.6-0.1,1.1-0.4,1.4c-0.2,0.3-0.5,0.5-0.9,0.5c-0.4,0-0.7-0.2-0.9-0.5
			c-0.2-0.3-0.3-0.8-0.3-1.4v-8.7c0-0.6,0.1-1,0.3-1.3c0.2-0.3,0.5-0.4,0.9-0.4c0.2,0,0.4,0.1,0.6,0.2c0.2,0.1,0.3,0.3,0.4,0.6
			C552.1,241.2,552.2,241.5,552.2,241.8z"/>
		<path class="st0" d="M584.5,242.4v8.8c0,1-0.1,1.9-0.3,2.6c-0.2,0.7-0.5,1.3-0.8,1.8c-0.4,0.5-0.9,0.8-1.5,1.1
			c-0.6,0.2-1.4,0.3-2.4,0.3c-0.9,0-1.6-0.1-2.3-0.4c-0.7-0.3-1.2-0.7-1.6-1.1c-0.4-0.5-0.5-0.9-0.5-1.4c0-0.4,0.1-0.7,0.3-0.9
			c0.2-0.2,0.5-0.4,0.8-0.4c0.4,0,0.7,0.2,1,0.6c0.1,0.2,0.3,0.4,0.4,0.6c0.1,0.2,0.3,0.4,0.5,0.5c0.2,0.1,0.4,0.3,0.6,0.3
			c0.2,0.1,0.5,0.1,0.8,0.1c0.6,0,1.1-0.1,1.5-0.3c0.4-0.2,0.6-0.5,0.8-0.9c0.1-0.4,0.2-0.8,0.3-1.3s0-1.2,0.1-2.2
			c-0.4,0.6-0.8,1.1-1.3,1.5c-0.5,0.3-1.1,0.5-1.8,0.5c-0.8,0-1.6-0.3-2.2-0.8c-0.6-0.5-1.1-1.2-1.4-2.2c-0.3-0.9-0.5-2-0.5-3.2
			c0-0.9,0.1-1.7,0.3-2.5c0.2-0.7,0.5-1.3,0.9-1.9c0.4-0.5,0.8-0.9,1.3-1.1c0.5-0.3,1-0.4,1.6-0.4c0.7,0,1.3,0.2,1.8,0.5
			c0.5,0.3,1,0.8,1.4,1.5v-0.4c0-0.5,0.1-0.9,0.3-1.2c0.2-0.3,0.5-0.4,0.8-0.4c0.5,0,0.8,0.2,1,0.6
			C584.4,241.1,584.5,241.6,584.5,242.4z M577.2,246.2c0,1.2,0.2,2.2,0.7,2.8c0.4,0.6,1,0.9,1.7,0.9c0.4,0,0.8-0.1,1.2-0.4
			c0.4-0.3,0.7-0.7,0.9-1.2c0.2-0.5,0.3-1.2,0.3-2c0-1.2-0.2-2.2-0.7-2.9c-0.4-0.7-1-1-1.8-1c-0.7,0-1.3,0.3-1.7,1
			C577.5,244.1,577.2,245,577.2,246.2z"/>
	</g>
	<g>
		<path class="st0" d="M225.3,195.1c0.7,0,1.2,0.2,1.7,0.5c0.5,0.4,0.7,0.9,0.7,1.3c0,0.3-0.1,0.7-0.2,1.1
			c-1.6,4.9-3.4,9.1-5.3,12.8c-0.6,0.7-1.2,1-2,1c-1.4,0-2.2-0.6-2.2-1.9c0-0.6,0.1-0.9,0.2-1.1c1.8-3.3,3.5-7.5,5.3-12.6
			C223.9,195.5,224.4,195.1,225.3,195.1z M232.5,164.9c1.4,0,2.2,0.7,2.2,2.2v2.9h8c1.3,0,2,0.7,2,2c0,1.3-0.7,2-2,2h-21.3
			c-1.3,0-2-0.7-2-2c0-1.3,0.7-2,2-2h9v-2.9C230.4,165.6,231.1,164.9,232.5,164.9z M225.1,176.9h13.8c2.4,0,3.6,1.2,3.6,3.5v7.6
			c0,2.3-1.2,3.5-3.6,3.5h-4.1v16.9c0,3.1-1.8,4.6-5.4,4.6c-0.7,0-1.7-0.1-2.9-0.4c-1.1-0.4-1.7-1.1-1.7-2.2c0.1-1.3,0.7-2,2-2.1
			c0.1,0,0.2,0,0.4,0.1c1.1,0.2,1.9,0.4,2.2,0.4c0.8,0,1.2-0.4,1.2-1.1v-16.1h-5.6c-2.4,0-3.6-1.2-3.6-3.5v-7.6
			C221.5,178.1,222.7,176.9,225.1,176.9z M237.3,187.8c0.9,0,1.3-0.5,1.3-1.4V182c0-1-0.4-1.4-1.3-1.4h-10.5c-0.9,0-1.4,0.5-1.4,1.4
			v4.3c0,1,0.5,1.4,1.4,1.4H237.3z M239.6,194.9c0.6,0,1.1,0.3,1.7,0.8c1,1.7,1.9,3.6,2.6,5.7c0.2,0.6,0.3,1.2,0.3,1.7
			c0,1.1-0.8,1.7-2.4,1.7c-0.7,0-1.3-0.5-1.6-1.5c-0.7-2.5-1.5-4.4-2.2-5.9c-0.2-0.4-0.3-0.8-0.3-1.1
			C237.5,195.3,238.2,194.9,239.6,194.9z M266.2,175.3c1.3,0,2,0.7,2,2c0,1.3-0.7,2-2,2h-12.9v3.6c0,6.2-0.8,11.9-2.5,17.3
			c-1.4,4.6-3.4,8.7-6,12.2c-0.6,0.4-1.1,0.6-1.7,0.7c-1.6-0.1-2.5-0.8-2.5-2.3c0-0.3,0.3-0.8,0.7-1.2c3.3-4.8,5.5-9.7,6.7-14.8
			c0.9-4,1.4-7.9,1.4-11.9v-3.6h-4.4c-1.3,0-2-0.7-2-2c0-1.3,0.7-2,2-2h4.4v-8.2c0-1.4,0.7-2.1,2-2.1c1.3,0,2,0.7,2,2.1v8.2H266.2z
			 M256.7,182.9c1.3,0,2,0.7,2,2.1v20.5c0,1.1,0.2,1.8,0.5,2.2c0.3,0.4,1.2,0.6,2.5,0.6c1,0,1.6-0.2,1.8-0.7c0.2-0.5,0.4-1.2,0.4-2
			v-4.5c0.1-1.5,0.7-2.3,2-2.3c1.2,0.1,1.9,1,2,2.8c0,4.4-0.2,7-0.5,7.7c-0.2,1-0.6,1.7-1.4,2.2c-0.7,0.5-2.1,0.8-4.2,0.8
			c-2.9,0-4.8-0.4-5.7-1.3c-0.8-0.8-1.2-2.4-1.2-4.6v-21.3C254.7,183.6,255.4,182.9,256.7,182.9z M258.7,166.1
			c0.4,0,0.9,0.2,1.4,0.5c0.7,0.6,1.3,1.1,1.8,1.6c0.6,0.6,1.4,1.4,2.3,2.6c0.2,0.4,0.3,0.8,0.3,1.1c0,1.2-0.7,1.9-2.1,1.9
			c-0.7,0-1.2-0.2-1.7-0.5c-0.8-0.9-1.4-1.7-1.9-2.2c-0.4-0.4-0.9-0.9-1.5-1.4c-0.5-0.5-0.7-1-0.7-1.5
			C256.7,166.8,257.4,166.1,258.7,166.1z"/>
		<path class="st0" d="M328.9,187.3c1.3,0,2,0.7,2,2c0,1.3-0.7,2-2,2h-20.6v5.6h16.5c1.3,0,2,0.7,2,2c0,1.3-0.7,2-2,2h-16.5v6.5
			c3.9,0.6,11,0.8,21.1,0.8c1.4,0.1,2.1,0.9,2.1,2.3c-0.1,1.4-0.9,2.2-2.4,2.3c-13.1-0.1-21.5-0.7-25.3-1.8
			c-3.1-0.9-5.6-2.1-7.6-3.5c-1-0.7-2-1.6-2.9-2.8c-1.1,2.8-2.9,5.4-5.4,7.9c-0.8,0.8-1.5,1.1-2.3,1.1c-1.6,0-2.4-0.8-2.4-2.3
			c0-0.2,0.1-0.6,0.4-1.2c2.6-2.2,4.4-4.5,5.4-6.9c1-2.2,1.6-4.9,2-8.1c0-1.4,0.7-2.1,2.2-2.1c1.4,0,2.2,0.7,2.2,2.1
			c-0.1,1.8-0.4,3.5-0.7,5c1.1,1.6,2.3,2.8,3.6,3.6c1.6,1.1,3.5,2,5.8,2.7v-15.1h-19.5c-1.3,0-2-0.7-2-2c0-1.3,0.7-2,2-2H328.9z
			 M290.6,166.1H322c2.6,0,3.9,1.3,3.9,3.8V180c0,2.5-1.3,3.7-3.9,3.7h-31.4c-2.6,0-3.9-1.2-3.9-3.7v-10.1
			C286.7,167.3,288,166.1,290.6,166.1z M290.8,172.9h31v-1.6c0-1-0.4-1.4-1.2-1.4h-28.5c-0.8,0-1.2,0.5-1.2,1.4V172.9z M320.6,180
			c0.8,0,1.2-0.5,1.2-1.4v-2.2h-31v2.2c0,1,0.4,1.4,1.2,1.4H320.6z"/>
		<path class="st0" d="M373.1,164.3c1.5,0,2.3,0.8,2.3,2.3v1.2h16.7c1.4,0,2.1,0.6,2.1,1.9s-0.7,1.9-2.1,1.9h-8.3v2h7.2
			c1.2,0,1.8,0.6,1.8,1.8c0,1.2-0.6,1.8-1.8,1.8h-7.2v2c0,2.5-1.3,3.7-3.9,3.7h-13.8c-2.6,0-3.9-1.2-3.9-3.7v-2h-6.6
			c-1.2,0-1.8-0.6-1.8-1.8c0-1.2,0.6-1.8,1.8-1.8h6.6v-2h-8.4c-1,0-1.5,0.6-1.5,1.7v12c0.3-0.6,0.9-0.8,1.7-0.8h38.6
			c1.2,0,1.9,0.6,1.9,1.9s-0.6,1.9-1.9,1.9h-17.4v2.2H387c2.5,0,3.7,1.1,3.7,3.4v8.3c0,2.3-1.2,3.4-3.7,3.4h-4.8
			c0.2,0,0.3,0.1,0.3,0.1c3.3,0.9,6.9,2.1,10.9,3.7c0.9,0.6,1.4,1.2,1.4,1.7c0,1.6-0.7,2.4-2.1,2.4c-0.2,0-0.6-0.1-1.1-0.3
			c-3.9-1.7-7.7-3-11.5-4.1c-0.9-0.3-1.4-0.8-1.4-1.7c0-0.9,0.3-1.5,0.9-1.8H366c0.9,0.2,1.3,0.9,1.3,2c0,0.6-0.3,1.1-0.8,1.7
			c-2.5,1.4-6.1,2.8-10.7,3.9c-0.5,0.1-0.9,0.2-1,0.2c-1.4,0-2.2-0.7-2.2-2.2c0-0.5,0.3-1,1-1.6c4.1-1,7.6-2.2,10.4-3.6
			c0.3-0.1,0.5-0.2,0.7-0.3h-5.5c-2.5,0-3.7-1.1-3.7-3.4v-8.3c0-2.3,1.2-3.4,3.7-3.4h11.8V188h-17.2c-0.9,0-1.4-0.3-1.7-0.8v1.9
			c0,5.5-0.2,10.2-0.7,14.3c-0.4,2.9-0.9,5.4-1.5,7.6c-0.4,1-1,1.5-1.9,1.5c-1.6-0.1-2.4-0.8-2.4-2.2c0.8-3.7,1.4-7,1.8-9.9
			c0.4-3.4,0.7-7.1,0.7-11.3v-17.6c0-2.5,1.3-3.7,3.9-3.7h18.8v-1.2C370.8,165,371.6,164.3,373.1,164.3z M359.7,195.9h11.4v-2.2
			h-10.1c-0.8,0-1.2,0.5-1.2,1.5V195.9z M371.1,201.8v-2.5h-11.4v1c0,1,0.4,1.5,1.2,1.5H371.1z M379.7,173.5v-2h-13.4v2H379.7z
			 M378.7,178.9c0.7,0,1-0.4,1-1.2V177h-13.4v0.7c0,0.8,0.3,1.2,1,1.2H378.7z M375.2,193.7v2.2h11.4v-0.6c0-1-0.4-1.5-1.2-1.5H375.2
			z M385.3,201.8c0.8,0,1.2-0.5,1.2-1.5v-1h-11.4v2.5H385.3z"/>
		<path class="st0" d="M420.1,165.9c0.6,0,1.1,0.2,1.5,0.5c0.3,0.3,0.5,0.7,0.5,1.1c0,0.5-0.1,1-0.3,1.6c-0.3,1-0.6,1.9-0.9,2.7h11
			v-5c0-1.4,0.7-2.2,2.2-2.2c1.4,0,2.2,0.7,2.2,2.2v5h17.4c1.4,0,2.2,0.7,2.2,2.2c0,1.4-0.7,2.2-2.2,2.2h-17.4v8.7h19.5
			c1.4,0,2.2,0.7,2.2,2.2c0,1.4-0.7,2.2-2.2,2.2H412c-1.4,0-2.2-0.7-2.2-2.2c0-1.4,0.7-2.2,2.2-2.2h19.9v-8.7h-13.1
			c-0.7,1.1-1.4,2.2-2.2,3.2c-1,1.2-2.1,2.3-3.5,3.2c-0.4,0.2-0.9,0.4-1.4,0.4c-0.6,0-1.1-0.2-1.5-0.7c-0.4-0.5-0.6-1-0.6-1.7
			c0-0.6,0.2-1.1,0.7-1.5c1.1-0.9,2.1-1.8,3-2.8c1-1.2,1.8-2.5,2.6-4c0.7-1.3,1.3-3,1.9-4.9C418.2,166.4,419,165.9,420.1,165.9z
			 M418.6,193.8h31.2c2.9,0,4.3,1.4,4.3,4.1v10.3c0,2.8-1.4,4.2-4.3,4.2h-31.2c-2.9,0-4.3-1.4-4.3-4.2V198
			C414.3,195.2,415.7,193.8,418.6,193.8z M448.2,208.3c1,0,1.4-0.6,1.4-1.7v-7c0-1.1-0.5-1.7-1.4-1.7h-27.9c-1,0-1.4,0.6-1.4,1.7v7
			c0,1.1,0.5,1.7,1.4,1.7H448.2z"/>
		<path class="st0" d="M551.1,174.6c1.4,0,2.1,0.7,2.1,2.1c0,1.4-0.7,2.1-2.1,2.1h-4.2v9.7c1.1-0.7,2.3-1.5,3.6-2.4l0.8-0.3
			c1.4,0,2.1,0.8,2.1,2.3c0,0.5-0.3,1-0.8,1.5c-1.4,1.2-3.3,2.4-5.7,3.7v14.9c0,3.3-1.9,4.9-5.7,4.9c-1,0-2.3-0.3-3.9-1
			c-1.2-0.4-1.8-1.1-1.8-2.3c0.1-1.4,0.7-2.2,1.9-2.2c0.2,0,0.4,0,0.7,0.1c1.6,0.6,2.6,0.9,3.1,0.9c0.9,0,1.3-0.4,1.3-1.3v-11.9
			c-1.3,0.6-2.6,1.1-3.9,1.5c-0.4,0.2-0.8,0.3-1.1,0.3c-1.4,0-2.1-0.7-2.1-2.2c0-1.1,0.5-1.8,1.6-2.2c2.2-0.7,4-1.4,5.5-2.1v-12
			h-4.9c-1.4,0-2.1-0.7-2.1-2.1c0-1.4,0.7-2.1,2.1-2.1h4.9v-7.9c0-1.4,0.7-2.2,2.2-2.2c1.4,0,2.2,0.7,2.2,2.2v7.9H551.1z
			 M582.6,169.6c1.4,0,2.1,0.7,2.1,2.1c0,1.4-0.7,2.1-2.1,2.1h-13v7.2h8.7c2,0,3,1.2,3,3.7c0,1-0.4,2.4-1.1,4.2
			c-1.3,3-3,5.8-5.1,8.4c-1.6,1.9-3.1,3.5-4.6,4.9c1.7,1.1,3.6,2.1,5.9,3c1.9,0.9,4.4,1.8,7.6,2.7c1.1,0.4,1.7,1.2,1.7,2.2
			c0,1.7-0.8,2.5-2.3,2.5c-0.2,0-0.6-0.1-1.1-0.2c-4-1.4-7.2-2.8-9.6-4c-2.2-1.1-4.1-2.2-5.7-3.4c-3.8,3-8.1,5.4-13,7.4
			c-0.8,0.3-1.4,0.4-1.7,0.4c-1.6,0-2.4-0.8-2.4-2.4c0-0.9,0.5-1.7,1.5-2.2c5.1-2.1,9-4.1,11.7-6c0.1-0.1,0.3-0.2,0.4-0.3
			c-1.3-1.3-2.6-2.8-3.7-4.5c-1.9-2.8-3.3-5.7-4.3-8.9c0-1.3,0.7-1.9,2.2-1.9c0.9,0,1.4,0.5,1.7,1.4c1.3,3.2,2.8,5.9,4.3,7.9
			c0.9,1.2,2,2.3,3.2,3.4c1.6-1.3,3-2.8,4.2-4.2c2-2.4,3.5-4.8,4.5-7c0.5-1,0.8-1.7,0.8-2.1c0-0.7-0.2-1.1-0.7-1.1h-20.1
			c-1.4,0-2.1-0.7-2.1-2.1c0-1.4,0.7-2.1,2.1-2.1h9.5v-7.2h-11.2c-1.4,0-2.1-0.7-2.1-2.1c0-1.4,0.7-2.1,2.1-2.1H565V167
			c0-1.5,0.8-2.3,2.3-2.3s2.3,0.8,2.3,2.3v2.7H582.6z"/>
		<g>
			<g>
				<path class="st0" d="M492,196.1c1.5,0,2.3-0.7,2.3-2.2c0-0.4-0.2-0.8-0.6-1.4l-7.7-9.2v-0.9h5.5c1.4,0,2.1-0.7,2.1-2.1
					c0-1.4-0.7-2.1-2.1-2.1h-5.5v-7.6c2.1-0.3,3.9-0.7,5.3-1c1.8-0.3,2.7-1.1,2.7-2.3c0-1.5-0.7-2.3-2.1-2.3c-3.2,1-6.1,1.6-8.5,1.8
					c-2.4,0.3-5.1,0.5-8,0.6c-1.4,0-2.1,0.7-2.1,2c0,1.6,0.9,2.3,2.7,2.3c1.2,0,3.1-0.2,5.7-0.5v7h-7.1c-1.4,0-2.1,0.7-2.1,2.1
					c0,1.4,0.7,2.1,2.1,2.1h5.8c-0.6,2.1-1.4,4-2.2,5.6c-1.1,2.3-2.9,5.2-5.5,8.7c-0.4,0.6-0.7,1.2-0.7,1.8c0,1.2,0.7,1.9,2.2,1.9
					c0.8,0,1.5-0.3,2-0.9c0.8-0.8,1.7-2.1,2.7-3.9c0.8-1.3,1.7-3.1,2.7-5.3c0-0.1,0.1-0.2,0.2-0.4v21.5c0,1.4,0.7,2.2,2.2,2.2
					c1.4,0,2.2-0.7,2.2-2.2v-22.4l4.4,6.1C490.7,195.8,491.3,196.1,492,196.1z"/>
				<path class="st0" d="M520.5,195l-3.8,0.6v-28.2c0-1.4-0.7-2.2-2.2-2.2c-1.4,0-2.2,0.7-2.2,2.2v28.8l-19.7,3.1
					c-1.4,0-2.2,0.7-2.2,2.2c0,1.4,0.7,2.2,2.2,2.2l19.7-3.1v11.1c0,1.4,0.7,2.2,2.2,2.2c1.4,0,2.2-0.7,2.2-2.2v-11.7l3.8-0.6
					c1.4,0,2.2-0.7,2.2-2.2C522.7,195.7,522,195,520.5,195z"/>
			</g>
			<polygon class="st0" points="511.1,194.9 504.2,195.8 504.2,179.8 511.1,179.8 			"/>
			<polygon class="st0" points="502.9,196 496.1,196.9 496.1,175.5 502.9,175.5 			"/>
		</g>
	</g>
</g>
</svg>
