<?xml version="1.0" encoding="utf-8"?>
<!-- Generator: Adobe Illustrator 25.2.3, SVG Export Plug-In . SVG Version: 6.00 Build 0)  -->
<svg version="1.1" id="圖層_1" xmlns="http://www.w3.org/2000/svg" xmlns:xlink="http://www.w3.org/1999/xlink" x="0px" y="0px"
	 viewBox="0 0 24 24" style="enable-background:new 0 0 24 24;" xml:space="preserve">
<style type="text/css">
	.st0{fill:none;}
	.st1{fill:#2F4858;}
</style>
<path class="st0" d="M0,0h24v24H0V0z"/>
<path class="st1" d="M12.7,2C6.6,1.6,1.6,6.6,2,12.7C2.4,18,7,22,12.3,22H16c0.5,0,1-0.5,1-1s-0.5-1-1-1h-3.7c-3.7,0-7.2-2.4-8.1-6
	C2.8,8.2,8.2,2.8,14,4.3c3.6,0.9,6,4.3,6,8.1v1.1c0,0.8-0.7,1.6-1.5,1.6S17,14.2,17,13.4v-1.2c0-2.5-1.8-4.8-4.3-5.1
	c-3.4-0.5-6.3,2.4-5.7,5.9c0.3,1.9,1.8,3.5,3.7,3.9c1.8,0.4,3.6-0.2,4.7-1.3c0.9,1.2,2.7,1.9,4.3,1.2c1.3-0.5,2.2-1.9,2.2-3.3v-1.1
	C22,7,18,2.4,12.7,2z M12,15c-1.7,0-3-1.3-3-3s1.3-3,3-3s3,1.3,3,3S13.7,15,12,15z"/>
</svg>
