<?xml version="1.0" encoding="utf-8"?>
<!-- Generator: Adobe Illustrator 25.2.3, SVG Export Plug-In . SVG Version: 6.00 Build 0)  -->
<svg version="1.1" id="圖層_1" xmlns="http://www.w3.org/2000/svg" xmlns:xlink="http://www.w3.org/1999/xlink" x="0px" y="0px"
	 viewBox="0 0 90 90" style="enable-background:new 0 0 90 90;" xml:space="preserve">
<style type="text/css">
	.st0{fill:#F6AE2D;}
	.st1{opacity:0.7;fill:#F6AE2D;}
	.st2{opacity:0.5;fill:#F6AE2D;}
	.st3{opacity:0.2;fill:#F6AE2D;}
</style>
<path class="st0" d="M52,90H38c-4.4,0-8-3.6-8-8V68c0-4.4,3.6-8,8-8h14c4.4,0,8,3.6,8,8v14C60,86.4,56.4,90,52,90z"/>
<path class="st0" d="M22,90H8c-4.4,0-8-3.6-8-8V68c0-4.4,3.6-8,8-8h14c4.4,0,8,3.6,8,8v14C30,86.4,26.4,90,22,90z"/>
<path class="st1" d="M22,30H8c-4.4,0-8-3.6-8-8V8c0-4.4,3.6-8,8-8h14c4.4,0,8,3.6,8,8v14C30,26.4,26.4,30,22,30z"/>
<path class="st2" d="M52,30H38c-4.4,0-8-3.6-8-8V8c0-4.4,3.6-8,8-8h14c4.4,0,8,3.6,8,8v14C60,26.4,56.4,30,52,30z"/>
<path class="st2" d="M82,30H68c-4.4,0-8-3.6-8-8V8c0-4.4,3.6-8,8-8h14c4.4,0,8,3.6,8,8v14C90,26.4,86.4,30,82,30z"/>
<path class="st0" d="M52,60H38c-4.4,0-8-3.6-8-8V38c0-4.4,3.6-8,8-8h14c4.4,0,8,3.6,8,8v14C60,56.4,56.4,60,52,60z"/>
<path class="st0" d="M22,60H8c-4.4,0-8-3.6-8-8V38c0-4.4,3.6-8,8-8h14c4.4,0,8,3.6,8,8v14C30,56.4,26.4,60,22,60z"/>
<path class="st3" d="M82,60H68c-4.4,0-8-3.6-8-8V38c0-4.4,3.6-8,8-8h14c4.4,0,8,3.6,8,8v14C90,56.4,86.4,60,82,60z"/>
<path class="st3" d="M82,90H68c-4.4,0-8-3.6-8-8V68c0-4.4,3.6-8,8-8h14c4.4,0,8,3.6,8,8v14C90,86.4,86.4,90,82,90z"/>
</svg>
