<?xml version="1.0" encoding="utf-8"?>
<!-- Generator: Adobe Illustrator 25.2.3, SVG Export Plug-In . SVG Version: 6.00 Build 0)  -->
<svg version="1.1" id="圖層_1" xmlns="http://www.w3.org/2000/svg" xmlns:xlink="http://www.w3.org/1999/xlink" x="0px" y="0px"
	 viewBox="0 0 24 24" style="enable-background:new 0 0 24 24;" xml:space="preserve">
<style type="text/css">
	.st0{fill:#2F4858;}
</style>
<path class="st0" d="M14,11c0,0.6-0.4,1-1,1H4c-0.5,0-1-0.4-1-1s0.5-1,1-1h9C13.6,10,14,10.4,14,11z M3,7c0,0.6,0.5,1,1,1h9
	c0.6,0,1-0.4,1-1s-0.4-1-1-1H4C3.5,6,3,6.4,3,7z M10,15c0-0.6-0.4-1-1-1H4c-0.5,0-1,0.4-1,1s0.5,1,1,1h5C9.6,16,10,15.6,10,15z
	 M18,12.9l0.7-0.7c0.4-0.4,1-0.4,1.4,0l0.7,0.7c0.4,0.4,0.4,1,0,1.4L20.1,15L18,12.9z M17.3,13.6l-5.2,5.2C12.1,18.8,12,19,12,19.1
	v1.4c0,0.3,0.2,0.5,0.5,0.5h1.4c0.1,0,0.3,0,0.4-0.1l5.2-5.2L17.3,13.6z"/>
</svg>
