<?xml version="1.0" encoding="utf-8"?>
<!-- Generator: Adobe Illustrator 25.2.3, SVG Export Plug-In . SVG Version: 6.00 Build 0)  -->
<svg version="1.1" id="圖層_1" xmlns="http://www.w3.org/2000/svg" xmlns:xlink="http://www.w3.org/1999/xlink" x="0px" y="0px"
	 viewBox="0 0 30.92 27.79" style="enable-background:new 0 0 30.92 27.79;" xml:space="preserve">
<style type="text/css">
	.st0{fill:#33658A;}
</style>
<g>
	<g>
		<circle class="st0" cx="12.64" cy="6.32" r="6.32"/>
		<path class="st0" d="M13.19,15.81C8.88,15.66,0,17.81,0,22.12v1.58c0,0.87,0.71,1.58,1.58,1.58h13.49
			C11.17,20.92,13.13,15.97,13.19,15.81z"/>
		<path class="st0" d="M27.54,22.15c0.74-1.26,1.11-2.8,0.76-4.46c-0.54-2.59-2.72-4.66-5.34-4.99c-4.16-0.54-7.66,2.95-7.11,7.11
			c0.35,2.62,2.4,4.8,4.99,5.34c1.66,0.35,3.19-0.02,4.46-0.76l2.94,2.94c0.62,0.62,1.61,0.62,2.23,0l0,0
			c0.62-0.62,0.62-1.61,0-2.23L27.54,22.15z M22.12,22.12c-1.74,0-3.16-1.42-3.16-3.16c0-1.74,1.42-3.16,3.16-3.16
			s3.16,1.42,3.16,3.16C25.28,20.7,23.86,22.12,22.12,22.12z"/>
	</g>
</g>
</svg>
