<?xml version="1.0" encoding="utf-8"?>
<!-- Generator: Adobe Illustrator 25.2.3, SVG Export Plug-In . SVG Version: 6.00 Build 0)  -->
<svg version="1.1" id="圖層_1" xmlns="http://www.w3.org/2000/svg" xmlns:xlink="http://www.w3.org/1999/xlink" x="0px" y="0px"
	 viewBox="0 0 33.52 33.52" style="enable-background:new 0 0 33.52 33.52;" xml:space="preserve">
<style type="text/css">
	.st0{fill:#FFFFFF;}
</style>
<g>
	<path class="st0" d="M23.9,7.5H9.62C8.45,7.5,7.5,8.45,7.5,9.62V23.9c0,1.17,0.95,2.12,2.12,2.12H23.9c1.17,0,2.12-0.95,2.12-2.12
		V9.62C26.02,8.45,25.07,7.5,23.9,7.5z M16.95,22.93c-3.51,0-6.37-2.86-6.37-6.37s2.86-6.37,6.37-6.37c3.51,0,6.37,2.86,6.37,6.37
		S20.46,22.93,16.95,22.93z M23.32,11.55c-0.53,0-0.96-0.43-0.96-0.96c0-0.53,0.43-0.96,0.96-0.96c0.53,0,0.96,0.43,0.96,0.96
		C24.28,11.12,23.85,11.55,23.32,11.55z"/>
	<path class="st0" d="M16.95,12.13c-2.45,0-4.44,1.99-4.44,4.44s1.99,4.44,4.44,4.44c2.45,0,4.44-1.99,4.44-4.44
		S19.4,12.13,16.95,12.13z"/>
	<path class="st0" d="M16.76,0.17C7.6,0.17,0.17,7.6,0.17,16.76c0,9.16,7.43,16.59,16.59,16.59c9.16,0,16.59-7.43,16.59-16.59
		C33.35,7.6,25.92,0.17,16.76,0.17z M27.95,23.9c0,2.23-1.82,4.05-4.05,4.05H9.62c-2.23,0-4.05-1.82-4.05-4.05V9.62
		c0-2.23,1.82-4.05,4.05-4.05H23.9c2.23,0,4.05,1.82,4.05,4.05V23.9z"/>
</g>
</svg>
